%TF.GenerationSoftware,KiCad,Pcbnew,(6.0.2)*%
%TF.CreationDate,2022-02-23T19:09:50-05:00*%
%TF.ProjectId,SDP_motors,5344505f-6d6f-4746-9f72-732e6b696361,rev?*%
%TF.SameCoordinates,Original*%
%TF.FileFunction,Legend,Top*%
%TF.FilePolarity,Positive*%
%FSLAX46Y46*%
G04 Gerber Fmt 4.6, Leading zero omitted, Abs format (unit mm)*
G04 Created by KiCad (PCBNEW (6.0.2)) date 2022-02-23 19:09:50*
%MOMM*%
%LPD*%
G01*
G04 APERTURE LIST*
%ADD10C,0.150000*%
%ADD11C,0.120000*%
G04 APERTURE END LIST*
D10*
X172186647Y-57627828D02*
X172948552Y-57627828D01*
X172567600Y-58008780D02*
X172567600Y-57246876D01*
X178663695Y-130360800D02*
X178568457Y-130313180D01*
X178425600Y-130313180D01*
X178282742Y-130360800D01*
X178187504Y-130456038D01*
X178139885Y-130551276D01*
X178092266Y-130741752D01*
X178092266Y-130884609D01*
X178139885Y-131075085D01*
X178187504Y-131170323D01*
X178282742Y-131265561D01*
X178425600Y-131313180D01*
X178520838Y-131313180D01*
X178663695Y-131265561D01*
X178711314Y-131217942D01*
X178711314Y-130884609D01*
X178520838Y-130884609D01*
X179139885Y-131313180D02*
X179139885Y-130313180D01*
X179711314Y-131313180D01*
X179711314Y-130313180D01*
X180187504Y-131313180D02*
X180187504Y-130313180D01*
X180425600Y-130313180D01*
X180568457Y-130360800D01*
X180663695Y-130456038D01*
X180711314Y-130551276D01*
X180758933Y-130741752D01*
X180758933Y-130884609D01*
X180711314Y-131075085D01*
X180663695Y-131170323D01*
X180568457Y-131265561D01*
X180425600Y-131313180D01*
X180187504Y-131313180D01*
X89662095Y-56091200D02*
X89566857Y-56043580D01*
X89424000Y-56043580D01*
X89281142Y-56091200D01*
X89185904Y-56186438D01*
X89138285Y-56281676D01*
X89090666Y-56472152D01*
X89090666Y-56615009D01*
X89138285Y-56805485D01*
X89185904Y-56900723D01*
X89281142Y-56995961D01*
X89424000Y-57043580D01*
X89519238Y-57043580D01*
X89662095Y-56995961D01*
X89709714Y-56948342D01*
X89709714Y-56615009D01*
X89519238Y-56615009D01*
X90138285Y-57043580D02*
X90138285Y-56043580D01*
X90709714Y-57043580D01*
X90709714Y-56043580D01*
X91185904Y-57043580D02*
X91185904Y-56043580D01*
X91424000Y-56043580D01*
X91566857Y-56091200D01*
X91662095Y-56186438D01*
X91709714Y-56281676D01*
X91757333Y-56472152D01*
X91757333Y-56615009D01*
X91709714Y-56805485D01*
X91662095Y-56900723D01*
X91566857Y-56995961D01*
X91424000Y-57043580D01*
X91185904Y-57043580D01*
X107958457Y-55183942D02*
X107958457Y-55826800D01*
X107915600Y-55955371D01*
X107829885Y-56041085D01*
X107701314Y-56083942D01*
X107615600Y-56083942D01*
X108815600Y-56083942D02*
X108387028Y-56083942D01*
X108387028Y-55183942D01*
X109629885Y-55998228D02*
X109587028Y-56041085D01*
X109458457Y-56083942D01*
X109372742Y-56083942D01*
X109244171Y-56041085D01*
X109158457Y-55955371D01*
X109115600Y-55869657D01*
X109072742Y-55698228D01*
X109072742Y-55569657D01*
X109115600Y-55398228D01*
X109158457Y-55312514D01*
X109244171Y-55226800D01*
X109372742Y-55183942D01*
X109458457Y-55183942D01*
X109587028Y-55226800D01*
X109629885Y-55269657D01*
X110272742Y-55183942D02*
X110272742Y-55826800D01*
X110229885Y-55955371D01*
X110144171Y-56041085D01*
X110015600Y-56083942D01*
X109929885Y-56083942D01*
X111129885Y-56083942D02*
X110701314Y-56083942D01*
X110701314Y-55183942D01*
X111944171Y-55998228D02*
X111901314Y-56041085D01*
X111772742Y-56083942D01*
X111687028Y-56083942D01*
X111558457Y-56041085D01*
X111472742Y-55955371D01*
X111429885Y-55869657D01*
X111387028Y-55698228D01*
X111387028Y-55569657D01*
X111429885Y-55398228D01*
X111472742Y-55312514D01*
X111558457Y-55226800D01*
X111687028Y-55183942D01*
X111772742Y-55183942D01*
X111901314Y-55226800D01*
X111944171Y-55269657D01*
X112587028Y-55183942D02*
X112587028Y-55826800D01*
X112544171Y-55955371D01*
X112458457Y-56041085D01*
X112329885Y-56083942D01*
X112244171Y-56083942D01*
X113444171Y-56083942D02*
X113015600Y-56083942D01*
X113015600Y-55183942D01*
X114258457Y-55998228D02*
X114215600Y-56041085D01*
X114087028Y-56083942D01*
X114001314Y-56083942D01*
X113872742Y-56041085D01*
X113787028Y-55955371D01*
X113744171Y-55869657D01*
X113701314Y-55698228D01*
X113701314Y-55569657D01*
X113744171Y-55398228D01*
X113787028Y-55312514D01*
X113872742Y-55226800D01*
X114001314Y-55183942D01*
X114087028Y-55183942D01*
X114215600Y-55226800D01*
X114258457Y-55269657D01*
X114901314Y-55183942D02*
X114901314Y-55826800D01*
X114858457Y-55955371D01*
X114772742Y-56041085D01*
X114644171Y-56083942D01*
X114558457Y-56083942D01*
X115758457Y-56083942D02*
X115329885Y-56083942D01*
X115329885Y-55183942D01*
X116572742Y-55998228D02*
X116529885Y-56041085D01*
X116401314Y-56083942D01*
X116315600Y-56083942D01*
X116187028Y-56041085D01*
X116101314Y-55955371D01*
X116058457Y-55869657D01*
X116015600Y-55698228D01*
X116015600Y-55569657D01*
X116058457Y-55398228D01*
X116101314Y-55312514D01*
X116187028Y-55226800D01*
X116315600Y-55183942D01*
X116401314Y-55183942D01*
X116529885Y-55226800D01*
X116572742Y-55269657D01*
X143332247Y-57627828D02*
X144094152Y-57627828D01*
X143713200Y-58008780D02*
X143713200Y-57246876D01*
X114274647Y-57627828D02*
X115036552Y-57627828D01*
X114655600Y-58008780D02*
X114655600Y-57246876D01*
%TO.C,C3*%
X128281133Y-80468742D02*
X128233514Y-80516361D01*
X128090657Y-80563980D01*
X127995419Y-80563980D01*
X127852561Y-80516361D01*
X127757323Y-80421123D01*
X127709704Y-80325885D01*
X127662085Y-80135409D01*
X127662085Y-79992552D01*
X127709704Y-79802076D01*
X127757323Y-79706838D01*
X127852561Y-79611600D01*
X127995419Y-79563980D01*
X128090657Y-79563980D01*
X128233514Y-79611600D01*
X128281133Y-79659219D01*
X128614466Y-79563980D02*
X129233514Y-79563980D01*
X128900180Y-79944933D01*
X129043038Y-79944933D01*
X129138276Y-79992552D01*
X129185895Y-80040171D01*
X129233514Y-80135409D01*
X129233514Y-80373504D01*
X129185895Y-80468742D01*
X129138276Y-80516361D01*
X129043038Y-80563980D01*
X128757323Y-80563980D01*
X128662085Y-80516361D01*
X128614466Y-80468742D01*
X131775200Y-76058780D02*
X131775200Y-76296876D01*
X131537104Y-76201638D02*
X131775200Y-76296876D01*
X132013295Y-76201638D01*
X131632342Y-76487352D02*
X131775200Y-76296876D01*
X131918057Y-76487352D01*
%TO.C,R6*%
X152014733Y-80590380D02*
X151681400Y-80114190D01*
X151443304Y-80590380D02*
X151443304Y-79590380D01*
X151824257Y-79590380D01*
X151919495Y-79638000D01*
X151967114Y-79685619D01*
X152014733Y-79780857D01*
X152014733Y-79923714D01*
X151967114Y-80018952D01*
X151919495Y-80066571D01*
X151824257Y-80114190D01*
X151443304Y-80114190D01*
X152871876Y-79590380D02*
X152681400Y-79590380D01*
X152586161Y-79638000D01*
X152538542Y-79685619D01*
X152443304Y-79828476D01*
X152395685Y-80018952D01*
X152395685Y-80399904D01*
X152443304Y-80495142D01*
X152490923Y-80542761D01*
X152586161Y-80590380D01*
X152776638Y-80590380D01*
X152871876Y-80542761D01*
X152919495Y-80495142D01*
X152967114Y-80399904D01*
X152967114Y-80161809D01*
X152919495Y-80066571D01*
X152871876Y-80018952D01*
X152776638Y-79971333D01*
X152586161Y-79971333D01*
X152490923Y-80018952D01*
X152443304Y-80066571D01*
X152395685Y-80161809D01*
%TO.C,J5*%
X144949266Y-96829180D02*
X144949266Y-97543466D01*
X144901647Y-97686323D01*
X144806409Y-97781561D01*
X144663552Y-97829180D01*
X144568314Y-97829180D01*
X145901647Y-96829180D02*
X145425457Y-96829180D01*
X145377838Y-97305371D01*
X145425457Y-97257752D01*
X145520695Y-97210133D01*
X145758790Y-97210133D01*
X145854028Y-97257752D01*
X145901647Y-97305371D01*
X145949266Y-97400609D01*
X145949266Y-97638704D01*
X145901647Y-97733942D01*
X145854028Y-97781561D01*
X145758790Y-97829180D01*
X145520695Y-97829180D01*
X145425457Y-97781561D01*
X145377838Y-97733942D01*
%TO.C,Q3*%
X129571761Y-49569619D02*
X129476523Y-49522000D01*
X129381285Y-49426761D01*
X129238428Y-49283904D01*
X129143190Y-49236285D01*
X129047952Y-49236285D01*
X129095571Y-49474380D02*
X129000333Y-49426761D01*
X128905095Y-49331523D01*
X128857476Y-49141047D01*
X128857476Y-48807714D01*
X128905095Y-48617238D01*
X129000333Y-48522000D01*
X129095571Y-48474380D01*
X129286047Y-48474380D01*
X129381285Y-48522000D01*
X129476523Y-48617238D01*
X129524142Y-48807714D01*
X129524142Y-49141047D01*
X129476523Y-49331523D01*
X129381285Y-49426761D01*
X129286047Y-49474380D01*
X129095571Y-49474380D01*
X129857476Y-48474380D02*
X130476523Y-48474380D01*
X130143190Y-48855333D01*
X130286047Y-48855333D01*
X130381285Y-48902952D01*
X130428904Y-48950571D01*
X130476523Y-49045809D01*
X130476523Y-49283904D01*
X130428904Y-49379142D01*
X130381285Y-49426761D01*
X130286047Y-49474380D01*
X130000333Y-49474380D01*
X129905095Y-49426761D01*
X129857476Y-49379142D01*
%TO.C,R15*%
X122166142Y-129484380D02*
X121832809Y-129008190D01*
X121594714Y-129484380D02*
X121594714Y-128484380D01*
X121975666Y-128484380D01*
X122070904Y-128532000D01*
X122118523Y-128579619D01*
X122166142Y-128674857D01*
X122166142Y-128817714D01*
X122118523Y-128912952D01*
X122070904Y-128960571D01*
X121975666Y-129008190D01*
X121594714Y-129008190D01*
X123118523Y-129484380D02*
X122547095Y-129484380D01*
X122832809Y-129484380D02*
X122832809Y-128484380D01*
X122737571Y-128627238D01*
X122642333Y-128722476D01*
X122547095Y-128770095D01*
X124023285Y-128484380D02*
X123547095Y-128484380D01*
X123499476Y-128960571D01*
X123547095Y-128912952D01*
X123642333Y-128865333D01*
X123880428Y-128865333D01*
X123975666Y-128912952D01*
X124023285Y-128960571D01*
X124070904Y-129055809D01*
X124070904Y-129293904D01*
X124023285Y-129389142D01*
X123975666Y-129436761D01*
X123880428Y-129484380D01*
X123642333Y-129484380D01*
X123547095Y-129436761D01*
X123499476Y-129389142D01*
%TO.C,J2*%
X174301666Y-96819180D02*
X174301666Y-97533466D01*
X174254047Y-97676323D01*
X174158809Y-97771561D01*
X174015952Y-97819180D01*
X173920714Y-97819180D01*
X174730238Y-96914419D02*
X174777857Y-96866800D01*
X174873095Y-96819180D01*
X175111190Y-96819180D01*
X175206428Y-96866800D01*
X175254047Y-96914419D01*
X175301666Y-97009657D01*
X175301666Y-97104895D01*
X175254047Y-97247752D01*
X174682619Y-97819180D01*
X175301666Y-97819180D01*
%TO.C,J9*%
X140890666Y-56907180D02*
X140890666Y-57621466D01*
X140843047Y-57764323D01*
X140747809Y-57859561D01*
X140604952Y-57907180D01*
X140509714Y-57907180D01*
X141414476Y-57907180D02*
X141604952Y-57907180D01*
X141700190Y-57859561D01*
X141747809Y-57811942D01*
X141843047Y-57669085D01*
X141890666Y-57478609D01*
X141890666Y-57097657D01*
X141843047Y-57002419D01*
X141795428Y-56954800D01*
X141700190Y-56907180D01*
X141509714Y-56907180D01*
X141414476Y-56954800D01*
X141366857Y-57002419D01*
X141319238Y-57097657D01*
X141319238Y-57335752D01*
X141366857Y-57430990D01*
X141414476Y-57478609D01*
X141509714Y-57526228D01*
X141700190Y-57526228D01*
X141795428Y-57478609D01*
X141843047Y-57430990D01*
X141890666Y-57335752D01*
%TO.C,A1*%
X103288714Y-102894266D02*
X103764904Y-102894266D01*
X103193476Y-103179980D02*
X103526809Y-102179980D01*
X103860142Y-103179980D01*
X104717285Y-103179980D02*
X104145857Y-103179980D01*
X104431571Y-103179980D02*
X104431571Y-102179980D01*
X104336333Y-102322838D01*
X104241095Y-102418076D01*
X104145857Y-102465695D01*
%TO.C,C2*%
X157186333Y-80367142D02*
X157138714Y-80414761D01*
X156995857Y-80462380D01*
X156900619Y-80462380D01*
X156757761Y-80414761D01*
X156662523Y-80319523D01*
X156614904Y-80224285D01*
X156567285Y-80033809D01*
X156567285Y-79890952D01*
X156614904Y-79700476D01*
X156662523Y-79605238D01*
X156757761Y-79510000D01*
X156900619Y-79462380D01*
X156995857Y-79462380D01*
X157138714Y-79510000D01*
X157186333Y-79557619D01*
X157567285Y-79557619D02*
X157614904Y-79510000D01*
X157710142Y-79462380D01*
X157948238Y-79462380D01*
X158043476Y-79510000D01*
X158091095Y-79557619D01*
X158138714Y-79652857D01*
X158138714Y-79748095D01*
X158091095Y-79890952D01*
X157519666Y-80462380D01*
X158138714Y-80462380D01*
X160680400Y-76084180D02*
X160680400Y-76322276D01*
X160442304Y-76227038D02*
X160680400Y-76322276D01*
X160918495Y-76227038D01*
X160537542Y-76512752D02*
X160680400Y-76322276D01*
X160823257Y-76512752D01*
%TO.C,R5*%
X93584733Y-80651180D02*
X93251400Y-80174990D01*
X93013304Y-80651180D02*
X93013304Y-79651180D01*
X93394257Y-79651180D01*
X93489495Y-79698800D01*
X93537114Y-79746419D01*
X93584733Y-79841657D01*
X93584733Y-79984514D01*
X93537114Y-80079752D01*
X93489495Y-80127371D01*
X93394257Y-80174990D01*
X93013304Y-80174990D01*
X94489495Y-79651180D02*
X94013304Y-79651180D01*
X93965685Y-80127371D01*
X94013304Y-80079752D01*
X94108542Y-80032133D01*
X94346638Y-80032133D01*
X94441876Y-80079752D01*
X94489495Y-80127371D01*
X94537114Y-80222609D01*
X94537114Y-80460704D01*
X94489495Y-80555942D01*
X94441876Y-80603561D01*
X94346638Y-80651180D01*
X94108542Y-80651180D01*
X94013304Y-80603561D01*
X93965685Y-80555942D01*
%TO.C,J6*%
X145030866Y-129991580D02*
X145030866Y-130705866D01*
X144983247Y-130848723D01*
X144888009Y-130943961D01*
X144745152Y-130991580D01*
X144649914Y-130991580D01*
X145935628Y-129991580D02*
X145745152Y-129991580D01*
X145649914Y-130039200D01*
X145602295Y-130086819D01*
X145507057Y-130229676D01*
X145459438Y-130420152D01*
X145459438Y-130801104D01*
X145507057Y-130896342D01*
X145554676Y-130943961D01*
X145649914Y-130991580D01*
X145840390Y-130991580D01*
X145935628Y-130943961D01*
X145983247Y-130896342D01*
X146030866Y-130801104D01*
X146030866Y-130563009D01*
X145983247Y-130467771D01*
X145935628Y-130420152D01*
X145840390Y-130372533D01*
X145649914Y-130372533D01*
X145554676Y-130420152D01*
X145507057Y-130467771D01*
X145459438Y-130563009D01*
%TO.C,A3*%
X103278714Y-136015866D02*
X103754904Y-136015866D01*
X103183476Y-136301580D02*
X103516809Y-135301580D01*
X103850142Y-136301580D01*
X104088238Y-135301580D02*
X104707285Y-135301580D01*
X104373952Y-135682533D01*
X104516809Y-135682533D01*
X104612047Y-135730152D01*
X104659666Y-135777771D01*
X104707285Y-135873009D01*
X104707285Y-136111104D01*
X104659666Y-136206342D01*
X104612047Y-136253961D01*
X104516809Y-136301580D01*
X104231095Y-136301580D01*
X104135857Y-136253961D01*
X104088238Y-136206342D01*
%TO.C,R2*%
X152004733Y-102357180D02*
X151671400Y-101880990D01*
X151433304Y-102357180D02*
X151433304Y-101357180D01*
X151814257Y-101357180D01*
X151909495Y-101404800D01*
X151957114Y-101452419D01*
X152004733Y-101547657D01*
X152004733Y-101690514D01*
X151957114Y-101785752D01*
X151909495Y-101833371D01*
X151814257Y-101880990D01*
X151433304Y-101880990D01*
X152385685Y-101452419D02*
X152433304Y-101404800D01*
X152528542Y-101357180D01*
X152766638Y-101357180D01*
X152861876Y-101404800D01*
X152909495Y-101452419D01*
X152957114Y-101547657D01*
X152957114Y-101642895D01*
X152909495Y-101785752D01*
X152338066Y-102357180D01*
X152957114Y-102357180D01*
%TO.C,J4*%
X174348816Y-129940780D02*
X174348816Y-130655066D01*
X174301197Y-130797923D01*
X174205959Y-130893161D01*
X174063102Y-130940780D01*
X173967864Y-130940780D01*
X175253578Y-130274114D02*
X175253578Y-130940780D01*
X175015483Y-129893161D02*
X174777388Y-130607447D01*
X175396435Y-130607447D01*
%TO.C,D3*%
X140638304Y-63201180D02*
X140638304Y-62201180D01*
X140876400Y-62201180D01*
X141019257Y-62248800D01*
X141114495Y-62344038D01*
X141162114Y-62439276D01*
X141209733Y-62629752D01*
X141209733Y-62772609D01*
X141162114Y-62963085D01*
X141114495Y-63058323D01*
X141019257Y-63153561D01*
X140876400Y-63201180D01*
X140638304Y-63201180D01*
X141543066Y-62201180D02*
X142162114Y-62201180D01*
X141828780Y-62582133D01*
X141971638Y-62582133D01*
X142066876Y-62629752D01*
X142114495Y-62677371D01*
X142162114Y-62772609D01*
X142162114Y-63010704D01*
X142114495Y-63105942D01*
X142066876Y-63153561D01*
X141971638Y-63201180D01*
X141685923Y-63201180D01*
X141590685Y-63153561D01*
X141543066Y-63105942D01*
%TO.C,Q2*%
X100514161Y-49366419D02*
X100418923Y-49318800D01*
X100323685Y-49223561D01*
X100180828Y-49080704D01*
X100085590Y-49033085D01*
X99990352Y-49033085D01*
X100037971Y-49271180D02*
X99942733Y-49223561D01*
X99847495Y-49128323D01*
X99799876Y-48937847D01*
X99799876Y-48604514D01*
X99847495Y-48414038D01*
X99942733Y-48318800D01*
X100037971Y-48271180D01*
X100228447Y-48271180D01*
X100323685Y-48318800D01*
X100418923Y-48414038D01*
X100466542Y-48604514D01*
X100466542Y-48937847D01*
X100418923Y-49128323D01*
X100323685Y-49223561D01*
X100228447Y-49271180D01*
X100037971Y-49271180D01*
X100847495Y-48366419D02*
X100895114Y-48318800D01*
X100990352Y-48271180D01*
X101228447Y-48271180D01*
X101323685Y-48318800D01*
X101371304Y-48366419D01*
X101418923Y-48461657D01*
X101418923Y-48556895D01*
X101371304Y-48699752D01*
X100799876Y-49271180D01*
X101418923Y-49271180D01*
%TO.C,C8*%
X111557933Y-65645142D02*
X111510314Y-65692761D01*
X111367457Y-65740380D01*
X111272219Y-65740380D01*
X111129361Y-65692761D01*
X111034123Y-65597523D01*
X110986504Y-65502285D01*
X110938885Y-65311809D01*
X110938885Y-65168952D01*
X110986504Y-64978476D01*
X111034123Y-64883238D01*
X111129361Y-64788000D01*
X111272219Y-64740380D01*
X111367457Y-64740380D01*
X111510314Y-64788000D01*
X111557933Y-64835619D01*
X112129361Y-65168952D02*
X112034123Y-65121333D01*
X111986504Y-65073714D01*
X111938885Y-64978476D01*
X111938885Y-64930857D01*
X111986504Y-64835619D01*
X112034123Y-64788000D01*
X112129361Y-64740380D01*
X112319838Y-64740380D01*
X112415076Y-64788000D01*
X112462695Y-64835619D01*
X112510314Y-64930857D01*
X112510314Y-64978476D01*
X112462695Y-65073714D01*
X112415076Y-65121333D01*
X112319838Y-65168952D01*
X112129361Y-65168952D01*
X112034123Y-65216571D01*
X111986504Y-65264190D01*
X111938885Y-65359428D01*
X111938885Y-65549904D01*
X111986504Y-65645142D01*
X112034123Y-65692761D01*
X112129361Y-65740380D01*
X112319838Y-65740380D01*
X112415076Y-65692761D01*
X112462695Y-65645142D01*
X112510314Y-65549904D01*
X112510314Y-65359428D01*
X112462695Y-65264190D01*
X112415076Y-65216571D01*
X112319838Y-65168952D01*
%TO.C,C1*%
X99121933Y-80519542D02*
X99074314Y-80567161D01*
X98931457Y-80614780D01*
X98836219Y-80614780D01*
X98693361Y-80567161D01*
X98598123Y-80471923D01*
X98550504Y-80376685D01*
X98502885Y-80186209D01*
X98502885Y-80043352D01*
X98550504Y-79852876D01*
X98598123Y-79757638D01*
X98693361Y-79662400D01*
X98836219Y-79614780D01*
X98931457Y-79614780D01*
X99074314Y-79662400D01*
X99121933Y-79710019D01*
X100074314Y-80614780D02*
X99502885Y-80614780D01*
X99788600Y-80614780D02*
X99788600Y-79614780D01*
X99693361Y-79757638D01*
X99598123Y-79852876D01*
X99502885Y-79900495D01*
X102616000Y-76211180D02*
X102616000Y-76449276D01*
X102377904Y-76354038D02*
X102616000Y-76449276D01*
X102854095Y-76354038D01*
X102473142Y-76639752D02*
X102616000Y-76449276D01*
X102758857Y-76639752D01*
%TO.C,J8*%
X111858466Y-56955380D02*
X111858466Y-57669666D01*
X111810847Y-57812523D01*
X111715609Y-57907761D01*
X111572752Y-57955380D01*
X111477514Y-57955380D01*
X112477514Y-57383952D02*
X112382276Y-57336333D01*
X112334657Y-57288714D01*
X112287038Y-57193476D01*
X112287038Y-57145857D01*
X112334657Y-57050619D01*
X112382276Y-57003000D01*
X112477514Y-56955380D01*
X112667990Y-56955380D01*
X112763228Y-57003000D01*
X112810847Y-57050619D01*
X112858466Y-57145857D01*
X112858466Y-57193476D01*
X112810847Y-57288714D01*
X112763228Y-57336333D01*
X112667990Y-57383952D01*
X112477514Y-57383952D01*
X112382276Y-57431571D01*
X112334657Y-57479190D01*
X112287038Y-57574428D01*
X112287038Y-57764904D01*
X112334657Y-57860142D01*
X112382276Y-57907761D01*
X112477514Y-57955380D01*
X112667990Y-57955380D01*
X112763228Y-57907761D01*
X112810847Y-57860142D01*
X112858466Y-57764904D01*
X112858466Y-57574428D01*
X112810847Y-57479190D01*
X112763228Y-57431571D01*
X112667990Y-57383952D01*
%TO.C,R12*%
X151528542Y-113660180D02*
X151195209Y-113183990D01*
X150957114Y-113660180D02*
X150957114Y-112660180D01*
X151338066Y-112660180D01*
X151433304Y-112707800D01*
X151480923Y-112755419D01*
X151528542Y-112850657D01*
X151528542Y-112993514D01*
X151480923Y-113088752D01*
X151433304Y-113136371D01*
X151338066Y-113183990D01*
X150957114Y-113183990D01*
X152480923Y-113660180D02*
X151909495Y-113660180D01*
X152195209Y-113660180D02*
X152195209Y-112660180D01*
X152099971Y-112803038D01*
X152004733Y-112898276D01*
X151909495Y-112945895D01*
X152861876Y-112755419D02*
X152909495Y-112707800D01*
X153004733Y-112660180D01*
X153242828Y-112660180D01*
X153338066Y-112707800D01*
X153385685Y-112755419D01*
X153433304Y-112850657D01*
X153433304Y-112945895D01*
X153385685Y-113088752D01*
X152814257Y-113660180D01*
X153433304Y-113660180D01*
%TO.C,R8*%
X152004733Y-135427980D02*
X151671400Y-134951790D01*
X151433304Y-135427980D02*
X151433304Y-134427980D01*
X151814257Y-134427980D01*
X151909495Y-134475600D01*
X151957114Y-134523219D01*
X152004733Y-134618457D01*
X152004733Y-134761314D01*
X151957114Y-134856552D01*
X151909495Y-134904171D01*
X151814257Y-134951790D01*
X151433304Y-134951790D01*
X152576161Y-134856552D02*
X152480923Y-134808933D01*
X152433304Y-134761314D01*
X152385685Y-134666076D01*
X152385685Y-134618457D01*
X152433304Y-134523219D01*
X152480923Y-134475600D01*
X152576161Y-134427980D01*
X152766638Y-134427980D01*
X152861876Y-134475600D01*
X152909495Y-134523219D01*
X152957114Y-134618457D01*
X152957114Y-134666076D01*
X152909495Y-134761314D01*
X152861876Y-134808933D01*
X152766638Y-134856552D01*
X152576161Y-134856552D01*
X152480923Y-134904171D01*
X152433304Y-134951790D01*
X152385685Y-135047028D01*
X152385685Y-135237504D01*
X152433304Y-135332742D01*
X152480923Y-135380361D01*
X152576161Y-135427980D01*
X152766638Y-135427980D01*
X152861876Y-135380361D01*
X152909495Y-135332742D01*
X152957114Y-135237504D01*
X152957114Y-135047028D01*
X152909495Y-134951790D01*
X152861876Y-134904171D01*
X152766638Y-134856552D01*
%TO.C,J7*%
X169742916Y-56937980D02*
X169742916Y-57652266D01*
X169695297Y-57795123D01*
X169600059Y-57890361D01*
X169457202Y-57937980D01*
X169361964Y-57937980D01*
X170123869Y-56937980D02*
X170790535Y-56937980D01*
X170361964Y-57937980D01*
%TO.C,R3*%
X93483133Y-96413580D02*
X93149800Y-95937390D01*
X92911704Y-96413580D02*
X92911704Y-95413580D01*
X93292657Y-95413580D01*
X93387895Y-95461200D01*
X93435514Y-95508819D01*
X93483133Y-95604057D01*
X93483133Y-95746914D01*
X93435514Y-95842152D01*
X93387895Y-95889771D01*
X93292657Y-95937390D01*
X92911704Y-95937390D01*
X93816466Y-95413580D02*
X94435514Y-95413580D01*
X94102180Y-95794533D01*
X94245038Y-95794533D01*
X94340276Y-95842152D01*
X94387895Y-95889771D01*
X94435514Y-95985009D01*
X94435514Y-96223104D01*
X94387895Y-96318342D01*
X94340276Y-96365961D01*
X94245038Y-96413580D01*
X93959323Y-96413580D01*
X93864085Y-96365961D01*
X93816466Y-96318342D01*
%TO.C,A6*%
X132346314Y-136005866D02*
X132822504Y-136005866D01*
X132251076Y-136291580D02*
X132584409Y-135291580D01*
X132917742Y-136291580D01*
X133679647Y-135291580D02*
X133489171Y-135291580D01*
X133393933Y-135339200D01*
X133346314Y-135386819D01*
X133251076Y-135529676D01*
X133203457Y-135720152D01*
X133203457Y-136101104D01*
X133251076Y-136196342D01*
X133298695Y-136243961D01*
X133393933Y-136291580D01*
X133584409Y-136291580D01*
X133679647Y-136243961D01*
X133727266Y-136196342D01*
X133774885Y-136101104D01*
X133774885Y-135863009D01*
X133727266Y-135767771D01*
X133679647Y-135720152D01*
X133584409Y-135672533D01*
X133393933Y-135672533D01*
X133298695Y-135720152D01*
X133251076Y-135767771D01*
X133203457Y-135863009D01*
%TO.C,R13*%
X122166142Y-135427980D02*
X121832809Y-134951790D01*
X121594714Y-135427980D02*
X121594714Y-134427980D01*
X121975666Y-134427980D01*
X122070904Y-134475600D01*
X122118523Y-134523219D01*
X122166142Y-134618457D01*
X122166142Y-134761314D01*
X122118523Y-134856552D01*
X122070904Y-134904171D01*
X121975666Y-134951790D01*
X121594714Y-134951790D01*
X123118523Y-135427980D02*
X122547095Y-135427980D01*
X122832809Y-135427980D02*
X122832809Y-134427980D01*
X122737571Y-134570838D01*
X122642333Y-134666076D01*
X122547095Y-134713695D01*
X123451857Y-134427980D02*
X124070904Y-134427980D01*
X123737571Y-134808933D01*
X123880428Y-134808933D01*
X123975666Y-134856552D01*
X124023285Y-134904171D01*
X124070904Y-134999409D01*
X124070904Y-135237504D01*
X124023285Y-135332742D01*
X123975666Y-135380361D01*
X123880428Y-135427980D01*
X123594714Y-135427980D01*
X123499476Y-135380361D01*
X123451857Y-135332742D01*
%TO.C,R4*%
X152004733Y-96362780D02*
X151671400Y-95886590D01*
X151433304Y-96362780D02*
X151433304Y-95362780D01*
X151814257Y-95362780D01*
X151909495Y-95410400D01*
X151957114Y-95458019D01*
X152004733Y-95553257D01*
X152004733Y-95696114D01*
X151957114Y-95791352D01*
X151909495Y-95838971D01*
X151814257Y-95886590D01*
X151433304Y-95886590D01*
X152861876Y-95696114D02*
X152861876Y-96362780D01*
X152623780Y-95315161D02*
X152385685Y-96029447D01*
X153004733Y-96029447D01*
%TO.C,R21*%
X125620542Y-68829180D02*
X125287209Y-68352990D01*
X125049114Y-68829180D02*
X125049114Y-67829180D01*
X125430066Y-67829180D01*
X125525304Y-67876800D01*
X125572923Y-67924419D01*
X125620542Y-68019657D01*
X125620542Y-68162514D01*
X125572923Y-68257752D01*
X125525304Y-68305371D01*
X125430066Y-68352990D01*
X125049114Y-68352990D01*
X126001495Y-67924419D02*
X126049114Y-67876800D01*
X126144352Y-67829180D01*
X126382447Y-67829180D01*
X126477685Y-67876800D01*
X126525304Y-67924419D01*
X126572923Y-68019657D01*
X126572923Y-68114895D01*
X126525304Y-68257752D01*
X125953876Y-68829180D01*
X126572923Y-68829180D01*
X127525304Y-68829180D02*
X126953876Y-68829180D01*
X127239590Y-68829180D02*
X127239590Y-67829180D01*
X127144352Y-67972038D01*
X127049114Y-68067276D01*
X126953876Y-68114895D01*
%TO.C,R20*%
X96664542Y-68778380D02*
X96331209Y-68302190D01*
X96093114Y-68778380D02*
X96093114Y-67778380D01*
X96474066Y-67778380D01*
X96569304Y-67826000D01*
X96616923Y-67873619D01*
X96664542Y-67968857D01*
X96664542Y-68111714D01*
X96616923Y-68206952D01*
X96569304Y-68254571D01*
X96474066Y-68302190D01*
X96093114Y-68302190D01*
X97045495Y-67873619D02*
X97093114Y-67826000D01*
X97188352Y-67778380D01*
X97426447Y-67778380D01*
X97521685Y-67826000D01*
X97569304Y-67873619D01*
X97616923Y-67968857D01*
X97616923Y-68064095D01*
X97569304Y-68206952D01*
X96997876Y-68778380D01*
X97616923Y-68778380D01*
X98235971Y-67778380D02*
X98331209Y-67778380D01*
X98426447Y-67826000D01*
X98474066Y-67873619D01*
X98521685Y-67968857D01*
X98569304Y-68159333D01*
X98569304Y-68397428D01*
X98521685Y-68587904D01*
X98474066Y-68683142D01*
X98426447Y-68730761D01*
X98331209Y-68778380D01*
X98235971Y-68778380D01*
X98140733Y-68730761D01*
X98093114Y-68683142D01*
X98045495Y-68587904D01*
X97997876Y-68397428D01*
X97997876Y-68159333D01*
X98045495Y-67968857D01*
X98093114Y-67873619D01*
X98140733Y-67826000D01*
X98235971Y-67778380D01*
%TO.C,A2*%
X161677914Y-102782666D02*
X162154104Y-102782666D01*
X161582676Y-103068380D02*
X161916009Y-102068380D01*
X162249342Y-103068380D01*
X162535057Y-102163619D02*
X162582676Y-102116000D01*
X162677914Y-102068380D01*
X162916009Y-102068380D01*
X163011247Y-102116000D01*
X163058866Y-102163619D01*
X163106485Y-102258857D01*
X163106485Y-102354095D01*
X163058866Y-102496952D01*
X162487438Y-103068380D01*
X163106485Y-103068380D01*
%TO.C,R18*%
X122166142Y-113762780D02*
X121832809Y-113286590D01*
X121594714Y-113762780D02*
X121594714Y-112762780D01*
X121975666Y-112762780D01*
X122070904Y-112810400D01*
X122118523Y-112858019D01*
X122166142Y-112953257D01*
X122166142Y-113096114D01*
X122118523Y-113191352D01*
X122070904Y-113238971D01*
X121975666Y-113286590D01*
X121594714Y-113286590D01*
X123118523Y-113762780D02*
X122547095Y-113762780D01*
X122832809Y-113762780D02*
X122832809Y-112762780D01*
X122737571Y-112905638D01*
X122642333Y-113000876D01*
X122547095Y-113048495D01*
X123689952Y-113191352D02*
X123594714Y-113143733D01*
X123547095Y-113096114D01*
X123499476Y-113000876D01*
X123499476Y-112953257D01*
X123547095Y-112858019D01*
X123594714Y-112810400D01*
X123689952Y-112762780D01*
X123880428Y-112762780D01*
X123975666Y-112810400D01*
X124023285Y-112858019D01*
X124070904Y-112953257D01*
X124070904Y-113000876D01*
X124023285Y-113096114D01*
X123975666Y-113143733D01*
X123880428Y-113191352D01*
X123689952Y-113191352D01*
X123594714Y-113238971D01*
X123547095Y-113286590D01*
X123499476Y-113381828D01*
X123499476Y-113572304D01*
X123547095Y-113667542D01*
X123594714Y-113715161D01*
X123689952Y-113762780D01*
X123880428Y-113762780D01*
X123975666Y-113715161D01*
X124023285Y-113667542D01*
X124070904Y-113572304D01*
X124070904Y-113381828D01*
X124023285Y-113286590D01*
X123975666Y-113238971D01*
X123880428Y-113191352D01*
%TO.C,R9*%
X93584733Y-129585980D02*
X93251400Y-129109790D01*
X93013304Y-129585980D02*
X93013304Y-128585980D01*
X93394257Y-128585980D01*
X93489495Y-128633600D01*
X93537114Y-128681219D01*
X93584733Y-128776457D01*
X93584733Y-128919314D01*
X93537114Y-129014552D01*
X93489495Y-129062171D01*
X93394257Y-129109790D01*
X93013304Y-129109790D01*
X94060923Y-129585980D02*
X94251400Y-129585980D01*
X94346638Y-129538361D01*
X94394257Y-129490742D01*
X94489495Y-129347885D01*
X94537114Y-129157409D01*
X94537114Y-128776457D01*
X94489495Y-128681219D01*
X94441876Y-128633600D01*
X94346638Y-128585980D01*
X94156161Y-128585980D01*
X94060923Y-128633600D01*
X94013304Y-128681219D01*
X93965685Y-128776457D01*
X93965685Y-129014552D01*
X94013304Y-129109790D01*
X94060923Y-129157409D01*
X94156161Y-129205028D01*
X94346638Y-129205028D01*
X94441876Y-129157409D01*
X94489495Y-129109790D01*
X94537114Y-129014552D01*
%TO.C,J1*%
X115922466Y-96879980D02*
X115922466Y-97594266D01*
X115874847Y-97737123D01*
X115779609Y-97832361D01*
X115636752Y-97879980D01*
X115541514Y-97879980D01*
X116922466Y-97879980D02*
X116351038Y-97879980D01*
X116636752Y-97879980D02*
X116636752Y-96879980D01*
X116541514Y-97022838D01*
X116446276Y-97118076D01*
X116351038Y-97165695D01*
%TO.C,J3*%
X115963266Y-130001580D02*
X115963266Y-130715866D01*
X115915647Y-130858723D01*
X115820409Y-130953961D01*
X115677552Y-131001580D01*
X115582314Y-131001580D01*
X116344219Y-130001580D02*
X116963266Y-130001580D01*
X116629933Y-130382533D01*
X116772790Y-130382533D01*
X116868028Y-130430152D01*
X116915647Y-130477771D01*
X116963266Y-130573009D01*
X116963266Y-130811104D01*
X116915647Y-130906342D01*
X116868028Y-130953961D01*
X116772790Y-131001580D01*
X116487076Y-131001580D01*
X116391838Y-130953961D01*
X116344219Y-130906342D01*
%TO.C,C4*%
X162266333Y-113564942D02*
X162218714Y-113612561D01*
X162075857Y-113660180D01*
X161980619Y-113660180D01*
X161837761Y-113612561D01*
X161742523Y-113517323D01*
X161694904Y-113422085D01*
X161647285Y-113231609D01*
X161647285Y-113088752D01*
X161694904Y-112898276D01*
X161742523Y-112803038D01*
X161837761Y-112707800D01*
X161980619Y-112660180D01*
X162075857Y-112660180D01*
X162218714Y-112707800D01*
X162266333Y-112755419D01*
X163123476Y-112993514D02*
X163123476Y-113660180D01*
X162885380Y-112612561D02*
X162647285Y-113326847D01*
X163266333Y-113326847D01*
X165735000Y-109281980D02*
X165735000Y-109520076D01*
X165496904Y-109424838D02*
X165735000Y-109520076D01*
X165973095Y-109424838D01*
X165592142Y-109710552D02*
X165735000Y-109520076D01*
X165877857Y-109710552D01*
%TO.C,D1*%
X169546904Y-63150380D02*
X169546904Y-62150380D01*
X169785000Y-62150380D01*
X169927857Y-62198000D01*
X170023095Y-62293238D01*
X170070714Y-62388476D01*
X170118333Y-62578952D01*
X170118333Y-62721809D01*
X170070714Y-62912285D01*
X170023095Y-63007523D01*
X169927857Y-63102761D01*
X169785000Y-63150380D01*
X169546904Y-63150380D01*
X171070714Y-63150380D02*
X170499285Y-63150380D01*
X170785000Y-63150380D02*
X170785000Y-62150380D01*
X170689761Y-62293238D01*
X170594523Y-62388476D01*
X170499285Y-62436095D01*
%TO.C,R11*%
X93098542Y-113823580D02*
X92765209Y-113347390D01*
X92527114Y-113823580D02*
X92527114Y-112823580D01*
X92908066Y-112823580D01*
X93003304Y-112871200D01*
X93050923Y-112918819D01*
X93098542Y-113014057D01*
X93098542Y-113156914D01*
X93050923Y-113252152D01*
X93003304Y-113299771D01*
X92908066Y-113347390D01*
X92527114Y-113347390D01*
X94050923Y-113823580D02*
X93479495Y-113823580D01*
X93765209Y-113823580D02*
X93765209Y-112823580D01*
X93669971Y-112966438D01*
X93574733Y-113061676D01*
X93479495Y-113109295D01*
X95003304Y-113823580D02*
X94431876Y-113823580D01*
X94717590Y-113823580D02*
X94717590Y-112823580D01*
X94622352Y-112966438D01*
X94527114Y-113061676D01*
X94431876Y-113109295D01*
%TO.C,D2*%
X111377504Y-63150380D02*
X111377504Y-62150380D01*
X111615600Y-62150380D01*
X111758457Y-62198000D01*
X111853695Y-62293238D01*
X111901314Y-62388476D01*
X111948933Y-62578952D01*
X111948933Y-62721809D01*
X111901314Y-62912285D01*
X111853695Y-63007523D01*
X111758457Y-63102761D01*
X111615600Y-63150380D01*
X111377504Y-63150380D01*
X112329885Y-62245619D02*
X112377504Y-62198000D01*
X112472742Y-62150380D01*
X112710838Y-62150380D01*
X112806076Y-62198000D01*
X112853695Y-62245619D01*
X112901314Y-62340857D01*
X112901314Y-62436095D01*
X112853695Y-62578952D01*
X112282266Y-63150380D01*
X112901314Y-63150380D01*
%TO.C,R10*%
X151579342Y-129382780D02*
X151246009Y-128906590D01*
X151007914Y-129382780D02*
X151007914Y-128382780D01*
X151388866Y-128382780D01*
X151484104Y-128430400D01*
X151531723Y-128478019D01*
X151579342Y-128573257D01*
X151579342Y-128716114D01*
X151531723Y-128811352D01*
X151484104Y-128858971D01*
X151388866Y-128906590D01*
X151007914Y-128906590D01*
X152531723Y-129382780D02*
X151960295Y-129382780D01*
X152246009Y-129382780D02*
X152246009Y-128382780D01*
X152150771Y-128525638D01*
X152055533Y-128620876D01*
X151960295Y-128668495D01*
X153150771Y-128382780D02*
X153246009Y-128382780D01*
X153341247Y-128430400D01*
X153388866Y-128478019D01*
X153436485Y-128573257D01*
X153484104Y-128763733D01*
X153484104Y-129001828D01*
X153436485Y-129192304D01*
X153388866Y-129287542D01*
X153341247Y-129335161D01*
X153246009Y-129382780D01*
X153150771Y-129382780D01*
X153055533Y-129335161D01*
X153007914Y-129287542D01*
X152960295Y-129192304D01*
X152912676Y-129001828D01*
X152912676Y-128763733D01*
X152960295Y-128573257D01*
X153007914Y-128478019D01*
X153055533Y-128430400D01*
X153150771Y-128382780D01*
%TO.C,J10*%
X122706780Y-141149923D02*
X123421066Y-141149923D01*
X123563923Y-141197542D01*
X123659161Y-141292780D01*
X123706780Y-141435638D01*
X123706780Y-141530876D01*
X123706780Y-140149923D02*
X123706780Y-140721352D01*
X123706780Y-140435638D02*
X122706780Y-140435638D01*
X122849638Y-140530876D01*
X122944876Y-140626114D01*
X122992495Y-140721352D01*
X122706780Y-139530876D02*
X122706780Y-139435638D01*
X122754400Y-139340400D01*
X122802019Y-139292780D01*
X122897257Y-139245161D01*
X123087733Y-139197542D01*
X123325828Y-139197542D01*
X123516304Y-139245161D01*
X123611542Y-139292780D01*
X123659161Y-139340400D01*
X123706780Y-139435638D01*
X123706780Y-139530876D01*
X123659161Y-139626114D01*
X123611542Y-139673733D01*
X123516304Y-139721352D01*
X123325828Y-139768971D01*
X123087733Y-139768971D01*
X122897257Y-139721352D01*
X122802019Y-139673733D01*
X122754400Y-139626114D01*
X122706780Y-139530876D01*
%TO.C,Q1*%
X158324561Y-49468019D02*
X158229323Y-49420400D01*
X158134085Y-49325161D01*
X157991228Y-49182304D01*
X157895990Y-49134685D01*
X157800752Y-49134685D01*
X157848371Y-49372780D02*
X157753133Y-49325161D01*
X157657895Y-49229923D01*
X157610276Y-49039447D01*
X157610276Y-48706114D01*
X157657895Y-48515638D01*
X157753133Y-48420400D01*
X157848371Y-48372780D01*
X158038847Y-48372780D01*
X158134085Y-48420400D01*
X158229323Y-48515638D01*
X158276942Y-48706114D01*
X158276942Y-49039447D01*
X158229323Y-49229923D01*
X158134085Y-49325161D01*
X158038847Y-49372780D01*
X157848371Y-49372780D01*
X159229323Y-49372780D02*
X158657895Y-49372780D01*
X158943609Y-49372780D02*
X158943609Y-48372780D01*
X158848371Y-48515638D01*
X158753133Y-48610876D01*
X158657895Y-48658495D01*
%TO.C,R16*%
X122186142Y-96261180D02*
X121852809Y-95784990D01*
X121614714Y-96261180D02*
X121614714Y-95261180D01*
X121995666Y-95261180D01*
X122090904Y-95308800D01*
X122138523Y-95356419D01*
X122186142Y-95451657D01*
X122186142Y-95594514D01*
X122138523Y-95689752D01*
X122090904Y-95737371D01*
X121995666Y-95784990D01*
X121614714Y-95784990D01*
X123138523Y-96261180D02*
X122567095Y-96261180D01*
X122852809Y-96261180D02*
X122852809Y-95261180D01*
X122757571Y-95404038D01*
X122662333Y-95499276D01*
X122567095Y-95546895D01*
X123995666Y-95261180D02*
X123805190Y-95261180D01*
X123709952Y-95308800D01*
X123662333Y-95356419D01*
X123567095Y-95499276D01*
X123519476Y-95689752D01*
X123519476Y-96070704D01*
X123567095Y-96165942D01*
X123614714Y-96213561D01*
X123709952Y-96261180D01*
X123900428Y-96261180D01*
X123995666Y-96213561D01*
X124043285Y-96165942D01*
X124090904Y-96070704D01*
X124090904Y-95832609D01*
X124043285Y-95737371D01*
X123995666Y-95689752D01*
X123900428Y-95642133D01*
X123709952Y-95642133D01*
X123614714Y-95689752D01*
X123567095Y-95737371D01*
X123519476Y-95832609D01*
%TO.C,R1*%
X93584733Y-102357180D02*
X93251400Y-101880990D01*
X93013304Y-102357180D02*
X93013304Y-101357180D01*
X93394257Y-101357180D01*
X93489495Y-101404800D01*
X93537114Y-101452419D01*
X93584733Y-101547657D01*
X93584733Y-101690514D01*
X93537114Y-101785752D01*
X93489495Y-101833371D01*
X93394257Y-101880990D01*
X93013304Y-101880990D01*
X94537114Y-102357180D02*
X93965685Y-102357180D01*
X94251400Y-102357180D02*
X94251400Y-101357180D01*
X94156161Y-101500038D01*
X94060923Y-101595276D01*
X93965685Y-101642895D01*
%TO.C,R19*%
X154576542Y-68879980D02*
X154243209Y-68403790D01*
X154005114Y-68879980D02*
X154005114Y-67879980D01*
X154386066Y-67879980D01*
X154481304Y-67927600D01*
X154528923Y-67975219D01*
X154576542Y-68070457D01*
X154576542Y-68213314D01*
X154528923Y-68308552D01*
X154481304Y-68356171D01*
X154386066Y-68403790D01*
X154005114Y-68403790D01*
X155528923Y-68879980D02*
X154957495Y-68879980D01*
X155243209Y-68879980D02*
X155243209Y-67879980D01*
X155147971Y-68022838D01*
X155052733Y-68118076D01*
X154957495Y-68165695D01*
X156005114Y-68879980D02*
X156195590Y-68879980D01*
X156290828Y-68832361D01*
X156338447Y-68784742D01*
X156433685Y-68641885D01*
X156481304Y-68451409D01*
X156481304Y-68070457D01*
X156433685Y-67975219D01*
X156386066Y-67927600D01*
X156290828Y-67879980D01*
X156100352Y-67879980D01*
X156005114Y-67927600D01*
X155957495Y-67975219D01*
X155909876Y-68070457D01*
X155909876Y-68308552D01*
X155957495Y-68403790D01*
X156005114Y-68451409D01*
X156100352Y-68499028D01*
X156290828Y-68499028D01*
X156386066Y-68451409D01*
X156433685Y-68403790D01*
X156481304Y-68308552D01*
%TO.C,C7*%
X169632333Y-65685942D02*
X169584714Y-65733561D01*
X169441857Y-65781180D01*
X169346619Y-65781180D01*
X169203761Y-65733561D01*
X169108523Y-65638323D01*
X169060904Y-65543085D01*
X169013285Y-65352609D01*
X169013285Y-65209752D01*
X169060904Y-65019276D01*
X169108523Y-64924038D01*
X169203761Y-64828800D01*
X169346619Y-64781180D01*
X169441857Y-64781180D01*
X169584714Y-64828800D01*
X169632333Y-64876419D01*
X169965666Y-64781180D02*
X170632333Y-64781180D01*
X170203761Y-65781180D01*
%TO.C,A5*%
X132315514Y-102833466D02*
X132791704Y-102833466D01*
X132220276Y-103119180D02*
X132553609Y-102119180D01*
X132886942Y-103119180D01*
X133696466Y-102119180D02*
X133220276Y-102119180D01*
X133172657Y-102595371D01*
X133220276Y-102547752D01*
X133315514Y-102500133D01*
X133553609Y-102500133D01*
X133648847Y-102547752D01*
X133696466Y-102595371D01*
X133744085Y-102690609D01*
X133744085Y-102928704D01*
X133696466Y-103023942D01*
X133648847Y-103071561D01*
X133553609Y-103119180D01*
X133315514Y-103119180D01*
X133220276Y-103071561D01*
X133172657Y-103023942D01*
%TO.C,C5*%
X103836333Y-113641142D02*
X103788714Y-113688761D01*
X103645857Y-113736380D01*
X103550619Y-113736380D01*
X103407761Y-113688761D01*
X103312523Y-113593523D01*
X103264904Y-113498285D01*
X103217285Y-113307809D01*
X103217285Y-113164952D01*
X103264904Y-112974476D01*
X103312523Y-112879238D01*
X103407761Y-112784000D01*
X103550619Y-112736380D01*
X103645857Y-112736380D01*
X103788714Y-112784000D01*
X103836333Y-112831619D01*
X104741095Y-112736380D02*
X104264904Y-112736380D01*
X104217285Y-113212571D01*
X104264904Y-113164952D01*
X104360142Y-113117333D01*
X104598238Y-113117333D01*
X104693476Y-113164952D01*
X104741095Y-113212571D01*
X104788714Y-113307809D01*
X104788714Y-113545904D01*
X104741095Y-113641142D01*
X104693476Y-113688761D01*
X104598238Y-113736380D01*
X104360142Y-113736380D01*
X104264904Y-113688761D01*
X104217285Y-113641142D01*
X107315000Y-109383580D02*
X107315000Y-109621676D01*
X107076904Y-109526438D02*
X107315000Y-109621676D01*
X107553095Y-109526438D01*
X107172142Y-109812152D02*
X107315000Y-109621676D01*
X107457857Y-109812152D01*
%TO.C,C6*%
X132903933Y-113514142D02*
X132856314Y-113561761D01*
X132713457Y-113609380D01*
X132618219Y-113609380D01*
X132475361Y-113561761D01*
X132380123Y-113466523D01*
X132332504Y-113371285D01*
X132284885Y-113180809D01*
X132284885Y-113037952D01*
X132332504Y-112847476D01*
X132380123Y-112752238D01*
X132475361Y-112657000D01*
X132618219Y-112609380D01*
X132713457Y-112609380D01*
X132856314Y-112657000D01*
X132903933Y-112704619D01*
X133761076Y-112609380D02*
X133570600Y-112609380D01*
X133475361Y-112657000D01*
X133427742Y-112704619D01*
X133332504Y-112847476D01*
X133284885Y-113037952D01*
X133284885Y-113418904D01*
X133332504Y-113514142D01*
X133380123Y-113561761D01*
X133475361Y-113609380D01*
X133665838Y-113609380D01*
X133761076Y-113561761D01*
X133808695Y-113514142D01*
X133856314Y-113418904D01*
X133856314Y-113180809D01*
X133808695Y-113085571D01*
X133761076Y-113037952D01*
X133665838Y-112990333D01*
X133475361Y-112990333D01*
X133380123Y-113037952D01*
X133332504Y-113085571D01*
X133284885Y-113180809D01*
X136372600Y-109205780D02*
X136372600Y-109443876D01*
X136134504Y-109348638D02*
X136372600Y-109443876D01*
X136610695Y-109348638D01*
X136229742Y-109634352D02*
X136372600Y-109443876D01*
X136515457Y-109634352D01*
%TO.C,A4*%
X161657914Y-135955066D02*
X162134104Y-135955066D01*
X161562676Y-136240780D02*
X161896009Y-135240780D01*
X162229342Y-136240780D01*
X162991247Y-135574114D02*
X162991247Y-136240780D01*
X162753152Y-135193161D02*
X162515057Y-135907447D01*
X163134104Y-135907447D01*
%TO.C,R17*%
X122186142Y-80590380D02*
X121852809Y-80114190D01*
X121614714Y-80590380D02*
X121614714Y-79590380D01*
X121995666Y-79590380D01*
X122090904Y-79638000D01*
X122138523Y-79685619D01*
X122186142Y-79780857D01*
X122186142Y-79923714D01*
X122138523Y-80018952D01*
X122090904Y-80066571D01*
X121995666Y-80114190D01*
X121614714Y-80114190D01*
X123138523Y-80590380D02*
X122567095Y-80590380D01*
X122852809Y-80590380D02*
X122852809Y-79590380D01*
X122757571Y-79733238D01*
X122662333Y-79828476D01*
X122567095Y-79876095D01*
X123471857Y-79590380D02*
X124138523Y-79590380D01*
X123709952Y-80590380D01*
%TO.C,R7*%
X93574733Y-135529580D02*
X93241400Y-135053390D01*
X93003304Y-135529580D02*
X93003304Y-134529580D01*
X93384257Y-134529580D01*
X93479495Y-134577200D01*
X93527114Y-134624819D01*
X93574733Y-134720057D01*
X93574733Y-134862914D01*
X93527114Y-134958152D01*
X93479495Y-135005771D01*
X93384257Y-135053390D01*
X93003304Y-135053390D01*
X93908066Y-134529580D02*
X94574733Y-134529580D01*
X94146161Y-135529580D01*
%TO.C,R14*%
X122166142Y-102407980D02*
X121832809Y-101931790D01*
X121594714Y-102407980D02*
X121594714Y-101407980D01*
X121975666Y-101407980D01*
X122070904Y-101455600D01*
X122118523Y-101503219D01*
X122166142Y-101598457D01*
X122166142Y-101741314D01*
X122118523Y-101836552D01*
X122070904Y-101884171D01*
X121975666Y-101931790D01*
X121594714Y-101931790D01*
X123118523Y-102407980D02*
X122547095Y-102407980D01*
X122832809Y-102407980D02*
X122832809Y-101407980D01*
X122737571Y-101550838D01*
X122642333Y-101646076D01*
X122547095Y-101693695D01*
X123975666Y-101741314D02*
X123975666Y-102407980D01*
X123737571Y-101360361D02*
X123499476Y-102074647D01*
X124118523Y-102074647D01*
%TO.C,C9*%
X140828733Y-65635142D02*
X140781114Y-65682761D01*
X140638257Y-65730380D01*
X140543019Y-65730380D01*
X140400161Y-65682761D01*
X140304923Y-65587523D01*
X140257304Y-65492285D01*
X140209685Y-65301809D01*
X140209685Y-65158952D01*
X140257304Y-64968476D01*
X140304923Y-64873238D01*
X140400161Y-64778000D01*
X140543019Y-64730380D01*
X140638257Y-64730380D01*
X140781114Y-64778000D01*
X140828733Y-64825619D01*
X141304923Y-65730380D02*
X141495400Y-65730380D01*
X141590638Y-65682761D01*
X141638257Y-65635142D01*
X141733495Y-65492285D01*
X141781114Y-65301809D01*
X141781114Y-64920857D01*
X141733495Y-64825619D01*
X141685876Y-64778000D01*
X141590638Y-64730380D01*
X141400161Y-64730380D01*
X141304923Y-64778000D01*
X141257304Y-64825619D01*
X141209685Y-64920857D01*
X141209685Y-65158952D01*
X141257304Y-65254190D01*
X141304923Y-65301809D01*
X141400161Y-65349428D01*
X141590638Y-65349428D01*
X141685876Y-65301809D01*
X141733495Y-65254190D01*
X141781114Y-65158952D01*
D11*
%TO.C,C3*%
X124076300Y-75859640D02*
X124076300Y-79159100D01*
X132839300Y-70396100D02*
X124076300Y-70396100D01*
X132839300Y-79159100D02*
X132839300Y-75859640D01*
X124076300Y-79159100D02*
X132839300Y-79159100D01*
X132839300Y-73695560D02*
X132839300Y-70396100D01*
X124076300Y-70396100D02*
X124076300Y-73695560D01*
%TO.C,R6*%
X151954336Y-81053000D02*
X152408464Y-81053000D01*
X151954336Y-82523000D02*
X152408464Y-82523000D01*
%TO.C,JP16*%
X121409000Y-118054400D02*
X121409000Y-117454400D01*
X123509000Y-118754400D02*
X122109000Y-118754400D01*
X122109000Y-116754400D02*
X123509000Y-116754400D01*
X124209000Y-117454400D02*
X124209000Y-118054400D01*
X121409000Y-118054400D02*
G75*
G03*
X122109000Y-118754400I699999J-1D01*
G01*
X124209000Y-117454400D02*
G75*
G03*
X123509000Y-116754400I-699999J1D01*
G01*
X123509000Y-118754400D02*
G75*
G03*
X124209000Y-118054400I1J699999D01*
G01*
X122109000Y-116754400D02*
G75*
G03*
X121409000Y-117454400I-1J-699999D01*
G01*
%TO.C,J5*%
X146612600Y-93776800D02*
X143952600Y-93776800D01*
X146612600Y-86096800D02*
X143952600Y-86096800D01*
X146612600Y-93776800D02*
X146612600Y-86096800D01*
X146612600Y-96376800D02*
X145282600Y-96376800D01*
X143952600Y-93776800D02*
X143952600Y-86096800D01*
X146612600Y-95046800D02*
X146612600Y-96376800D01*
%TO.C,JP11*%
X151471400Y-119548400D02*
X152871400Y-119548400D01*
X152871400Y-121548400D02*
X151471400Y-121548400D01*
X150771400Y-120848400D02*
X150771400Y-120248400D01*
X153571400Y-120248400D02*
X153571400Y-120848400D01*
X152871400Y-121548400D02*
G75*
G03*
X153571400Y-120848400I1J699999D01*
G01*
X150771400Y-120848400D02*
G75*
G03*
X151471400Y-121548400I699999J-1D01*
G01*
X151471400Y-119548400D02*
G75*
G03*
X150771400Y-120248400I-1J-699999D01*
G01*
X153571400Y-120248400D02*
G75*
G03*
X152871400Y-119548400I-699999J1D01*
G01*
%TO.C,Q3*%
X124375400Y-61014400D02*
X126185400Y-61014400D01*
X134775400Y-59514400D02*
X134775400Y-61014400D01*
X124375400Y-59514400D02*
X124375400Y-61014400D01*
X134775400Y-61014400D02*
X132965400Y-61014400D01*
X132965400Y-61014400D02*
X132965400Y-62114400D01*
X126185400Y-61014400D02*
X126185400Y-66139400D01*
%TO.C,R15*%
X123036064Y-131494200D02*
X122581936Y-131494200D01*
X123036064Y-130024200D02*
X122581936Y-130024200D01*
%TO.C,JP2*%
X95151400Y-87187600D02*
X95151400Y-87787600D01*
X93051400Y-86487600D02*
X94451400Y-86487600D01*
X94451400Y-88487600D02*
X93051400Y-88487600D01*
X92351400Y-87787600D02*
X92351400Y-87187600D01*
X94451400Y-88487600D02*
G75*
G03*
X95151400Y-87787600I1J699999D01*
G01*
X93051400Y-86487600D02*
G75*
G03*
X92351400Y-87187600I-1J-699999D01*
G01*
X95151400Y-87187600D02*
G75*
G03*
X94451400Y-86487600I-699999J1D01*
G01*
X92351400Y-87787600D02*
G75*
G03*
X93051400Y-88487600I699999J-1D01*
G01*
%TO.C,J2*%
X175965000Y-93766800D02*
X175965000Y-86086800D01*
X175965000Y-86086800D02*
X173305000Y-86086800D01*
X175965000Y-95036800D02*
X175965000Y-96366800D01*
X175965000Y-93766800D02*
X173305000Y-93766800D01*
X173305000Y-93766800D02*
X173305000Y-86086800D01*
X175965000Y-96366800D02*
X174635000Y-96366800D01*
%TO.C,J9*%
X142336000Y-54097000D02*
X142443000Y-53990000D01*
X146524000Y-47783000D02*
X146524000Y-47143000D01*
X146284000Y-48943000D02*
X136164000Y-48943000D01*
X145006000Y-50896000D02*
X145112000Y-50789000D01*
X145272000Y-51162000D02*
X145378000Y-51055000D01*
X136164000Y-56503000D02*
X136164000Y-47383000D01*
X146284000Y-56503000D02*
X146284000Y-47383000D01*
X146284000Y-47383000D02*
X136164000Y-47383000D01*
X139982000Y-51451000D02*
X140377000Y-51055000D01*
X146284000Y-47843000D02*
X136164000Y-47843000D01*
X142070000Y-53831000D02*
X142177000Y-53724000D01*
X137070000Y-53831000D02*
X137465000Y-53435000D01*
X146284000Y-56503000D02*
X136164000Y-56503000D01*
X139731000Y-51169000D02*
X140111000Y-50789000D01*
X146524000Y-47143000D02*
X146124000Y-47143000D01*
X137336000Y-54097000D02*
X137716000Y-53717000D01*
X145904000Y-52443000D02*
G75*
G03*
X145904000Y-52443000I-2180000J0D01*
G01*
X140904000Y-52443000D02*
G75*
G03*
X140904000Y-52443000I-2180000J0D01*
G01*
%TO.C,JP12*%
X151471400Y-122393200D02*
X152871400Y-122393200D01*
X153571400Y-123093200D02*
X153571400Y-123693200D01*
X150771400Y-123693200D02*
X150771400Y-123093200D01*
X152871400Y-124393200D02*
X151471400Y-124393200D01*
X152871400Y-124393200D02*
G75*
G03*
X153571400Y-123693200I1J699999D01*
G01*
X151471400Y-122393200D02*
G75*
G03*
X150771400Y-123093200I-1J-699999D01*
G01*
X150771400Y-123693200D02*
G75*
G03*
X151471400Y-124393200I699999J-1D01*
G01*
X153571400Y-123093200D02*
G75*
G03*
X152871400Y-122393200I-699999J1D01*
G01*
D10*
%TO.C,TP1*%
X92174000Y-59385200D02*
G75*
G03*
X92174000Y-59385200I-1750000J0D01*
G01*
D11*
%TO.C,A1*%
X98923000Y-101587600D02*
X98923000Y-81007600D01*
X96253000Y-81007600D02*
X96253000Y-101587600D01*
X96253000Y-101587600D02*
X109083000Y-101587600D01*
X110353000Y-101587600D02*
X111753000Y-101587600D01*
X111753000Y-98917600D02*
X111753000Y-81007600D01*
X111753000Y-101587600D02*
X111753000Y-100187600D01*
X109083000Y-101587600D02*
X109083000Y-98917600D01*
X111753000Y-81007600D02*
X96253000Y-81007600D01*
X109083000Y-98917600D02*
X109083000Y-81007600D01*
X109083000Y-98917600D02*
X111753000Y-98917600D01*
%TO.C,C2*%
X161750850Y-79159100D02*
X161750850Y-75859640D01*
X152987850Y-75859640D02*
X152987850Y-79159100D01*
X161750850Y-73695560D02*
X161750850Y-70396100D01*
X161750850Y-70396100D02*
X152987850Y-70396100D01*
X152987850Y-70396100D02*
X152987850Y-73695560D01*
X152987850Y-79159100D02*
X161750850Y-79159100D01*
%TO.C,R5*%
X93524336Y-81113800D02*
X93978464Y-81113800D01*
X93524336Y-82583800D02*
X93978464Y-82583800D01*
%TO.C,JP5*%
X151471400Y-86426800D02*
X152871400Y-86426800D01*
X152871400Y-88426800D02*
X151471400Y-88426800D01*
X150771400Y-87726800D02*
X150771400Y-87126800D01*
X153571400Y-87126800D02*
X153571400Y-87726800D01*
X151471400Y-86426800D02*
G75*
G03*
X150771400Y-87126800I-1J-699999D01*
G01*
X153571400Y-87126800D02*
G75*
G03*
X152871400Y-86426800I-699999J1D01*
G01*
X152871400Y-88426800D02*
G75*
G03*
X153571400Y-87726800I1J699999D01*
G01*
X150771400Y-87726800D02*
G75*
G03*
X151471400Y-88426800I699999J-1D01*
G01*
%TO.C,J6*%
X146694200Y-126939200D02*
X146694200Y-119259200D01*
X146694200Y-128209200D02*
X146694200Y-129539200D01*
X146694200Y-119259200D02*
X144034200Y-119259200D01*
X146694200Y-126939200D02*
X144034200Y-126939200D01*
X146694200Y-129539200D02*
X145364200Y-129539200D01*
X144034200Y-126939200D02*
X144034200Y-119259200D01*
%TO.C,A3*%
X96243000Y-134709200D02*
X109073000Y-134709200D01*
X96243000Y-114129200D02*
X96243000Y-134709200D01*
X110343000Y-134709200D02*
X111743000Y-134709200D01*
X111743000Y-134709200D02*
X111743000Y-133309200D01*
X109073000Y-134709200D02*
X109073000Y-132039200D01*
X98913000Y-134709200D02*
X98913000Y-114129200D01*
X109073000Y-132039200D02*
X111743000Y-132039200D01*
X111743000Y-114129200D02*
X96243000Y-114129200D01*
X109073000Y-132039200D02*
X109073000Y-114129200D01*
X111743000Y-132039200D02*
X111743000Y-114129200D01*
%TO.C,R2*%
X152408464Y-100861800D02*
X151954336Y-100861800D01*
X152408464Y-99391800D02*
X151954336Y-99391800D01*
%TO.C,J4*%
X173352150Y-126888400D02*
X173352150Y-119208400D01*
X176012150Y-129488400D02*
X174682150Y-129488400D01*
X176012150Y-126888400D02*
X176012150Y-119208400D01*
X176012150Y-128158400D02*
X176012150Y-129488400D01*
X176012150Y-119208400D02*
X173352150Y-119208400D01*
X176012150Y-126888400D02*
X173352150Y-126888400D01*
%TO.C,D3*%
X144776400Y-58598800D02*
X139376400Y-58598800D01*
X144776400Y-61898800D02*
X144776400Y-58598800D01*
X144776400Y-61898800D02*
X139376400Y-61898800D01*
%TO.C,Q2*%
X103847000Y-60897400D02*
X103847000Y-61997400D01*
X105657000Y-59397400D02*
X105657000Y-60897400D01*
X97067000Y-60897400D02*
X97067000Y-66022400D01*
X105657000Y-60897400D02*
X103847000Y-60897400D01*
X95257000Y-59397400D02*
X95257000Y-60897400D01*
X95257000Y-60897400D02*
X97067000Y-60897400D01*
%TO.C,C8*%
X118053800Y-72831800D02*
G75*
G03*
X118053800Y-72831800I-6370000J0D01*
G01*
%TO.C,C1*%
X103670100Y-79194500D02*
X103670100Y-75895040D01*
X94907100Y-75895040D02*
X94907100Y-79194500D01*
X94907100Y-79194500D02*
X103670100Y-79194500D01*
X103670100Y-70431500D02*
X94907100Y-70431500D01*
X94907100Y-70431500D02*
X94907100Y-73730960D01*
X103670100Y-73730960D02*
X103670100Y-70431500D01*
%TO.C,J8*%
X116239800Y-51162000D02*
X116345800Y-51055000D01*
X113303800Y-54097000D02*
X113410800Y-53990000D01*
X108303800Y-54097000D02*
X108683800Y-53717000D01*
X110949800Y-51451000D02*
X111344800Y-51055000D01*
X117491800Y-47143000D02*
X117091800Y-47143000D01*
X117251800Y-47843000D02*
X107131800Y-47843000D01*
X117251800Y-48943000D02*
X107131800Y-48943000D01*
X117251800Y-56503000D02*
X117251800Y-47383000D01*
X117251800Y-47383000D02*
X107131800Y-47383000D01*
X117251800Y-56503000D02*
X107131800Y-56503000D01*
X113037800Y-53831000D02*
X113144800Y-53724000D01*
X117491800Y-47783000D02*
X117491800Y-47143000D01*
X108037800Y-53831000D02*
X108432800Y-53435000D01*
X107131800Y-56503000D02*
X107131800Y-47383000D01*
X115973800Y-50896000D02*
X116079800Y-50789000D01*
X110698800Y-51169000D02*
X111078800Y-50789000D01*
X111871800Y-52443000D02*
G75*
G03*
X111871800Y-52443000I-2180000J0D01*
G01*
X116871800Y-52443000D02*
G75*
G03*
X116871800Y-52443000I-2180000J0D01*
G01*
%TO.C,R12*%
X151950686Y-115644600D02*
X152404814Y-115644600D01*
X151950686Y-114174600D02*
X152404814Y-114174600D01*
%TO.C,R8*%
X152404814Y-132513400D02*
X151950686Y-132513400D01*
X152404814Y-133983400D02*
X151950686Y-133983400D01*
%TO.C,J7*%
X173858250Y-50878600D02*
X173964250Y-50771600D01*
X175136250Y-56485600D02*
X165016250Y-56485600D01*
X175136250Y-56485600D02*
X175136250Y-47365600D01*
X175136250Y-48925600D02*
X165016250Y-48925600D01*
X166188250Y-54079600D02*
X166568250Y-53699600D01*
X175376250Y-47765600D02*
X175376250Y-47125600D01*
X170922250Y-53813600D02*
X171029250Y-53706600D01*
X175376250Y-47125600D02*
X174976250Y-47125600D01*
X171188250Y-54079600D02*
X171295250Y-53972600D01*
X168583250Y-51151600D02*
X168963250Y-50771600D01*
X174124250Y-51144600D02*
X174230250Y-51037600D01*
X175136250Y-47825600D02*
X165016250Y-47825600D01*
X165016250Y-56485600D02*
X165016250Y-47365600D01*
X165922250Y-53813600D02*
X166317250Y-53417600D01*
X175136250Y-47365600D02*
X165016250Y-47365600D01*
X168834250Y-51433600D02*
X169229250Y-51037600D01*
X174756250Y-52425600D02*
G75*
G03*
X174756250Y-52425600I-2180000J0D01*
G01*
X169756250Y-52425600D02*
G75*
G03*
X169756250Y-52425600I-2180000J0D01*
G01*
%TO.C,JP9*%
X94441400Y-124403200D02*
X93041400Y-124403200D01*
X95141400Y-123103200D02*
X95141400Y-123703200D01*
X93041400Y-122403200D02*
X94441400Y-122403200D01*
X92341400Y-123703200D02*
X92341400Y-123103200D01*
X92341400Y-123703200D02*
G75*
G03*
X93041400Y-124403200I699999J-1D01*
G01*
X93041400Y-122403200D02*
G75*
G03*
X92341400Y-123103200I-1J-699999D01*
G01*
X94441400Y-124403200D02*
G75*
G03*
X95141400Y-123703200I1J699999D01*
G01*
X95141400Y-123103200D02*
G75*
G03*
X94441400Y-122403200I-699999J1D01*
G01*
%TO.C,JP8*%
X94441400Y-121609200D02*
X93041400Y-121609200D01*
X92341400Y-120909200D02*
X92341400Y-120309200D01*
X93041400Y-119609200D02*
X94441400Y-119609200D01*
X95141400Y-120309200D02*
X95141400Y-120909200D01*
X92341400Y-120909200D02*
G75*
G03*
X93041400Y-121609200I699999J-1D01*
G01*
X93041400Y-119609200D02*
G75*
G03*
X92341400Y-120309200I-1J-699999D01*
G01*
X94441400Y-121609200D02*
G75*
G03*
X95141400Y-120909200I1J699999D01*
G01*
X95141400Y-120309200D02*
G75*
G03*
X94441400Y-119609200I-699999J1D01*
G01*
%TO.C,R3*%
X93927664Y-96902600D02*
X93473536Y-96902600D01*
X93927664Y-98372600D02*
X93473536Y-98372600D01*
D10*
%TO.C,TP2*%
X181175600Y-133705600D02*
G75*
G03*
X181175600Y-133705600I-1750000J0D01*
G01*
D11*
%TO.C,A6*%
X138140600Y-132029200D02*
X138140600Y-114119200D01*
X140810600Y-134699200D02*
X140810600Y-133299200D01*
X140810600Y-132029200D02*
X140810600Y-114119200D01*
X140810600Y-114119200D02*
X125310600Y-114119200D01*
X139410600Y-134699200D02*
X140810600Y-134699200D01*
X138140600Y-132029200D02*
X140810600Y-132029200D01*
X125310600Y-114119200D02*
X125310600Y-134699200D01*
X138140600Y-134699200D02*
X138140600Y-132029200D01*
X127980600Y-134699200D02*
X127980600Y-114119200D01*
X125310600Y-134699200D02*
X138140600Y-134699200D01*
%TO.C,JP1*%
X94441000Y-85693600D02*
X93041000Y-85693600D01*
X93041000Y-83693600D02*
X94441000Y-83693600D01*
X95141000Y-84393600D02*
X95141000Y-84993600D01*
X92341000Y-84993600D02*
X92341000Y-84393600D01*
X95141000Y-84393600D02*
G75*
G03*
X94441000Y-83693600I-699999J1D01*
G01*
X94441000Y-85693600D02*
G75*
G03*
X95141000Y-84993600I1J699999D01*
G01*
X93041000Y-83693600D02*
G75*
G03*
X92341000Y-84393600I-1J-699999D01*
G01*
X92341000Y-84993600D02*
G75*
G03*
X93041000Y-85693600I699999J-1D01*
G01*
%TO.C,JP18*%
X121409000Y-123693200D02*
X121409000Y-123093200D01*
X122109000Y-122393200D02*
X123509000Y-122393200D01*
X123509000Y-124393200D02*
X122109000Y-124393200D01*
X124209000Y-123093200D02*
X124209000Y-123693200D01*
X122109000Y-122393200D02*
G75*
G03*
X121409000Y-123093200I-1J-699999D01*
G01*
X121409000Y-123693200D02*
G75*
G03*
X122109000Y-124393200I699999J-1D01*
G01*
X123509000Y-124393200D02*
G75*
G03*
X124209000Y-123693200I1J699999D01*
G01*
X124209000Y-123093200D02*
G75*
G03*
X123509000Y-122393200I-699999J1D01*
G01*
%TO.C,R13*%
X123036064Y-133983400D02*
X122581936Y-133983400D01*
X123036064Y-132513400D02*
X122581936Y-132513400D01*
%TO.C,R4*%
X152408464Y-98321800D02*
X151954336Y-98321800D01*
X152408464Y-96851800D02*
X151954336Y-96851800D01*
%TO.C,R21*%
X129297536Y-67641800D02*
X129751664Y-67641800D01*
X129297536Y-69111800D02*
X129751664Y-69111800D01*
%TO.C,R20*%
X100280736Y-67626400D02*
X100734864Y-67626400D01*
X100280736Y-69096400D02*
X100734864Y-69096400D01*
%TO.C,JP15*%
X121430900Y-90520800D02*
X121430900Y-89920800D01*
X123530900Y-91220800D02*
X122130900Y-91220800D01*
X124230900Y-89920800D02*
X124230900Y-90520800D01*
X122130900Y-89220800D02*
X123530900Y-89220800D01*
X122130900Y-89220800D02*
G75*
G03*
X121430900Y-89920800I-1J-699999D01*
G01*
X124230900Y-89920800D02*
G75*
G03*
X123530900Y-89220800I-699999J1D01*
G01*
X123530900Y-91220800D02*
G75*
G03*
X124230900Y-90520800I1J699999D01*
G01*
X121430900Y-90520800D02*
G75*
G03*
X122130900Y-91220800I699999J-1D01*
G01*
%TO.C,A2*%
X167462200Y-101526800D02*
X167462200Y-98856800D01*
X170132200Y-101526800D02*
X170132200Y-100126800D01*
X168732200Y-101526800D02*
X170132200Y-101526800D01*
X167462200Y-98856800D02*
X167462200Y-80946800D01*
X170132200Y-80946800D02*
X154632200Y-80946800D01*
X157302200Y-101526800D02*
X157302200Y-80946800D01*
X154632200Y-80946800D02*
X154632200Y-101526800D01*
X154632200Y-101526800D02*
X167462200Y-101526800D01*
X170132200Y-98856800D02*
X170132200Y-80946800D01*
X167462200Y-98856800D02*
X170132200Y-98856800D01*
%TO.C,JP13*%
X123530900Y-85582000D02*
X122130900Y-85582000D01*
X121430900Y-84882000D02*
X121430900Y-84282000D01*
X124230900Y-84282000D02*
X124230900Y-84882000D01*
X122130900Y-83582000D02*
X123530900Y-83582000D01*
X123530900Y-85582000D02*
G75*
G03*
X124230900Y-84882000I1J699999D01*
G01*
X124230900Y-84282000D02*
G75*
G03*
X123530900Y-83582000I-699999J1D01*
G01*
X122130900Y-83582000D02*
G75*
G03*
X121430900Y-84282000I-1J-699999D01*
G01*
X121430900Y-84882000D02*
G75*
G03*
X122130900Y-85582000I699999J-1D01*
G01*
%TO.C,R18*%
X122581936Y-114225400D02*
X123036064Y-114225400D01*
X122581936Y-115695400D02*
X123036064Y-115695400D01*
%TO.C,R9*%
X93968464Y-130034200D02*
X93514336Y-130034200D01*
X93968464Y-131504200D02*
X93514336Y-131504200D01*
%TO.C,J1*%
X114925800Y-93827600D02*
X114925800Y-86147600D01*
X117585800Y-96427600D02*
X116255800Y-96427600D01*
X117585800Y-95097600D02*
X117585800Y-96427600D01*
X117585800Y-86147600D02*
X114925800Y-86147600D01*
X117585800Y-93827600D02*
X117585800Y-86147600D01*
X117585800Y-93827600D02*
X114925800Y-93827600D01*
%TO.C,J3*%
X117626600Y-129549200D02*
X116296600Y-129549200D01*
X117626600Y-126949200D02*
X114966600Y-126949200D01*
X117626600Y-119269200D02*
X114966600Y-119269200D01*
X117626600Y-126949200D02*
X117626600Y-119269200D01*
X114966600Y-126949200D02*
X114966600Y-119269200D01*
X117626600Y-128219200D02*
X117626600Y-129549200D01*
%TO.C,C4*%
X166814500Y-106766360D02*
X166814500Y-103466900D01*
X158051500Y-112229900D02*
X166814500Y-112229900D01*
X158051500Y-103466900D02*
X158051500Y-106766360D01*
X166814500Y-112229900D02*
X166814500Y-108930440D01*
X166814500Y-103466900D02*
X158051500Y-103466900D01*
X158051500Y-108930440D02*
X158051500Y-112229900D01*
%TO.C,D1*%
X173685000Y-58548000D02*
X168285000Y-58548000D01*
X173685000Y-61848000D02*
X168285000Y-61848000D01*
X173685000Y-61848000D02*
X173685000Y-58548000D01*
%TO.C,R11*%
X93514336Y-114286200D02*
X93968464Y-114286200D01*
X93514336Y-115756200D02*
X93968464Y-115756200D01*
%TO.C,JP6*%
X150771400Y-90593800D02*
X150771400Y-89993800D01*
X152871400Y-91293800D02*
X151471400Y-91293800D01*
X153571400Y-89993800D02*
X153571400Y-90593800D01*
X151471400Y-89293800D02*
X152871400Y-89293800D01*
X152871400Y-91293800D02*
G75*
G03*
X153571400Y-90593800I1J699999D01*
G01*
X150771400Y-90593800D02*
G75*
G03*
X151471400Y-91293800I699999J-1D01*
G01*
X151471400Y-89293800D02*
G75*
G03*
X150771400Y-89993800I-1J-699999D01*
G01*
X153571400Y-89993800D02*
G75*
G03*
X152871400Y-89293800I-699999J1D01*
G01*
%TO.C,D2*%
X115515600Y-58548000D02*
X110115600Y-58548000D01*
X115515600Y-61848000D02*
X110115600Y-61848000D01*
X115515600Y-61848000D02*
X115515600Y-58548000D01*
%TO.C,R10*%
X152404814Y-131443400D02*
X151950686Y-131443400D01*
X152404814Y-129973400D02*
X151950686Y-129973400D01*
%TO.C,J10*%
X124694400Y-137740400D02*
X126024400Y-137740400D01*
X127294400Y-137740400D02*
X145134400Y-137740400D01*
X124694400Y-142940400D02*
X124694400Y-140340400D01*
X145134400Y-142940400D02*
X145134400Y-137740400D01*
X124694400Y-140340400D02*
X127294400Y-140340400D01*
X127294400Y-140340400D02*
X127294400Y-137740400D01*
X124694400Y-139070400D02*
X124694400Y-137740400D01*
X124694400Y-142940400D02*
X145134400Y-142940400D01*
%TO.C,JP7*%
X92331000Y-118115200D02*
X92331000Y-117515200D01*
X95131000Y-117515200D02*
X95131000Y-118115200D01*
X94431000Y-118815200D02*
X93031000Y-118815200D01*
X93031000Y-116815200D02*
X94431000Y-116815200D01*
X95131000Y-117515200D02*
G75*
G03*
X94431000Y-116815200I-699999J1D01*
G01*
X92331000Y-118115200D02*
G75*
G03*
X93031000Y-118815200I699999J-1D01*
G01*
X93031000Y-116815200D02*
G75*
G03*
X92331000Y-117515200I-1J-699999D01*
G01*
X94431000Y-118815200D02*
G75*
G03*
X95131000Y-118115200I1J699999D01*
G01*
%TO.C,JP4*%
X151471400Y-83604200D02*
X152871400Y-83604200D01*
X152871400Y-85604200D02*
X151471400Y-85604200D01*
X153571400Y-84304200D02*
X153571400Y-84904200D01*
X150771400Y-84904200D02*
X150771400Y-84304200D01*
X153571400Y-84304200D02*
G75*
G03*
X152871400Y-83604200I-699999J1D01*
G01*
X152871400Y-85604200D02*
G75*
G03*
X153571400Y-84904200I1J699999D01*
G01*
X150771400Y-84904200D02*
G75*
G03*
X151471400Y-85604200I699999J-1D01*
G01*
X151471400Y-83604200D02*
G75*
G03*
X150771400Y-84304200I-1J-699999D01*
G01*
%TO.C,Q1*%
X163636150Y-59463600D02*
X163636150Y-60963600D01*
X153236150Y-60963600D02*
X155046150Y-60963600D01*
X153236150Y-59463600D02*
X153236150Y-60963600D01*
X163636150Y-60963600D02*
X161826150Y-60963600D01*
X161826150Y-60963600D02*
X161826150Y-62063600D01*
X155046150Y-60963600D02*
X155046150Y-66088600D01*
%TO.C,R16*%
X123056064Y-98321800D02*
X122601936Y-98321800D01*
X123056064Y-96851800D02*
X122601936Y-96851800D01*
%TO.C,R1*%
X93978464Y-99452600D02*
X93524336Y-99452600D01*
X93978464Y-100922600D02*
X93524336Y-100922600D01*
%TO.C,R19*%
X158209086Y-67743400D02*
X158663214Y-67743400D01*
X158209086Y-69213400D02*
X158663214Y-69213400D01*
%TO.C,C7*%
X176236150Y-72796400D02*
G75*
G03*
X176236150Y-72796400I-6370000J0D01*
G01*
%TO.C,A5*%
X138109800Y-98856800D02*
X138109800Y-80946800D01*
X138109800Y-101526800D02*
X138109800Y-98856800D01*
X125279800Y-80946800D02*
X125279800Y-101526800D01*
X125279800Y-101526800D02*
X138109800Y-101526800D01*
X140779800Y-80946800D02*
X125279800Y-80946800D01*
X138109800Y-98856800D02*
X140779800Y-98856800D01*
X127949800Y-101526800D02*
X127949800Y-80946800D01*
X140779800Y-98856800D02*
X140779800Y-80946800D01*
X140779800Y-101526800D02*
X140779800Y-100126800D01*
X139379800Y-101526800D02*
X140779800Y-101526800D01*
%TO.C,C5*%
X99621500Y-109042040D02*
X99621500Y-112341500D01*
X108384500Y-112341500D02*
X108384500Y-109042040D01*
X99621500Y-103578500D02*
X99621500Y-106877960D01*
X108384500Y-106877960D02*
X108384500Y-103578500D01*
X108384500Y-103578500D02*
X99621500Y-103578500D01*
X99621500Y-112341500D02*
X108384500Y-112341500D01*
%TO.C,C6*%
X137452100Y-112179100D02*
X137452100Y-108879640D01*
X137452100Y-103416100D02*
X128689100Y-103416100D01*
X128689100Y-112179100D02*
X137452100Y-112179100D01*
X137452100Y-106715560D02*
X137452100Y-103416100D01*
X128689100Y-108879640D02*
X128689100Y-112179100D01*
X128689100Y-103416100D02*
X128689100Y-106715560D01*
%TO.C,A4*%
X168722200Y-134648400D02*
X170122200Y-134648400D01*
X167452200Y-131978400D02*
X167452200Y-114068400D01*
X167452200Y-134648400D02*
X167452200Y-131978400D01*
X154622200Y-114068400D02*
X154622200Y-134648400D01*
X170122200Y-134648400D02*
X170122200Y-133248400D01*
X170122200Y-131978400D02*
X170122200Y-114068400D01*
X157292200Y-134648400D02*
X157292200Y-114068400D01*
X170122200Y-114068400D02*
X154622200Y-114068400D01*
X154622200Y-134648400D02*
X167452200Y-134648400D01*
X167452200Y-131978400D02*
X170122200Y-131978400D01*
%TO.C,R17*%
X122601936Y-82523000D02*
X123056064Y-82523000D01*
X122601936Y-81053000D02*
X123056064Y-81053000D01*
%TO.C,JP17*%
X121409000Y-120899200D02*
X121409000Y-120299200D01*
X123509000Y-121599200D02*
X122109000Y-121599200D01*
X122109000Y-119599200D02*
X123509000Y-119599200D01*
X124209000Y-120299200D02*
X124209000Y-120899200D01*
X121409000Y-120899200D02*
G75*
G03*
X122109000Y-121599200I699999J-1D01*
G01*
X124209000Y-120299200D02*
G75*
G03*
X123509000Y-119599200I-699999J1D01*
G01*
X122109000Y-119599200D02*
G75*
G03*
X121409000Y-120299200I-1J-699999D01*
G01*
X123509000Y-121599200D02*
G75*
G03*
X124209000Y-120899200I1J699999D01*
G01*
%TO.C,JP14*%
X123530900Y-88426800D02*
X122130900Y-88426800D01*
X121430900Y-87726800D02*
X121430900Y-87126800D01*
X124230900Y-87126800D02*
X124230900Y-87726800D01*
X122130900Y-86426800D02*
X123530900Y-86426800D01*
X121430900Y-87726800D02*
G75*
G03*
X122130900Y-88426800I699999J-1D01*
G01*
X123530900Y-88426800D02*
G75*
G03*
X124230900Y-87726800I1J699999D01*
G01*
X122130900Y-86426800D02*
G75*
G03*
X121430900Y-87126800I-1J-699999D01*
G01*
X124230900Y-87126800D02*
G75*
G03*
X123530900Y-86426800I-699999J1D01*
G01*
%TO.C,R7*%
X93968464Y-132625000D02*
X93514336Y-132625000D01*
X93968464Y-134095000D02*
X93514336Y-134095000D01*
%TO.C,R14*%
X123056064Y-100861800D02*
X122601936Y-100861800D01*
X123056064Y-99391800D02*
X122601936Y-99391800D01*
%TO.C,C9*%
X147375400Y-72796400D02*
G75*
G03*
X147375400Y-72796400I-6370000J0D01*
G01*
%TO.C,JP10*%
X151471400Y-116703600D02*
X152871400Y-116703600D01*
X153571400Y-117403600D02*
X153571400Y-118003600D01*
X150771400Y-118003600D02*
X150771400Y-117403600D01*
X152871400Y-118703600D02*
X151471400Y-118703600D01*
X153571400Y-117403600D02*
G75*
G03*
X152871400Y-116703600I-699999J1D01*
G01*
X152871400Y-118703600D02*
G75*
G03*
X153571400Y-118003600I1J699999D01*
G01*
X151471400Y-116703600D02*
G75*
G03*
X150771400Y-117403600I-1J-699999D01*
G01*
X150771400Y-118003600D02*
G75*
G03*
X151471400Y-118703600I699999J-1D01*
G01*
%TO.C,JP3*%
X92351400Y-90581600D02*
X92351400Y-89981600D01*
X95151400Y-89981600D02*
X95151400Y-90581600D01*
X93051400Y-89281600D02*
X94451400Y-89281600D01*
X94451400Y-91281600D02*
X93051400Y-91281600D01*
X94451400Y-91281600D02*
G75*
G03*
X95151400Y-90581600I1J699999D01*
G01*
X92351400Y-90581600D02*
G75*
G03*
X93051400Y-91281600I699999J-1D01*
G01*
X95151400Y-89981600D02*
G75*
G03*
X94451400Y-89281600I-699999J1D01*
G01*
X93051400Y-89281600D02*
G75*
G03*
X92351400Y-89981600I-1J-699999D01*
G01*
%TD*%
M02*
