%TF.GenerationSoftware,KiCad,Pcbnew,(6.0.2)*%
%TF.CreationDate,2022-02-23T19:09:50-05:00*%
%TF.ProjectId,SDP_motors,5344505f-6d6f-4746-9f72-732e6b696361,rev?*%
%TF.SameCoordinates,Original*%
%TF.FileFunction,Soldermask,Top*%
%TF.FilePolarity,Negative*%
%FSLAX46Y46*%
G04 Gerber Fmt 4.6, Leading zero omitted, Abs format (unit mm)*
G04 Created by KiCad (PCBNEW (6.0.2)) date 2022-02-23 19:09:50*
%MOMM*%
%LPD*%
G01*
G04 APERTURE LIST*
G04 Aperture macros list*
%AMRoundRect*
0 Rectangle with rounded corners*
0 $1 Rounding radius*
0 $2 $3 $4 $5 $6 $7 $8 $9 X,Y pos of 4 corners*
0 Add a 4 corners polygon primitive as box body*
4,1,4,$2,$3,$4,$5,$6,$7,$8,$9,$2,$3,0*
0 Add four circle primitives for the rounded corners*
1,1,$1+$1,$2,$3*
1,1,$1+$1,$4,$5*
1,1,$1+$1,$6,$7*
1,1,$1+$1,$8,$9*
0 Add four rect primitives between the rounded corners*
20,1,$1+$1,$2,$3,$4,$5,0*
20,1,$1+$1,$4,$5,$6,$7,0*
20,1,$1+$1,$6,$7,$8,$9,0*
20,1,$1+$1,$8,$9,$2,$3,0*%
%AMFreePoly0*
4,1,22,0.500000,-0.750000,0.000000,-0.750000,0.000000,-0.745033,-0.079941,-0.743568,-0.215256,-0.701293,-0.333266,-0.622738,-0.424486,-0.514219,-0.481581,-0.384460,-0.499164,-0.250000,-0.500000,-0.250000,-0.500000,0.250000,-0.499164,0.250000,-0.499963,0.256109,-0.478152,0.396186,-0.417904,0.524511,-0.324060,0.630769,-0.204165,0.706417,-0.067858,0.745374,0.000000,0.744959,0.000000,0.750000,
0.500000,0.750000,0.500000,-0.750000,0.500000,-0.750000,$1*%
%AMFreePoly1*
4,1,20,0.000000,0.744959,0.073905,0.744508,0.209726,0.703889,0.328688,0.626782,0.421226,0.519385,0.479903,0.390333,0.500000,0.250000,0.500000,-0.250000,0.499851,-0.262216,0.476331,-0.402017,0.414519,-0.529596,0.319384,-0.634700,0.198574,-0.708877,0.061801,-0.746166,0.000000,-0.745033,0.000000,-0.750000,-0.500000,-0.750000,-0.500000,0.750000,0.000000,0.750000,0.000000,0.744959,
0.000000,0.744959,$1*%
G04 Aperture macros list end*
%ADD10R,3.302000X1.498600*%
%ADD11RoundRect,0.250000X-0.262500X-0.450000X0.262500X-0.450000X0.262500X0.450000X-0.262500X0.450000X0*%
%ADD12FreePoly0,0.000000*%
%ADD13FreePoly1,0.000000*%
%ADD14R,1.700000X1.700000*%
%ADD15O,1.700000X1.700000*%
%ADD16R,1.100000X4.600000*%
%ADD17R,10.800000X9.400000*%
%ADD18RoundRect,0.250000X0.262500X0.450000X-0.262500X0.450000X-0.262500X-0.450000X0.262500X-0.450000X0*%
%ADD19R,2.600000X2.600000*%
%ADD20C,2.600000*%
%ADD21C,2.800000*%
%ADD22R,1.600000X1.600000*%
%ADD23O,1.600000X1.600000*%
%ADD24C,6.400000*%
%ADD25R,2.500000X1.800000*%
%ADD26C,1.600000*%
G04 APERTURE END LIST*
D10*
%TO.C,C3*%
X125155800Y-74777600D03*
X131759800Y-74777600D03*
%TD*%
D11*
%TO.C,R6*%
X151268900Y-81788000D03*
X153093900Y-81788000D03*
%TD*%
D12*
%TO.C,JP16*%
X122159000Y-117754400D03*
D13*
X123459000Y-117754400D03*
%TD*%
D14*
%TO.C,J5*%
X145282600Y-95046800D03*
D15*
X145282600Y-92506800D03*
X145282600Y-89966800D03*
X145282600Y-87426800D03*
%TD*%
D12*
%TO.C,JP11*%
X151521400Y-120548400D03*
D13*
X152821400Y-120548400D03*
%TD*%
D16*
%TO.C,Q3*%
X127035400Y-63839400D03*
D17*
X129575400Y-54689400D03*
D16*
X132115400Y-63839400D03*
%TD*%
D18*
%TO.C,R15*%
X123721500Y-130759200D03*
X121896500Y-130759200D03*
%TD*%
D12*
%TO.C,JP2*%
X93101400Y-87487600D03*
D13*
X94401400Y-87487600D03*
%TD*%
D14*
%TO.C,J2*%
X174635000Y-95036800D03*
D15*
X174635000Y-92496800D03*
X174635000Y-89956800D03*
X174635000Y-87416800D03*
%TD*%
D19*
%TO.C,J9*%
X143724000Y-52443000D03*
D20*
X138724000Y-52443000D03*
%TD*%
D12*
%TO.C,JP12*%
X151521400Y-123393200D03*
D13*
X152821400Y-123393200D03*
%TD*%
D21*
%TO.C,TP1*%
X90424000Y-59385200D03*
%TD*%
D22*
%TO.C,A1*%
X110353000Y-100187600D03*
D23*
X110353000Y-97647600D03*
X110353000Y-95107600D03*
X110353000Y-92567600D03*
X110353000Y-90027600D03*
X110353000Y-87487600D03*
X110353000Y-84947600D03*
X110353000Y-82407600D03*
X97653000Y-82407600D03*
X97653000Y-84947600D03*
X97653000Y-87487600D03*
X97653000Y-90027600D03*
X97653000Y-92567600D03*
X97653000Y-95107600D03*
X97653000Y-97647600D03*
X97653000Y-100187600D03*
%TD*%
D10*
%TO.C,C2*%
X154067350Y-74777600D03*
X160671350Y-74777600D03*
%TD*%
D11*
%TO.C,R5*%
X92838900Y-81848800D03*
X94663900Y-81848800D03*
%TD*%
D12*
%TO.C,JP5*%
X151521400Y-87426800D03*
D13*
X152821400Y-87426800D03*
%TD*%
D14*
%TO.C,J6*%
X145364200Y-128209200D03*
D15*
X145364200Y-125669200D03*
X145364200Y-123129200D03*
X145364200Y-120589200D03*
%TD*%
D24*
%TO.C,H3*%
X90424000Y-140308000D03*
%TD*%
D22*
%TO.C,A3*%
X110343000Y-133309200D03*
D23*
X110343000Y-130769200D03*
X110343000Y-128229200D03*
X110343000Y-125689200D03*
X110343000Y-123149200D03*
X110343000Y-120609200D03*
X110343000Y-118069200D03*
X110343000Y-115529200D03*
X97643000Y-115529200D03*
X97643000Y-118069200D03*
X97643000Y-120609200D03*
X97643000Y-123149200D03*
X97643000Y-125689200D03*
X97643000Y-128229200D03*
X97643000Y-130769200D03*
X97643000Y-133309200D03*
%TD*%
D18*
%TO.C,R2*%
X153093900Y-100126800D03*
X151268900Y-100126800D03*
%TD*%
D14*
%TO.C,J4*%
X174682150Y-128158400D03*
D15*
X174682150Y-125618400D03*
X174682150Y-123078400D03*
X174682150Y-120538400D03*
%TD*%
D25*
%TO.C,D3*%
X143376400Y-60248800D03*
X139376400Y-60248800D03*
%TD*%
D16*
%TO.C,Q2*%
X97917000Y-63722400D03*
D17*
X100457000Y-54572400D03*
D16*
X102997000Y-63722400D03*
%TD*%
D26*
%TO.C,C8*%
X114183800Y-72831800D03*
X109183800Y-72831800D03*
%TD*%
D10*
%TO.C,C1*%
X95986600Y-74813000D03*
X102590600Y-74813000D03*
%TD*%
D19*
%TO.C,J8*%
X114691800Y-52443000D03*
D20*
X109691800Y-52443000D03*
%TD*%
D11*
%TO.C,R12*%
X151265250Y-114909600D03*
X153090250Y-114909600D03*
%TD*%
D18*
%TO.C,R8*%
X153090250Y-133248400D03*
X151265250Y-133248400D03*
%TD*%
D19*
%TO.C,J7*%
X172576250Y-52425600D03*
D20*
X167576250Y-52425600D03*
%TD*%
D12*
%TO.C,JP9*%
X93091400Y-123403200D03*
D13*
X94391400Y-123403200D03*
%TD*%
D12*
%TO.C,JP8*%
X93091400Y-120609200D03*
D13*
X94391400Y-120609200D03*
%TD*%
D18*
%TO.C,R3*%
X94613100Y-97637600D03*
X92788100Y-97637600D03*
%TD*%
D21*
%TO.C,TP2*%
X179425600Y-133705600D03*
%TD*%
D22*
%TO.C,A6*%
X139410600Y-133299200D03*
D23*
X139410600Y-130759200D03*
X139410600Y-128219200D03*
X139410600Y-125679200D03*
X139410600Y-123139200D03*
X139410600Y-120599200D03*
X139410600Y-118059200D03*
X139410600Y-115519200D03*
X126710600Y-115519200D03*
X126710600Y-118059200D03*
X126710600Y-120599200D03*
X126710600Y-123139200D03*
X126710600Y-125679200D03*
X126710600Y-128219200D03*
X126710600Y-130759200D03*
X126710600Y-133299200D03*
%TD*%
D12*
%TO.C,JP1*%
X93091000Y-84693600D03*
D13*
X94391000Y-84693600D03*
%TD*%
D12*
%TO.C,JP18*%
X122159000Y-123393200D03*
D13*
X123459000Y-123393200D03*
%TD*%
D18*
%TO.C,R13*%
X123721500Y-133248400D03*
X121896500Y-133248400D03*
%TD*%
%TO.C,R4*%
X153093900Y-97586800D03*
X151268900Y-97586800D03*
%TD*%
D11*
%TO.C,R21*%
X128612100Y-68376800D03*
X130437100Y-68376800D03*
%TD*%
%TO.C,R20*%
X99595300Y-68361400D03*
X101420300Y-68361400D03*
%TD*%
D12*
%TO.C,JP15*%
X122180900Y-90220800D03*
D13*
X123480900Y-90220800D03*
%TD*%
D22*
%TO.C,A2*%
X168732200Y-100126800D03*
D23*
X168732200Y-97586800D03*
X168732200Y-95046800D03*
X168732200Y-92506800D03*
X168732200Y-89966800D03*
X168732200Y-87426800D03*
X168732200Y-84886800D03*
X168732200Y-82346800D03*
X156032200Y-82346800D03*
X156032200Y-84886800D03*
X156032200Y-87426800D03*
X156032200Y-89966800D03*
X156032200Y-92506800D03*
X156032200Y-95046800D03*
X156032200Y-97586800D03*
X156032200Y-100126800D03*
%TD*%
D12*
%TO.C,JP13*%
X122180900Y-84582000D03*
D13*
X123480900Y-84582000D03*
%TD*%
D11*
%TO.C,R18*%
X121896500Y-114960400D03*
X123721500Y-114960400D03*
%TD*%
D18*
%TO.C,R9*%
X94653900Y-130769200D03*
X92828900Y-130769200D03*
%TD*%
D14*
%TO.C,J1*%
X116255800Y-95097600D03*
D15*
X116255800Y-92557600D03*
X116255800Y-90017600D03*
X116255800Y-87477600D03*
%TD*%
D14*
%TO.C,J3*%
X116296600Y-128219200D03*
D15*
X116296600Y-125679200D03*
X116296600Y-123139200D03*
X116296600Y-120599200D03*
%TD*%
D10*
%TO.C,C4*%
X159131000Y-107848400D03*
X165735000Y-107848400D03*
%TD*%
D25*
%TO.C,D1*%
X172285000Y-60198000D03*
X168285000Y-60198000D03*
%TD*%
D11*
%TO.C,R11*%
X92828900Y-115021200D03*
X94653900Y-115021200D03*
%TD*%
D12*
%TO.C,JP6*%
X151521400Y-90293800D03*
D13*
X152821400Y-90293800D03*
%TD*%
D24*
%TO.C,H2*%
X90424000Y-51308000D03*
%TD*%
D25*
%TO.C,D2*%
X114115600Y-60198000D03*
X110115600Y-60198000D03*
%TD*%
D18*
%TO.C,R10*%
X153090250Y-130708400D03*
X151265250Y-130708400D03*
%TD*%
D14*
%TO.C,J10*%
X126024400Y-139070400D03*
D15*
X126024400Y-141610400D03*
X128564400Y-139070400D03*
X128564400Y-141610400D03*
X131104400Y-139070400D03*
X131104400Y-141610400D03*
X133644400Y-139070400D03*
X133644400Y-141610400D03*
X136184400Y-139070400D03*
X136184400Y-141610400D03*
X138724400Y-139070400D03*
X138724400Y-141610400D03*
X141264400Y-139070400D03*
X141264400Y-141610400D03*
X143804400Y-139070400D03*
X143804400Y-141610400D03*
%TD*%
D12*
%TO.C,JP7*%
X93081000Y-117815200D03*
D13*
X94381000Y-117815200D03*
%TD*%
D12*
%TO.C,JP4*%
X151521400Y-84604200D03*
D13*
X152821400Y-84604200D03*
%TD*%
D16*
%TO.C,Q1*%
X155896150Y-63788600D03*
D17*
X158436150Y-54638600D03*
D16*
X160976150Y-63788600D03*
%TD*%
D18*
%TO.C,R16*%
X123741500Y-97586800D03*
X121916500Y-97586800D03*
%TD*%
%TO.C,R1*%
X94663900Y-100187600D03*
X92838900Y-100187600D03*
%TD*%
D24*
%TO.C,H1*%
X179424000Y-51308000D03*
%TD*%
%TO.C,H4*%
X179424000Y-140308000D03*
%TD*%
D11*
%TO.C,R19*%
X157523650Y-68478400D03*
X159348650Y-68478400D03*
%TD*%
D26*
%TO.C,C7*%
X172366150Y-72796400D03*
X167366150Y-72796400D03*
%TD*%
D22*
%TO.C,A5*%
X139379800Y-100126800D03*
D23*
X139379800Y-97586800D03*
X139379800Y-95046800D03*
X139379800Y-92506800D03*
X139379800Y-89966800D03*
X139379800Y-87426800D03*
X139379800Y-84886800D03*
X139379800Y-82346800D03*
X126679800Y-82346800D03*
X126679800Y-84886800D03*
X126679800Y-87426800D03*
X126679800Y-89966800D03*
X126679800Y-92506800D03*
X126679800Y-95046800D03*
X126679800Y-97586800D03*
X126679800Y-100126800D03*
%TD*%
D10*
%TO.C,C5*%
X100701000Y-107960000D03*
X107305000Y-107960000D03*
%TD*%
%TO.C,C6*%
X129768600Y-107797600D03*
X136372600Y-107797600D03*
%TD*%
D22*
%TO.C,A4*%
X168722200Y-133248400D03*
D23*
X168722200Y-130708400D03*
X168722200Y-128168400D03*
X168722200Y-125628400D03*
X168722200Y-123088400D03*
X168722200Y-120548400D03*
X168722200Y-118008400D03*
X168722200Y-115468400D03*
X156022200Y-115468400D03*
X156022200Y-118008400D03*
X156022200Y-120548400D03*
X156022200Y-123088400D03*
X156022200Y-125628400D03*
X156022200Y-128168400D03*
X156022200Y-130708400D03*
X156022200Y-133248400D03*
%TD*%
D11*
%TO.C,R17*%
X121916500Y-81788000D03*
X123741500Y-81788000D03*
%TD*%
D12*
%TO.C,JP17*%
X122159000Y-120599200D03*
D13*
X123459000Y-120599200D03*
%TD*%
D12*
%TO.C,JP14*%
X122180900Y-87426800D03*
D13*
X123480900Y-87426800D03*
%TD*%
D18*
%TO.C,R7*%
X94653900Y-133360000D03*
X92828900Y-133360000D03*
%TD*%
%TO.C,R14*%
X123741500Y-100126800D03*
X121916500Y-100126800D03*
%TD*%
D26*
%TO.C,C9*%
X143505400Y-72796400D03*
X138505400Y-72796400D03*
%TD*%
D12*
%TO.C,JP10*%
X151521400Y-117703600D03*
D13*
X152821400Y-117703600D03*
%TD*%
D12*
%TO.C,JP3*%
X93101400Y-90281600D03*
D13*
X94401400Y-90281600D03*
%TD*%
M02*
