M48
; DRILL file {KiCad (6.0.2)} date Wed Feb 23 19:09:49 2022
; FORMAT={-:-/ absolute / inch / decimal}
; #@! TF.CreationDate,2022-02-23T19:09:49-05:00
; #@! TF.GenerationSoftware,Kicad,Pcbnew,(6.0.2)
; #@! TF.FileFunction,Plated,1,4,PTH
FMAT,2
INCH
; #@! TA.AperFunction,Plated,PTH,ViaDrill
T1C0.0157
; #@! TA.AperFunction,Plated,PTH,ComponentDrill
T2C0.0315
; #@! TA.AperFunction,Plated,PTH,ComponentDrill
T3C0.0394
; #@! TA.AperFunction,Plated,PTH,ComponentDrill
T4C0.0512
; #@! TA.AperFunction,Plated,PTH,ComponentDrill
T5C0.0630
; #@! TA.AperFunction,Plated,PTH,ComponentDrill
T6C0.1260
%
G90
G05
T1
X3.608Y-5.25
X3.609Y-3.222
X3.609Y-3.846
X3.609Y-3.944
X3.609Y-4.53
X3.609Y-5.148
X3.64Y-2.26
X3.665Y-4.934
X3.667Y-3.632
X3.781Y-2.892
X3.933Y-5.284
X3.965Y-4.196
X4.039Y-2.892
X4.0396Y-2.6914
X4.225Y-4.196
X4.2506Y-2.8194
X4.287Y-3.944
X4.287Y-5.248
X4.753Y-3.222
X4.753Y-3.842
X4.753Y-3.944
X4.753Y-5.148
X4.753Y-5.246
X4.809Y-4.932
X4.813Y-3.632
X4.927Y-2.89
X5.107Y-4.188
X5.15Y-5.206
X5.181Y-2.692
X5.189Y-2.89
X5.275Y-2.78
X5.369Y-4.188
X5.404Y-2.817
X5.429Y-3.944
X5.433Y-5.25
X5.722Y-5.474
X5.722Y-5.576
X5.909Y-3.842
X5.909Y-3.942
X5.909Y-4.524
X5.9096Y-5.146
X5.9096Y-5.246
X5.911Y-3.22
X5.967Y-3.636
X5.967Y-4.934
X6.069Y-2.89
X6.267Y-4.194
X6.278Y-5.294
X6.317Y-2.696
X6.325Y-2.888
X6.527Y-4.192
X6.5381Y-2.8149
X6.585Y-5.248
X6.587Y-3.944
X6.8989Y-3.1601
X6.988Y-5.34
T2
X3.8442Y-4.5484
X3.8442Y-4.6484
X3.8442Y-4.7484
X3.8442Y-4.8484
X3.8442Y-4.9484
X3.8442Y-5.0484
X3.8442Y-5.1484
X3.8442Y-5.2484
X3.8446Y-3.2444
X3.8446Y-3.3444
X3.8446Y-3.4444
X3.8446Y-3.5444
X3.8446Y-3.6444
X3.8446Y-3.7444
X3.8446Y-3.8444
X3.8446Y-3.9444
X4.2986Y-2.8674
X4.3442Y-4.5484
X4.3442Y-4.6484
X4.3442Y-4.7484
X4.3442Y-4.8484
X4.3442Y-4.9484
X4.3442Y-5.0484
X4.3442Y-5.1484
X4.3442Y-5.2484
X4.3446Y-3.2444
X4.3446Y-3.3444
X4.3446Y-3.4444
X4.3446Y-3.5444
X4.3446Y-3.6444
X4.3446Y-3.7444
X4.3446Y-3.8444
X4.3446Y-3.9444
X4.4954Y-2.8674
X4.9874Y-3.242
X4.9874Y-3.342
X4.9874Y-3.442
X4.9874Y-3.542
X4.9874Y-3.642
X4.9874Y-3.742
X4.9874Y-3.842
X4.9874Y-3.942
X4.9886Y-4.548
X4.9886Y-4.648
X4.9886Y-4.748
X4.9886Y-4.848
X4.9886Y-4.948
X4.9886Y-5.048
X4.9886Y-5.148
X4.9886Y-5.248
X5.453Y-2.866
X5.4874Y-3.242
X5.4874Y-3.342
X5.4874Y-3.442
X5.4874Y-3.542
X5.4874Y-3.642
X5.4874Y-3.742
X5.4874Y-3.842
X5.4874Y-3.942
X5.4886Y-4.548
X5.4886Y-4.648
X5.4886Y-4.748
X5.4886Y-4.848
X5.4886Y-4.948
X5.4886Y-5.048
X5.4886Y-5.148
X5.4886Y-5.248
X5.6498Y-2.866
X6.1426Y-4.546
X6.1426Y-4.646
X6.1426Y-4.746
X6.1426Y-4.846
X6.1426Y-4.946
X6.1426Y-5.046
X6.1426Y-5.146
X6.1426Y-5.246
X6.143Y-3.242
X6.143Y-3.342
X6.143Y-3.442
X6.143Y-3.542
X6.143Y-3.642
X6.143Y-3.742
X6.143Y-3.842
X6.143Y-3.942
X6.5892Y-2.866
X6.6426Y-4.546
X6.6426Y-4.646
X6.6426Y-4.746
X6.6426Y-4.846
X6.6426Y-4.946
X6.6426Y-5.046
X6.6426Y-5.146
X6.6426Y-5.246
X6.643Y-3.242
X6.643Y-3.342
X6.643Y-3.442
X6.643Y-3.542
X6.643Y-3.642
X6.643Y-3.742
X6.643Y-3.842
X6.643Y-3.942
X6.7861Y-2.866
T3
X4.577Y-3.444
X4.577Y-3.544
X4.577Y-3.644
X4.577Y-3.744
X4.5786Y-4.748
X4.5786Y-4.848
X4.5786Y-4.948
X4.5786Y-5.048
X4.9616Y-5.4752
X4.9616Y-5.5752
X5.0616Y-5.4752
X5.0616Y-5.5752
X5.1616Y-5.4752
X5.1616Y-5.5752
X5.2616Y-5.4752
X5.2616Y-5.5752
X5.3616Y-5.4752
X5.3616Y-5.5752
X5.4616Y-5.4752
X5.4616Y-5.5752
X5.5616Y-5.4752
X5.5616Y-5.5752
X5.6616Y-5.4752
X5.6616Y-5.5752
X5.7198Y-3.442
X5.7198Y-3.542
X5.7198Y-3.642
X5.7198Y-3.742
X5.723Y-4.7476
X5.723Y-4.8476
X5.723Y-4.9476
X5.723Y-5.0476
X6.8754Y-3.4416
X6.8754Y-3.5416
X6.8754Y-3.6416
X6.8754Y-3.7416
X6.8773Y-4.7456
X6.8773Y-4.8456
X6.8773Y-4.9456
X6.8773Y-5.0456
T4
X4.3186Y-2.0647
X4.5154Y-2.0647
X5.4616Y-2.0647
X5.6584Y-2.0647
X6.5975Y-2.064
X6.7943Y-2.064
T5
X3.56Y-2.338
X7.064Y-5.264
T6
X3.56Y-2.02
X3.56Y-5.5239
X7.0639Y-2.02
X7.0639Y-5.5239
T0
M30
