%TF.GenerationSoftware,KiCad,Pcbnew,(6.0.2)*%
%TF.CreationDate,2022-02-23T19:08:17-05:00*%
%TF.ProjectId,SDP,5344502e-6b69-4636-9164-5f7063625858,rev?*%
%TF.SameCoordinates,Original*%
%TF.FileFunction,Soldermask,Bot*%
%TF.FilePolarity,Negative*%
%FSLAX46Y46*%
G04 Gerber Fmt 4.6, Leading zero omitted, Abs format (unit mm)*
G04 Created by KiCad (PCBNEW (6.0.2)) date 2022-02-23 19:08:17*
%MOMM*%
%LPD*%
G01*
G04 APERTURE LIST*
%ADD10R,1.700000X1.700000*%
%ADD11O,1.700000X1.700000*%
%ADD12C,6.400000*%
%ADD13R,1.498000X1.498000*%
%ADD14C,1.498000*%
%ADD15C,1.600000*%
%ADD16R,2.600000X2.600000*%
%ADD17C,2.600000*%
%ADD18C,2.800000*%
%ADD19C,3.250000*%
%ADD20R,1.398000X1.398000*%
%ADD21C,1.398000*%
%ADD22C,1.752600*%
%ADD23C,1.000000*%
G04 APERTURE END LIST*
D10*
%TO.C,J15*%
X93599000Y-47525000D03*
D11*
X93599000Y-50065000D03*
X93599000Y-52605000D03*
%TD*%
D10*
%TO.C,J27*%
X143637000Y-50044600D03*
D11*
X143637000Y-47504600D03*
X141097000Y-50044600D03*
X141097000Y-47504600D03*
X138557000Y-50044600D03*
X138557000Y-47504600D03*
X136017000Y-50044600D03*
X136017000Y-47504600D03*
X133477000Y-50044600D03*
X133477000Y-47504600D03*
X130937000Y-50044600D03*
X130937000Y-47504600D03*
X128397000Y-50044600D03*
X128397000Y-47504600D03*
X125857000Y-50044600D03*
X125857000Y-47504600D03*
%TD*%
D10*
%TO.C,J2*%
X88900000Y-47525000D03*
D11*
X88900000Y-50065000D03*
X88900000Y-52605000D03*
%TD*%
D10*
%TO.C,J24*%
X163957000Y-50038000D03*
D11*
X163957000Y-47498000D03*
X161417000Y-50038000D03*
X161417000Y-47498000D03*
X158877000Y-50038000D03*
X158877000Y-47498000D03*
X156337000Y-50038000D03*
X156337000Y-47498000D03*
X153797000Y-50038000D03*
X153797000Y-47498000D03*
X151257000Y-50038000D03*
X151257000Y-47498000D03*
X148717000Y-50038000D03*
X148717000Y-47498000D03*
%TD*%
D10*
%TO.C,J12*%
X171407000Y-101459200D03*
D11*
X171407000Y-98919200D03*
X171407000Y-96379200D03*
X171407000Y-93839200D03*
X171407000Y-91299200D03*
X171407000Y-88759200D03*
X171407000Y-86219200D03*
%TD*%
D12*
%TO.C,H3*%
X170788000Y-137668000D03*
%TD*%
D13*
%TO.C,SW1*%
X99436300Y-106401000D03*
D14*
X99436300Y-99901000D03*
X103936300Y-106401000D03*
X103936300Y-99901000D03*
%TD*%
D10*
%TO.C,J5*%
X89941000Y-80809000D03*
D11*
X89941000Y-83349000D03*
X89941000Y-85889000D03*
X89941000Y-88429000D03*
%TD*%
D12*
%TO.C,H2*%
X170788000Y-48668000D03*
%TD*%
D10*
%TO.C,J11*%
X165735000Y-101500000D03*
D11*
X165735000Y-98960000D03*
X165735000Y-96420000D03*
X165735000Y-93880000D03*
X165735000Y-91340000D03*
X165735000Y-88800000D03*
X165735000Y-86260000D03*
%TD*%
D15*
%TO.C,C40*%
X125526800Y-113499600D03*
X125526800Y-108499600D03*
%TD*%
D10*
%TO.C,J10*%
X108077000Y-50065000D03*
D11*
X108077000Y-47525000D03*
X110617000Y-50065000D03*
X110617000Y-47525000D03*
X113157000Y-50065000D03*
X113157000Y-47525000D03*
X115697000Y-50065000D03*
X115697000Y-47525000D03*
X118237000Y-50065000D03*
X118237000Y-47525000D03*
X120777000Y-50065000D03*
X120777000Y-47525000D03*
%TD*%
D10*
%TO.C,J13*%
X165786200Y-63400000D03*
D11*
X165786200Y-60860000D03*
X165786200Y-58320000D03*
%TD*%
D10*
%TO.C,J14*%
X171831000Y-63400000D03*
D11*
X171831000Y-60860000D03*
X171831000Y-58320000D03*
%TD*%
D16*
%TO.C,J26*%
X128259200Y-136610800D03*
D17*
X133259200Y-136610800D03*
%TD*%
D10*
%TO.C,J18*%
X152095200Y-106558400D03*
D11*
X152095200Y-109098400D03*
X154635200Y-106558400D03*
X154635200Y-109098400D03*
%TD*%
D18*
%TO.C,TP2*%
X81737200Y-130860800D03*
%TD*%
%TO.C,TP1*%
X159105600Y-56819800D03*
%TD*%
D10*
%TO.C,J6*%
X171856000Y-71040000D03*
D11*
X171856000Y-73580000D03*
X171856000Y-76120000D03*
X171856000Y-78660000D03*
%TD*%
D10*
%TO.C,J1*%
X80752000Y-75699000D03*
D11*
X83292000Y-75699000D03*
X80752000Y-73159000D03*
X83292000Y-73159000D03*
X80752000Y-70619000D03*
X83292000Y-70619000D03*
X80752000Y-68079000D03*
X83292000Y-68079000D03*
X80752000Y-65539000D03*
X83292000Y-65539000D03*
X80752000Y-62999000D03*
X83292000Y-62999000D03*
X80752000Y-60459000D03*
X83292000Y-60459000D03*
%TD*%
D19*
%TO.C,J7*%
X85506500Y-95272000D03*
X85506500Y-105432000D03*
D20*
X94396500Y-97182000D03*
D21*
X91856500Y-98452000D03*
X94396500Y-99722000D03*
X91856500Y-100992000D03*
X94396500Y-102262000D03*
X91856500Y-103532000D03*
%TD*%
D10*
%TO.C,J25*%
X165862000Y-71020000D03*
D11*
X165862000Y-73560000D03*
X165862000Y-76100000D03*
X165862000Y-78640000D03*
%TD*%
D12*
%TO.C,H1*%
X81788000Y-48668000D03*
%TD*%
D10*
%TO.C,J4*%
X165785800Y-106578400D03*
D11*
X165785800Y-109118400D03*
%TD*%
D10*
%TO.C,J3*%
X80879000Y-88409000D03*
D11*
X83419000Y-88409000D03*
X80879000Y-85869000D03*
X83419000Y-85869000D03*
X80879000Y-83329000D03*
X83419000Y-83329000D03*
X80879000Y-80789000D03*
X83419000Y-80789000D03*
%TD*%
D10*
%TO.C,J16*%
X102997000Y-47525000D03*
D11*
X102997000Y-50065000D03*
X102997000Y-52605000D03*
%TD*%
D12*
%TO.C,H4*%
X81788000Y-137668000D03*
%TD*%
D10*
%TO.C,J19*%
X160223200Y-106578400D03*
D11*
X160223200Y-109118400D03*
%TD*%
D10*
%TO.C,J8*%
X160147000Y-101500000D03*
D11*
X160147000Y-98960000D03*
X160147000Y-96420000D03*
X160147000Y-93880000D03*
X160147000Y-91340000D03*
X160147000Y-88800000D03*
X160147000Y-86260000D03*
%TD*%
D10*
%TO.C,J17*%
X98298000Y-47525000D03*
D11*
X98298000Y-50065000D03*
X98298000Y-52605000D03*
%TD*%
D22*
%TO.C,B1*%
X114173000Y-93499000D03*
X121666000Y-93499000D03*
%TD*%
D10*
%TO.C,J9*%
X154559000Y-101500000D03*
D11*
X154559000Y-98960000D03*
X154559000Y-96420000D03*
X154559000Y-93880000D03*
X154559000Y-91340000D03*
X154559000Y-88800000D03*
X154559000Y-86260000D03*
%TD*%
D15*
%TO.C,C39*%
X139700000Y-111784400D03*
X139700000Y-108284400D03*
%TD*%
D23*
%TO.C,Y2*%
X144170400Y-57205800D03*
X144170400Y-59105800D03*
%TD*%
D10*
%TO.C,J20*%
X83286600Y-55372000D03*
D11*
X80746600Y-55372000D03*
%TD*%
M02*
