%TF.GenerationSoftware,KiCad,Pcbnew,(6.0.2)*%
%TF.CreationDate,2022-02-23T19:08:17-05:00*%
%TF.ProjectId,SDP,5344502e-6b69-4636-9164-5f7063625858,rev?*%
%TF.SameCoordinates,Original*%
%TF.FileFunction,Paste,Top*%
%TF.FilePolarity,Positive*%
%FSLAX46Y46*%
G04 Gerber Fmt 4.6, Leading zero omitted, Abs format (unit mm)*
G04 Created by KiCad (PCBNEW (6.0.2)) date 2022-02-23 19:08:17*
%MOMM*%
%LPD*%
G01*
G04 APERTURE LIST*
G04 Aperture macros list*
%AMRoundRect*
0 Rectangle with rounded corners*
0 $1 Rounding radius*
0 $2 $3 $4 $5 $6 $7 $8 $9 X,Y pos of 4 corners*
0 Add a 4 corners polygon primitive as box body*
4,1,4,$2,$3,$4,$5,$6,$7,$8,$9,$2,$3,0*
0 Add four circle primitives for the rounded corners*
1,1,$1+$1,$2,$3*
1,1,$1+$1,$4,$5*
1,1,$1+$1,$6,$7*
1,1,$1+$1,$8,$9*
0 Add four rect primitives between the rounded corners*
20,1,$1+$1,$2,$3,$4,$5,0*
20,1,$1+$1,$4,$5,$6,$7,0*
20,1,$1+$1,$6,$7,$8,$9,0*
20,1,$1+$1,$8,$9,$2,$3,0*%
G04 Aperture macros list end*
%ADD10RoundRect,0.250000X-0.450000X0.262500X-0.450000X-0.262500X0.450000X-0.262500X0.450000X0.262500X0*%
%ADD11R,2.500000X1.800000*%
%ADD12RoundRect,0.250000X-0.475000X0.250000X-0.475000X-0.250000X0.475000X-0.250000X0.475000X0.250000X0*%
%ADD13R,3.860800X5.511800*%
%ADD14RoundRect,0.250000X0.450000X-0.262500X0.450000X0.262500X-0.450000X0.262500X-0.450000X-0.262500X0*%
%ADD15RoundRect,0.250000X0.262500X0.450000X-0.262500X0.450000X-0.262500X-0.450000X0.262500X-0.450000X0*%
%ADD16RoundRect,0.250000X-0.250000X-0.475000X0.250000X-0.475000X0.250000X0.475000X-0.250000X0.475000X0*%
%ADD17RoundRect,0.243750X0.456250X-0.243750X0.456250X0.243750X-0.456250X0.243750X-0.456250X-0.243750X0*%
%ADD18RoundRect,0.250000X0.375000X0.625000X-0.375000X0.625000X-0.375000X-0.625000X0.375000X-0.625000X0*%
%ADD19RoundRect,0.250000X0.650000X-0.325000X0.650000X0.325000X-0.650000X0.325000X-0.650000X-0.325000X0*%
%ADD20RoundRect,0.250000X0.475000X-0.250000X0.475000X0.250000X-0.475000X0.250000X-0.475000X-0.250000X0*%
%ADD21R,5.511800X3.860800*%
%ADD22RoundRect,0.250000X0.250000X0.475000X-0.250000X0.475000X-0.250000X-0.475000X0.250000X-0.475000X0*%
%ADD23R,2.000000X5.500000*%
%ADD24RoundRect,0.225000X-0.250000X0.225000X-0.250000X-0.225000X0.250000X-0.225000X0.250000X0.225000X0*%
%ADD25RoundRect,0.150000X-0.825000X-0.150000X0.825000X-0.150000X0.825000X0.150000X-0.825000X0.150000X0*%
%ADD26R,3.911600X1.498600*%
%ADD27RoundRect,0.150000X0.587500X0.150000X-0.587500X0.150000X-0.587500X-0.150000X0.587500X-0.150000X0*%
%ADD28R,5.400000X2.900000*%
%ADD29RoundRect,0.225000X0.225000X0.250000X-0.225000X0.250000X-0.225000X-0.250000X0.225000X-0.250000X0*%
%ADD30R,1.879600X0.533400*%
%ADD31RoundRect,0.243750X-0.456250X0.243750X-0.456250X-0.243750X0.456250X-0.243750X0.456250X0.243750X0*%
%ADD32RoundRect,0.225000X-0.225000X-0.250000X0.225000X-0.250000X0.225000X0.250000X-0.225000X0.250000X0*%
%ADD33R,1.473200X0.228600*%
%ADD34R,0.228600X1.473200*%
%ADD35R,5.105400X1.600200*%
%ADD36RoundRect,0.250000X-0.262500X-0.450000X0.262500X-0.450000X0.262500X0.450000X-0.262500X0.450000X0*%
%ADD37R,3.606800X2.590800*%
G04 APERTURE END LIST*
D10*
%TO.C,R14*%
X149758000Y-89846000D03*
X149758000Y-91671000D03*
%TD*%
D11*
%TO.C,D3*%
X156330400Y-128220800D03*
X152330400Y-128220800D03*
%TD*%
D12*
%TO.C,C18*%
X103505000Y-129506000D03*
X103505000Y-131406000D03*
%TD*%
D13*
%TO.C,L3*%
X130302000Y-124258400D03*
X140258800Y-124258400D03*
%TD*%
D14*
%TO.C,R4*%
X109169200Y-106527300D03*
X109169200Y-104702300D03*
%TD*%
%TO.C,R23*%
X115697000Y-55397100D03*
X115697000Y-53572100D03*
%TD*%
%TO.C,R25*%
X120777000Y-55397100D03*
X120777000Y-53572100D03*
%TD*%
D15*
%TO.C,R5*%
X173175300Y-132157800D03*
X171350300Y-132157800D03*
%TD*%
D16*
%TO.C,C15*%
X104333000Y-138203000D03*
X106233000Y-138203000D03*
%TD*%
D17*
%TO.C,D5*%
X116840000Y-79831500D03*
X116840000Y-77956500D03*
%TD*%
D18*
%TO.C,F1*%
X122445600Y-136610800D03*
X119645600Y-136610800D03*
%TD*%
D19*
%TO.C,C14*%
X91109800Y-132286600D03*
X91109800Y-129336600D03*
%TD*%
D20*
%TO.C,C23*%
X93345000Y-88099000D03*
X93345000Y-86199000D03*
%TD*%
D21*
%TO.C,L1*%
X167436800Y-125071200D03*
X167436800Y-115114400D03*
%TD*%
D11*
%TO.C,D4*%
X98774000Y-126900000D03*
X94774000Y-126900000D03*
%TD*%
D10*
%TO.C,R3*%
X144703800Y-137239700D03*
X144703800Y-139064700D03*
%TD*%
D14*
%TO.C,R6*%
X165862000Y-135534100D03*
X165862000Y-133709100D03*
%TD*%
D10*
%TO.C,R47*%
X103032500Y-94999500D03*
X103032500Y-96824500D03*
%TD*%
D22*
%TO.C,C1*%
X116520000Y-62765000D03*
X114620000Y-62765000D03*
%TD*%
D23*
%TO.C,Y1*%
X141732000Y-74881000D03*
X141732000Y-65381000D03*
%TD*%
D15*
%TO.C,R49*%
X134211700Y-113590400D03*
X132386700Y-113590400D03*
%TD*%
D12*
%TO.C,C20*%
X145796000Y-71467000D03*
X145796000Y-73367000D03*
%TD*%
D24*
%TO.C,C6*%
X128778000Y-79770000D03*
X128778000Y-81320000D03*
%TD*%
D25*
%TO.C,U2*%
X94299000Y-132107000D03*
X94299000Y-133377000D03*
X94299000Y-134647000D03*
X94299000Y-135917000D03*
X99249000Y-135917000D03*
X99249000Y-134647000D03*
X99249000Y-133377000D03*
X99249000Y-132107000D03*
%TD*%
D15*
%TO.C,R17*%
X145476600Y-97258400D03*
X143651600Y-97258400D03*
%TD*%
D14*
%TO.C,R24*%
X118237000Y-55397100D03*
X118237000Y-53572100D03*
%TD*%
D20*
%TO.C,C24*%
X141747200Y-57287200D03*
X141747200Y-55387200D03*
%TD*%
D12*
%TO.C,C22*%
X168910000Y-71338400D03*
X168910000Y-73238400D03*
%TD*%
D10*
%TO.C,R8*%
X114173000Y-129289500D03*
X114173000Y-131114500D03*
%TD*%
D26*
%TO.C,C13*%
X156864050Y-119102200D03*
X147770850Y-119102200D03*
%TD*%
D12*
%TO.C,C17*%
X91135200Y-135932200D03*
X91135200Y-137832200D03*
%TD*%
D14*
%TO.C,R48*%
X100365500Y-96824500D03*
X100365500Y-94999500D03*
%TD*%
D24*
%TO.C,C4*%
X122097800Y-79770000D03*
X122097800Y-81320000D03*
%TD*%
D14*
%TO.C,R21*%
X110617000Y-55397100D03*
X110617000Y-53572100D03*
%TD*%
D20*
%TO.C,C16*%
X103505000Y-135343000D03*
X103505000Y-133443000D03*
%TD*%
D10*
%TO.C,R9*%
X87630000Y-135918900D03*
X87630000Y-137743900D03*
%TD*%
D20*
%TO.C,C21*%
X145796000Y-69049000D03*
X145796000Y-67149000D03*
%TD*%
D27*
%TO.C,MOSFET1*%
X122095500Y-131726000D03*
X122095500Y-129826000D03*
X120220500Y-130776000D03*
%TD*%
D10*
%TO.C,R13*%
X149860000Y-75926000D03*
X149860000Y-77751000D03*
%TD*%
D25*
%TO.C,U1*%
X153017450Y-132437200D03*
X153017450Y-133707200D03*
X153017450Y-134977200D03*
X153017450Y-136247200D03*
X157967450Y-136247200D03*
X157967450Y-134977200D03*
X157967450Y-133707200D03*
X157967450Y-132437200D03*
%TD*%
D28*
%TO.C,L2*%
X109093000Y-125754000D03*
X109093000Y-115854000D03*
%TD*%
D24*
%TO.C,C5*%
X125222000Y-79770000D03*
X125222000Y-81320000D03*
%TD*%
D14*
%TO.C,R20*%
X108077000Y-55397100D03*
X108077000Y-53572100D03*
%TD*%
D29*
%TO.C,C3*%
X116141800Y-71553400D03*
X114591800Y-71553400D03*
%TD*%
D30*
%TO.C,U4*%
X140538200Y-99925400D03*
X140538200Y-98655400D03*
X140538200Y-97385400D03*
X140538200Y-96115400D03*
X140538200Y-94845400D03*
X140538200Y-93575400D03*
X140538200Y-92305400D03*
X140538200Y-91035400D03*
X131064000Y-91035400D03*
X131064000Y-92305400D03*
X131064000Y-93575400D03*
X131064000Y-94845400D03*
X131064000Y-96115400D03*
X131064000Y-97385400D03*
X131064000Y-98655400D03*
X131064000Y-99925400D03*
%TD*%
D29*
%TO.C,C2*%
X116179600Y-65965400D03*
X114629600Y-65965400D03*
%TD*%
D20*
%TO.C,C10*%
X162306000Y-135622400D03*
X162306000Y-133722400D03*
%TD*%
D15*
%TO.C,R16*%
X145476600Y-99544400D03*
X143651600Y-99544400D03*
%TD*%
D14*
%TO.C,R12*%
X149860000Y-81561000D03*
X149860000Y-79736000D03*
%TD*%
%TO.C,R22*%
X113157000Y-55397100D03*
X113157000Y-53572100D03*
%TD*%
D31*
%TO.C,D1*%
X109102200Y-108555300D03*
X109102200Y-110430300D03*
%TD*%
D15*
%TO.C,R10*%
X114196500Y-133250000D03*
X112371500Y-133250000D03*
%TD*%
D10*
%TO.C,R2*%
X172974000Y-128222700D03*
X172974000Y-130047700D03*
%TD*%
D32*
%TO.C,C7*%
X136004000Y-71401000D03*
X137554000Y-71401000D03*
%TD*%
D33*
%TO.C,U3*%
X118859300Y-65584999D03*
X118859300Y-65985001D03*
X118859300Y-66385000D03*
X118859300Y-66785000D03*
X118859300Y-67185001D03*
X118859300Y-67585001D03*
X118859300Y-67985000D03*
X118859300Y-68384999D03*
X118859300Y-68785001D03*
X118859300Y-69185000D03*
X118859300Y-69584999D03*
X118859300Y-69985001D03*
X118859300Y-70385000D03*
X118859300Y-70784999D03*
X118859300Y-71185001D03*
X118859300Y-71585000D03*
X118859300Y-71984999D03*
X118859300Y-72384999D03*
X118859300Y-72785000D03*
X118859300Y-73184999D03*
X118859300Y-73584999D03*
X118859300Y-73985000D03*
X118859300Y-74385000D03*
X118859300Y-74784999D03*
X118859300Y-75185001D03*
D34*
X120675999Y-77001700D03*
X121076001Y-77001700D03*
X121476000Y-77001700D03*
X121876000Y-77001700D03*
X122276001Y-77001700D03*
X122676001Y-77001700D03*
X123076000Y-77001700D03*
X123475999Y-77001700D03*
X123876001Y-77001700D03*
X124276000Y-77001700D03*
X124675999Y-77001700D03*
X125076001Y-77001700D03*
X125476000Y-77001700D03*
X125875999Y-77001700D03*
X126276001Y-77001700D03*
X126676000Y-77001700D03*
X127075999Y-77001700D03*
X127475999Y-77001700D03*
X127876000Y-77001700D03*
X128275999Y-77001700D03*
X128675999Y-77001700D03*
X129076000Y-77001700D03*
X129476000Y-77001700D03*
X129875999Y-77001700D03*
X130275998Y-77001700D03*
D33*
X132092700Y-75185001D03*
X132092700Y-74784999D03*
X132092700Y-74385000D03*
X132092700Y-73985000D03*
X132092700Y-73584999D03*
X132092700Y-73184999D03*
X132092700Y-72785000D03*
X132092700Y-72385001D03*
X132092700Y-71984999D03*
X132092700Y-71585000D03*
X132092700Y-71185001D03*
X132092700Y-70784999D03*
X132092700Y-70385000D03*
X132092700Y-69985001D03*
X132092700Y-69584999D03*
X132092700Y-69185000D03*
X132092700Y-68785001D03*
X132092700Y-68385001D03*
X132092700Y-67985000D03*
X132092700Y-67585001D03*
X132092700Y-67185001D03*
X132092700Y-66785000D03*
X132092700Y-66385000D03*
X132092700Y-65985001D03*
X132092700Y-65585002D03*
D34*
X130276001Y-63768300D03*
X129875999Y-63768300D03*
X129476000Y-63768300D03*
X129076000Y-63768300D03*
X128675999Y-63768300D03*
X128275999Y-63768300D03*
X127876000Y-63768300D03*
X127476001Y-63768300D03*
X127075999Y-63768300D03*
X126676000Y-63768300D03*
X126276001Y-63768300D03*
X125875999Y-63768300D03*
X125476000Y-63768300D03*
X125076001Y-63768300D03*
X124675999Y-63768300D03*
X124276000Y-63768300D03*
X123876001Y-63768300D03*
X123476001Y-63768300D03*
X123076000Y-63768300D03*
X122676001Y-63768300D03*
X122276001Y-63768300D03*
X121876000Y-63768300D03*
X121476000Y-63768300D03*
X121076001Y-63768300D03*
X120676002Y-63768300D03*
%TD*%
D19*
%TO.C,C8*%
X148767800Y-133531200D03*
X148767800Y-130581200D03*
%TD*%
D10*
%TO.C,R7*%
X87630000Y-132210500D03*
X87630000Y-134035500D03*
%TD*%
D12*
%TO.C,C12*%
X162306000Y-129861600D03*
X162306000Y-131761600D03*
%TD*%
D35*
%TO.C,C19*%
X98425000Y-116562200D03*
X87503000Y-116562200D03*
%TD*%
D11*
%TO.C,D2*%
X123107200Y-124258400D03*
X119107200Y-124258400D03*
%TD*%
D36*
%TO.C,R18*%
X100179500Y-92737000D03*
X102004500Y-92737000D03*
%TD*%
D37*
%TO.C,B1*%
X110020100Y-93499000D03*
X125818900Y-93499000D03*
%TD*%
D20*
%TO.C,C27*%
X127381000Y-59270000D03*
X127381000Y-57370000D03*
%TD*%
D12*
%TO.C,C25*%
X141747200Y-59044800D03*
X141747200Y-60944800D03*
%TD*%
D16*
%TO.C,C9*%
X163083200Y-138406200D03*
X164983200Y-138406200D03*
%TD*%
D14*
%TO.C,R19*%
X114554000Y-79806500D03*
X114554000Y-77981500D03*
%TD*%
%TO.C,R15*%
X149783400Y-95481000D03*
X149783400Y-93656000D03*
%TD*%
D22*
%TO.C,C26*%
X138821200Y-102262000D03*
X136921200Y-102262000D03*
%TD*%
D10*
%TO.C,R1*%
X144703800Y-133429700D03*
X144703800Y-135254700D03*
%TD*%
D14*
%TO.C,R11*%
X107061000Y-135305500D03*
X107061000Y-133480500D03*
%TD*%
D12*
%TO.C,C11*%
X148767800Y-137202200D03*
X148767800Y-139102200D03*
%TD*%
M02*
