%TF.GenerationSoftware,KiCad,Pcbnew,(6.0.2)*%
%TF.CreationDate,2022-02-23T19:08:17-05:00*%
%TF.ProjectId,SDP,5344502e-6b69-4636-9164-5f7063625858,rev?*%
%TF.SameCoordinates,Original*%
%TF.FileFunction,Legend,Top*%
%TF.FilePolarity,Positive*%
%FSLAX46Y46*%
G04 Gerber Fmt 4.6, Leading zero omitted, Abs format (unit mm)*
G04 Created by KiCad (PCBNEW (6.0.2)) date 2022-02-23 19:08:17*
%MOMM*%
%LPD*%
G01*
G04 APERTURE LIST*
%ADD10C,0.150000*%
%ADD11C,0.120000*%
%ADD12C,0.127000*%
%ADD13C,0.200000*%
%ADD14C,0.400000*%
%ADD15C,0.100000*%
G04 APERTURE END LIST*
D10*
X158902400Y-111353600D02*
X158902400Y-112115600D01*
X173532800Y-54102000D02*
X173532800Y-55016400D01*
X161036000Y-82092800D02*
X153009600Y-82092800D01*
X104851200Y-57759600D02*
X104851200Y-56362600D01*
X164287200Y-55016400D02*
X164287200Y-54102000D01*
X171196000Y-54102000D02*
X173532800Y-54102000D01*
X87376000Y-56388000D02*
X87376000Y-57759600D01*
X167030400Y-112115600D02*
X167081200Y-112115600D01*
X100177600Y-57759600D02*
X104851200Y-57759600D01*
X164592000Y-82092800D02*
X173024800Y-82092800D01*
X153009600Y-82092800D02*
X153009600Y-82956400D01*
X164388800Y-112115600D02*
X167030400Y-112115600D01*
X173024800Y-82092800D02*
X173024800Y-82905600D01*
X167081200Y-112115600D02*
X167081200Y-111353600D01*
X158902400Y-112115600D02*
X161645600Y-112115600D01*
X87376000Y-57759600D02*
X91897200Y-57759600D01*
X164287200Y-54102000D02*
X166471600Y-54102000D01*
X146523295Y-106649828D02*
X147285200Y-106649828D01*
X146904247Y-107030780D02*
X146904247Y-106268876D01*
X148285200Y-107030780D02*
X147713771Y-107030780D01*
X147999485Y-107030780D02*
X147999485Y-106030780D01*
X147904247Y-106173638D01*
X147809009Y-106268876D01*
X147713771Y-106316495D01*
X148666152Y-106126019D02*
X148713771Y-106078400D01*
X148809009Y-106030780D01*
X149047104Y-106030780D01*
X149142342Y-106078400D01*
X149189961Y-106126019D01*
X149237580Y-106221257D01*
X149237580Y-106316495D01*
X149189961Y-106459352D01*
X148618533Y-107030780D01*
X149237580Y-107030780D01*
X149523295Y-106030780D02*
X149856628Y-107030780D01*
X150189961Y-106030780D01*
X162252209Y-51725580D02*
X162871257Y-51725580D01*
X162537923Y-52106533D01*
X162680780Y-52106533D01*
X162776019Y-52154152D01*
X162823638Y-52201771D01*
X162871257Y-52297009D01*
X162871257Y-52535104D01*
X162823638Y-52630342D01*
X162776019Y-52677961D01*
X162680780Y-52725580D01*
X162395066Y-52725580D01*
X162299828Y-52677961D01*
X162252209Y-52630342D01*
X163299828Y-52630342D02*
X163347447Y-52677961D01*
X163299828Y-52725580D01*
X163252209Y-52677961D01*
X163299828Y-52630342D01*
X163299828Y-52725580D01*
X163680780Y-51725580D02*
X164299828Y-51725580D01*
X163966495Y-52106533D01*
X164109352Y-52106533D01*
X164204590Y-52154152D01*
X164252209Y-52201771D01*
X164299828Y-52297009D01*
X164299828Y-52535104D01*
X164252209Y-52630342D01*
X164204590Y-52677961D01*
X164109352Y-52725580D01*
X163823638Y-52725580D01*
X163728400Y-52677961D01*
X163680780Y-52630342D01*
X164585542Y-51725580D02*
X164918876Y-52725580D01*
X165252209Y-51725580D01*
X161894971Y-109584285D02*
X162023542Y-109627142D01*
X162237828Y-109627142D01*
X162323542Y-109584285D01*
X162366400Y-109541428D01*
X162409257Y-109455714D01*
X162409257Y-109370000D01*
X162366400Y-109284285D01*
X162323542Y-109241428D01*
X162237828Y-109198571D01*
X162066400Y-109155714D01*
X161980685Y-109112857D01*
X161937828Y-109070000D01*
X161894971Y-108984285D01*
X161894971Y-108898571D01*
X161937828Y-108812857D01*
X161980685Y-108770000D01*
X162066400Y-108727142D01*
X162280685Y-108727142D01*
X162409257Y-108770000D01*
X163309257Y-109541428D02*
X163266400Y-109584285D01*
X163137828Y-109627142D01*
X163052114Y-109627142D01*
X162923542Y-109584285D01*
X162837828Y-109498571D01*
X162794971Y-109412857D01*
X162752114Y-109241428D01*
X162752114Y-109112857D01*
X162794971Y-108941428D01*
X162837828Y-108855714D01*
X162923542Y-108770000D01*
X163052114Y-108727142D01*
X163137828Y-108727142D01*
X163266400Y-108770000D01*
X163309257Y-108812857D01*
X164123542Y-109627142D02*
X163694971Y-109627142D01*
X163694971Y-108727142D01*
X161898942Y-106942685D02*
X162027514Y-106985542D01*
X162241800Y-106985542D01*
X162327514Y-106942685D01*
X162370371Y-106899828D01*
X162413228Y-106814114D01*
X162413228Y-106728400D01*
X162370371Y-106642685D01*
X162327514Y-106599828D01*
X162241800Y-106556971D01*
X162070371Y-106514114D01*
X161984657Y-106471257D01*
X161941800Y-106428400D01*
X161898942Y-106342685D01*
X161898942Y-106256971D01*
X161941800Y-106171257D01*
X161984657Y-106128400D01*
X162070371Y-106085542D01*
X162284657Y-106085542D01*
X162413228Y-106128400D01*
X162798942Y-106985542D02*
X162798942Y-106085542D01*
X163013228Y-106085542D01*
X163141800Y-106128400D01*
X163227514Y-106214114D01*
X163270371Y-106299828D01*
X163313228Y-106471257D01*
X163313228Y-106599828D01*
X163270371Y-106771257D01*
X163227514Y-106856971D01*
X163141800Y-106942685D01*
X163013228Y-106985542D01*
X162798942Y-106985542D01*
X163656085Y-106728400D02*
X164084657Y-106728400D01*
X163570371Y-106985542D02*
X163870371Y-106085542D01*
X164170371Y-106985542D01*
X153798876Y-52674780D02*
X153798876Y-51674780D01*
X154179828Y-51674780D01*
X154275066Y-51722400D01*
X154322685Y-51770019D01*
X154370304Y-51865257D01*
X154370304Y-52008114D01*
X154322685Y-52103352D01*
X154275066Y-52150971D01*
X154179828Y-52198590D01*
X153798876Y-52198590D01*
X154989352Y-51674780D02*
X155179828Y-51674780D01*
X155275066Y-51722400D01*
X155370304Y-51817638D01*
X155417923Y-52008114D01*
X155417923Y-52341447D01*
X155370304Y-52531923D01*
X155275066Y-52627161D01*
X155179828Y-52674780D01*
X154989352Y-52674780D01*
X154894114Y-52627161D01*
X154798876Y-52531923D01*
X154751257Y-52341447D01*
X154751257Y-52008114D01*
X154798876Y-51817638D01*
X154894114Y-51722400D01*
X154989352Y-51674780D01*
X155751257Y-51674780D02*
X155989352Y-52674780D01*
X156179828Y-51960495D01*
X156370304Y-52674780D01*
X156608400Y-51674780D01*
X156989352Y-52150971D02*
X157322685Y-52150971D01*
X157465542Y-52674780D02*
X156989352Y-52674780D01*
X156989352Y-51674780D01*
X157465542Y-51674780D01*
X158465542Y-52674780D02*
X158132209Y-52198590D01*
X157894114Y-52674780D02*
X157894114Y-51674780D01*
X158275066Y-51674780D01*
X158370304Y-51722400D01*
X158417923Y-51770019D01*
X158465542Y-51865257D01*
X158465542Y-52008114D01*
X158417923Y-52103352D01*
X158370304Y-52150971D01*
X158275066Y-52198590D01*
X157894114Y-52198590D01*
X148082095Y-108770800D02*
X147986857Y-108723180D01*
X147844000Y-108723180D01*
X147701142Y-108770800D01*
X147605904Y-108866038D01*
X147558285Y-108961276D01*
X147510666Y-109151752D01*
X147510666Y-109294609D01*
X147558285Y-109485085D01*
X147605904Y-109580323D01*
X147701142Y-109675561D01*
X147844000Y-109723180D01*
X147939238Y-109723180D01*
X148082095Y-109675561D01*
X148129714Y-109627942D01*
X148129714Y-109294609D01*
X147939238Y-109294609D01*
X148558285Y-109723180D02*
X148558285Y-108723180D01*
X149129714Y-109723180D01*
X149129714Y-108723180D01*
X149605904Y-109723180D02*
X149605904Y-108723180D01*
X149844000Y-108723180D01*
X149986857Y-108770800D01*
X150082095Y-108866038D01*
X150129714Y-108961276D01*
X150177333Y-109151752D01*
X150177333Y-109294609D01*
X150129714Y-109485085D01*
X150082095Y-109580323D01*
X149986857Y-109675561D01*
X149844000Y-109723180D01*
X149605904Y-109723180D01*
X158267495Y-59291600D02*
X158172257Y-59243980D01*
X158029400Y-59243980D01*
X157886542Y-59291600D01*
X157791304Y-59386838D01*
X157743685Y-59482076D01*
X157696066Y-59672552D01*
X157696066Y-59815409D01*
X157743685Y-60005885D01*
X157791304Y-60101123D01*
X157886542Y-60196361D01*
X158029400Y-60243980D01*
X158124638Y-60243980D01*
X158267495Y-60196361D01*
X158315114Y-60148742D01*
X158315114Y-59815409D01*
X158124638Y-59815409D01*
X158743685Y-60243980D02*
X158743685Y-59243980D01*
X159315114Y-60243980D01*
X159315114Y-59243980D01*
X159791304Y-60243980D02*
X159791304Y-59243980D01*
X160029400Y-59243980D01*
X160172257Y-59291600D01*
X160267495Y-59386838D01*
X160315114Y-59482076D01*
X160362733Y-59672552D01*
X160362733Y-59815409D01*
X160315114Y-60005885D01*
X160267495Y-60101123D01*
X160172257Y-60196361D01*
X160029400Y-60243980D01*
X159791304Y-60243980D01*
X124866438Y-124364742D02*
X125475961Y-124364742D01*
X125171200Y-124669504D02*
X125171200Y-124059980D01*
X132510495Y-52674780D02*
X132510495Y-51674780D01*
X132843828Y-52389066D01*
X133177161Y-51674780D01*
X133177161Y-52674780D01*
X133843828Y-51674780D02*
X134034304Y-51674780D01*
X134129542Y-51722400D01*
X134224780Y-51817638D01*
X134272400Y-52008114D01*
X134272400Y-52341447D01*
X134224780Y-52531923D01*
X134129542Y-52627161D01*
X134034304Y-52674780D01*
X133843828Y-52674780D01*
X133748590Y-52627161D01*
X133653352Y-52531923D01*
X133605733Y-52341447D01*
X133605733Y-52008114D01*
X133653352Y-51817638D01*
X133748590Y-51722400D01*
X133843828Y-51674780D01*
X134558114Y-51674780D02*
X135129542Y-51674780D01*
X134843828Y-52674780D02*
X134843828Y-51674780D01*
X135653352Y-51674780D02*
X135843828Y-51674780D01*
X135939066Y-51722400D01*
X136034304Y-51817638D01*
X136081923Y-52008114D01*
X136081923Y-52341447D01*
X136034304Y-52531923D01*
X135939066Y-52627161D01*
X135843828Y-52674780D01*
X135653352Y-52674780D01*
X135558114Y-52627161D01*
X135462876Y-52531923D01*
X135415257Y-52341447D01*
X135415257Y-52008114D01*
X135462876Y-51817638D01*
X135558114Y-51722400D01*
X135653352Y-51674780D01*
X137081923Y-52674780D02*
X136748590Y-52198590D01*
X136510495Y-52674780D02*
X136510495Y-51674780D01*
X136891447Y-51674780D01*
X136986685Y-51722400D01*
X137034304Y-51770019D01*
X137081923Y-51865257D01*
X137081923Y-52008114D01*
X137034304Y-52103352D01*
X136986685Y-52150971D01*
X136891447Y-52198590D01*
X136510495Y-52198590D01*
X166975066Y-53503580D02*
X167546495Y-53503580D01*
X167260780Y-54503580D02*
X167260780Y-53503580D01*
X168260780Y-54455961D02*
X168165542Y-54503580D01*
X167975066Y-54503580D01*
X167879828Y-54455961D01*
X167832209Y-54360723D01*
X167832209Y-53979771D01*
X167879828Y-53884533D01*
X167975066Y-53836914D01*
X168165542Y-53836914D01*
X168260780Y-53884533D01*
X168308400Y-53979771D01*
X168308400Y-54075009D01*
X167832209Y-54170247D01*
X168736971Y-54503580D02*
X168736971Y-53836914D01*
X168736971Y-53932152D02*
X168784590Y-53884533D01*
X168879828Y-53836914D01*
X169022685Y-53836914D01*
X169117923Y-53884533D01*
X169165542Y-53979771D01*
X169165542Y-54503580D01*
X169165542Y-53979771D02*
X169213161Y-53884533D01*
X169308400Y-53836914D01*
X169451257Y-53836914D01*
X169546495Y-53884533D01*
X169594114Y-53979771D01*
X169594114Y-54503580D01*
X170070304Y-53836914D02*
X170070304Y-54836914D01*
X170070304Y-53884533D02*
X170165542Y-53836914D01*
X170356019Y-53836914D01*
X170451257Y-53884533D01*
X170498876Y-53932152D01*
X170546495Y-54027390D01*
X170546495Y-54313104D01*
X170498876Y-54408342D01*
X170451257Y-54455961D01*
X170356019Y-54503580D01*
X170165542Y-54503580D01*
X170070304Y-54455961D01*
X79732476Y-53436780D02*
X79732476Y-52436780D01*
X80113428Y-52436780D01*
X80208666Y-52484400D01*
X80256285Y-52532019D01*
X80303904Y-52627257D01*
X80303904Y-52770114D01*
X80256285Y-52865352D01*
X80208666Y-52912971D01*
X80113428Y-52960590D01*
X79732476Y-52960590D01*
X80922952Y-52436780D02*
X81113428Y-52436780D01*
X81208666Y-52484400D01*
X81303904Y-52579638D01*
X81351523Y-52770114D01*
X81351523Y-53103447D01*
X81303904Y-53293923D01*
X81208666Y-53389161D01*
X81113428Y-53436780D01*
X80922952Y-53436780D01*
X80827714Y-53389161D01*
X80732476Y-53293923D01*
X80684857Y-53103447D01*
X80684857Y-52770114D01*
X80732476Y-52579638D01*
X80827714Y-52484400D01*
X80922952Y-52436780D01*
X81684857Y-52436780D02*
X81922952Y-53436780D01*
X82113428Y-52722495D01*
X82303904Y-53436780D01*
X82542000Y-52436780D01*
X82922952Y-52912971D02*
X83256285Y-52912971D01*
X83399142Y-53436780D02*
X82922952Y-53436780D01*
X82922952Y-52436780D01*
X83399142Y-52436780D01*
X84399142Y-53436780D02*
X84065809Y-52960590D01*
X83827714Y-53436780D02*
X83827714Y-52436780D01*
X84208666Y-52436780D01*
X84303904Y-52484400D01*
X84351523Y-52532019D01*
X84399142Y-52627257D01*
X84399142Y-52770114D01*
X84351523Y-52865352D01*
X84303904Y-52912971D01*
X84208666Y-52960590D01*
X83827714Y-52960590D01*
X100482438Y-127006342D02*
X101091961Y-127006342D01*
X100787200Y-127311104D02*
X100787200Y-126701580D01*
X80497561Y-77785980D02*
X80497561Y-78595504D01*
X80545180Y-78690742D01*
X80592800Y-78738361D01*
X80688038Y-78785980D01*
X80878514Y-78785980D01*
X80973752Y-78738361D01*
X81021371Y-78690742D01*
X81068990Y-78595504D01*
X81068990Y-77785980D01*
X81497561Y-78500266D02*
X81973752Y-78500266D01*
X81402323Y-78785980D02*
X81735657Y-77785980D01*
X82068990Y-78785980D01*
X82973752Y-78785980D02*
X82640419Y-78309790D01*
X82402323Y-78785980D02*
X82402323Y-77785980D01*
X82783276Y-77785980D01*
X82878514Y-77833600D01*
X82926133Y-77881219D01*
X82973752Y-77976457D01*
X82973752Y-78119314D01*
X82926133Y-78214552D01*
X82878514Y-78262171D01*
X82783276Y-78309790D01*
X82402323Y-78309790D01*
X83259466Y-77785980D02*
X83830895Y-77785980D01*
X83545180Y-78785980D02*
X83545180Y-77785980D01*
X109778838Y-111207542D02*
X110388361Y-111207542D01*
X110083600Y-111512304D02*
X110083600Y-110902780D01*
X158038838Y-128327142D02*
X158648361Y-128327142D01*
X158343600Y-128631904D02*
X158343600Y-128022380D01*
X117500438Y-77171542D02*
X118109961Y-77171542D01*
X117805200Y-77476304D02*
X117805200Y-76866780D01*
X92418352Y-58186580D02*
X92418352Y-57186580D01*
X92799304Y-57186580D01*
X92894542Y-57234200D01*
X92942161Y-57281819D01*
X92989780Y-57377057D01*
X92989780Y-57519914D01*
X92942161Y-57615152D01*
X92894542Y-57662771D01*
X92799304Y-57710390D01*
X92418352Y-57710390D01*
X93989780Y-58186580D02*
X93656447Y-57710390D01*
X93418352Y-58186580D02*
X93418352Y-57186580D01*
X93799304Y-57186580D01*
X93894542Y-57234200D01*
X93942161Y-57281819D01*
X93989780Y-57377057D01*
X93989780Y-57519914D01*
X93942161Y-57615152D01*
X93894542Y-57662771D01*
X93799304Y-57710390D01*
X93418352Y-57710390D01*
X94608828Y-57186580D02*
X94799304Y-57186580D01*
X94894542Y-57234200D01*
X94989780Y-57329438D01*
X95037400Y-57519914D01*
X95037400Y-57853247D01*
X94989780Y-58043723D01*
X94894542Y-58138961D01*
X94799304Y-58186580D01*
X94608828Y-58186580D01*
X94513590Y-58138961D01*
X94418352Y-58043723D01*
X94370733Y-57853247D01*
X94370733Y-57519914D01*
X94418352Y-57329438D01*
X94513590Y-57234200D01*
X94608828Y-57186580D01*
X95370733Y-57186580D02*
X96037400Y-58186580D01*
X96037400Y-57186580D02*
X95370733Y-58186580D01*
X96418352Y-58186580D02*
X96418352Y-57186580D01*
X96894542Y-58186580D02*
X96894542Y-57186580D01*
X97227876Y-57900866D01*
X97561209Y-57186580D01*
X97561209Y-58186580D01*
X98037400Y-58186580D02*
X98037400Y-57186580D01*
X98370733Y-57186580D02*
X98942161Y-57186580D01*
X98656447Y-58186580D02*
X98656447Y-57186580D01*
X99465971Y-57710390D02*
X99465971Y-58186580D01*
X99132638Y-57186580D02*
X99465971Y-57710390D01*
X99799304Y-57186580D01*
X164647714Y-66974980D02*
X164314380Y-66498790D01*
X164076285Y-66974980D02*
X164076285Y-65974980D01*
X164457238Y-65974980D01*
X164552476Y-66022600D01*
X164600095Y-66070219D01*
X164647714Y-66165457D01*
X164647714Y-66308314D01*
X164600095Y-66403552D01*
X164552476Y-66451171D01*
X164457238Y-66498790D01*
X164076285Y-66498790D01*
X165457238Y-66927361D02*
X165362000Y-66974980D01*
X165171523Y-66974980D01*
X165076285Y-66927361D01*
X165028666Y-66832123D01*
X165028666Y-66451171D01*
X165076285Y-66355933D01*
X165171523Y-66308314D01*
X165362000Y-66308314D01*
X165457238Y-66355933D01*
X165504857Y-66451171D01*
X165504857Y-66546409D01*
X165028666Y-66641647D01*
X166076285Y-66974980D02*
X165981047Y-66927361D01*
X165933428Y-66832123D01*
X165933428Y-65974980D01*
X166885809Y-66974980D02*
X166885809Y-66451171D01*
X166838190Y-66355933D01*
X166742952Y-66308314D01*
X166552476Y-66308314D01*
X166457238Y-66355933D01*
X166885809Y-66927361D02*
X166790571Y-66974980D01*
X166552476Y-66974980D01*
X166457238Y-66927361D01*
X166409619Y-66832123D01*
X166409619Y-66736885D01*
X166457238Y-66641647D01*
X166552476Y-66594028D01*
X166790571Y-66594028D01*
X166885809Y-66546409D01*
X167266761Y-66308314D02*
X167504857Y-66974980D01*
X167742952Y-66308314D02*
X167504857Y-66974980D01*
X167409619Y-67213076D01*
X167362000Y-67260695D01*
X167266761Y-67308314D01*
X126652857Y-132958742D02*
X126652857Y-133601600D01*
X126610000Y-133730171D01*
X126524285Y-133815885D01*
X126395714Y-133858742D01*
X126310000Y-133858742D01*
X127510000Y-133858742D02*
X127081428Y-133858742D01*
X127081428Y-132958742D01*
X128324285Y-133773028D02*
X128281428Y-133815885D01*
X128152857Y-133858742D01*
X128067142Y-133858742D01*
X127938571Y-133815885D01*
X127852857Y-133730171D01*
X127810000Y-133644457D01*
X127767142Y-133473028D01*
X127767142Y-133344457D01*
X127810000Y-133173028D01*
X127852857Y-133087314D01*
X127938571Y-133001600D01*
X128067142Y-132958742D01*
X128152857Y-132958742D01*
X128281428Y-133001600D01*
X128324285Y-133044457D01*
X128967142Y-132958742D02*
X128967142Y-133601600D01*
X128924285Y-133730171D01*
X128838571Y-133815885D01*
X128710000Y-133858742D01*
X128624285Y-133858742D01*
X129824285Y-133858742D02*
X129395714Y-133858742D01*
X129395714Y-132958742D01*
X130638571Y-133773028D02*
X130595714Y-133815885D01*
X130467142Y-133858742D01*
X130381428Y-133858742D01*
X130252857Y-133815885D01*
X130167142Y-133730171D01*
X130124285Y-133644457D01*
X130081428Y-133473028D01*
X130081428Y-133344457D01*
X130124285Y-133173028D01*
X130167142Y-133087314D01*
X130252857Y-133001600D01*
X130381428Y-132958742D01*
X130467142Y-132958742D01*
X130595714Y-133001600D01*
X130638571Y-133044457D01*
X131281428Y-132958742D02*
X131281428Y-133601600D01*
X131238571Y-133730171D01*
X131152857Y-133815885D01*
X131024285Y-133858742D01*
X130938571Y-133858742D01*
X132138571Y-133858742D02*
X131710000Y-133858742D01*
X131710000Y-132958742D01*
X132952857Y-133773028D02*
X132910000Y-133815885D01*
X132781428Y-133858742D01*
X132695714Y-133858742D01*
X132567142Y-133815885D01*
X132481428Y-133730171D01*
X132438571Y-133644457D01*
X132395714Y-133473028D01*
X132395714Y-133344457D01*
X132438571Y-133173028D01*
X132481428Y-133087314D01*
X132567142Y-133001600D01*
X132695714Y-132958742D01*
X132781428Y-132958742D01*
X132910000Y-133001600D01*
X132952857Y-133044457D01*
X133595714Y-132958742D02*
X133595714Y-133601600D01*
X133552857Y-133730171D01*
X133467142Y-133815885D01*
X133338571Y-133858742D01*
X133252857Y-133858742D01*
X134452857Y-133858742D02*
X134024285Y-133858742D01*
X134024285Y-132958742D01*
X135267142Y-133773028D02*
X135224285Y-133815885D01*
X135095714Y-133858742D01*
X135010000Y-133858742D01*
X134881428Y-133815885D01*
X134795714Y-133730171D01*
X134752857Y-133644457D01*
X134710000Y-133473028D01*
X134710000Y-133344457D01*
X134752857Y-133173028D01*
X134795714Y-133087314D01*
X134881428Y-133001600D01*
X135010000Y-132958742D01*
X135095714Y-132958742D01*
X135224285Y-133001600D01*
X135267142Y-133044457D01*
X163271295Y-44915200D02*
X163176057Y-44867580D01*
X163033200Y-44867580D01*
X162890342Y-44915200D01*
X162795104Y-45010438D01*
X162747485Y-45105676D01*
X162699866Y-45296152D01*
X162699866Y-45439009D01*
X162747485Y-45629485D01*
X162795104Y-45724723D01*
X162890342Y-45819961D01*
X163033200Y-45867580D01*
X163128438Y-45867580D01*
X163271295Y-45819961D01*
X163318914Y-45772342D01*
X163318914Y-45439009D01*
X163128438Y-45439009D01*
X163747485Y-45867580D02*
X163747485Y-44867580D01*
X164318914Y-45867580D01*
X164318914Y-44867580D01*
X164795104Y-45867580D02*
X164795104Y-44867580D01*
X165033200Y-44867580D01*
X165176057Y-44915200D01*
X165271295Y-45010438D01*
X165318914Y-45105676D01*
X165366533Y-45296152D01*
X165366533Y-45439009D01*
X165318914Y-45629485D01*
X165271295Y-45724723D01*
X165176057Y-45819961D01*
X165033200Y-45867580D01*
X164795104Y-45867580D01*
X171267523Y-67101980D02*
X170791333Y-67101980D01*
X170791333Y-66101980D01*
X172172285Y-67006742D02*
X172124666Y-67054361D01*
X171981809Y-67101980D01*
X171886571Y-67101980D01*
X171743714Y-67054361D01*
X171648476Y-66959123D01*
X171600857Y-66863885D01*
X171553238Y-66673409D01*
X171553238Y-66530552D01*
X171600857Y-66340076D01*
X171648476Y-66244838D01*
X171743714Y-66149600D01*
X171886571Y-66101980D01*
X171981809Y-66101980D01*
X172124666Y-66149600D01*
X172172285Y-66197219D01*
X172600857Y-67101980D02*
X172600857Y-66101980D01*
X172838952Y-66101980D01*
X172981809Y-66149600D01*
X173077047Y-66244838D01*
X173124666Y-66340076D01*
X173172285Y-66530552D01*
X173172285Y-66673409D01*
X173124666Y-66863885D01*
X173077047Y-66959123D01*
X172981809Y-67054361D01*
X172838952Y-67101980D01*
X172600857Y-67101980D01*
X89606476Y-78211371D02*
X89749333Y-78258990D01*
X89796952Y-78306609D01*
X89844571Y-78401847D01*
X89844571Y-78544704D01*
X89796952Y-78639942D01*
X89749333Y-78687561D01*
X89654095Y-78735180D01*
X89273142Y-78735180D01*
X89273142Y-77735180D01*
X89606476Y-77735180D01*
X89701714Y-77782800D01*
X89749333Y-77830419D01*
X89796952Y-77925657D01*
X89796952Y-78020895D01*
X89749333Y-78116133D01*
X89701714Y-78163752D01*
X89606476Y-78211371D01*
X89273142Y-78211371D01*
X90130285Y-77735180D02*
X90701714Y-77735180D01*
X90416000Y-78735180D02*
X90416000Y-77735180D01*
X113307952Y-52674780D02*
X112831761Y-52674780D01*
X112831761Y-51674780D01*
X113641285Y-52674780D02*
X113641285Y-51674780D01*
X114117476Y-52674780D02*
X114117476Y-51674780D01*
X114450809Y-52389066D01*
X114784142Y-51674780D01*
X114784142Y-52674780D01*
X115260333Y-52674780D02*
X115260333Y-51674780D01*
X115593666Y-51674780D02*
X116165095Y-51674780D01*
X115879380Y-52674780D02*
X115879380Y-51674780D01*
X161626704Y-81595980D02*
X162198133Y-81595980D01*
X161912419Y-82595980D02*
X161912419Y-81595980D01*
X162721942Y-81595980D02*
X162912419Y-81595980D01*
X163007657Y-81643600D01*
X163102895Y-81738838D01*
X163150514Y-81929314D01*
X163150514Y-82262647D01*
X163102895Y-82453123D01*
X163007657Y-82548361D01*
X162912419Y-82595980D01*
X162721942Y-82595980D01*
X162626704Y-82548361D01*
X162531466Y-82453123D01*
X162483847Y-82262647D01*
X162483847Y-81929314D01*
X162531466Y-81738838D01*
X162626704Y-81643600D01*
X162721942Y-81595980D01*
X163912419Y-82072171D02*
X163579085Y-82072171D01*
X163579085Y-82595980D02*
X163579085Y-81595980D01*
X164055276Y-81595980D01*
X162091809Y-112567980D02*
X162091809Y-111567980D01*
X162520380Y-111663219D02*
X162568000Y-111615600D01*
X162663238Y-111567980D01*
X162901333Y-111567980D01*
X162996571Y-111615600D01*
X163044190Y-111663219D01*
X163091809Y-111758457D01*
X163091809Y-111853695D01*
X163044190Y-111996552D01*
X162472761Y-112567980D01*
X163091809Y-112567980D01*
X164091809Y-112472742D02*
X164044190Y-112520361D01*
X163901333Y-112567980D01*
X163806095Y-112567980D01*
X163663238Y-112520361D01*
X163568000Y-112425123D01*
X163520380Y-112329885D01*
X163472761Y-112139409D01*
X163472761Y-111996552D01*
X163520380Y-111806076D01*
X163568000Y-111710838D01*
X163663238Y-111615600D01*
X163806095Y-111567980D01*
X163901333Y-111567980D01*
X164044190Y-111615600D01*
X164091809Y-111663219D01*
X80965800Y-57513600D02*
X80870561Y-57465980D01*
X80727704Y-57465980D01*
X80584847Y-57513600D01*
X80489609Y-57608838D01*
X80441990Y-57704076D01*
X80394371Y-57894552D01*
X80394371Y-58037409D01*
X80441990Y-58227885D01*
X80489609Y-58323123D01*
X80584847Y-58418361D01*
X80727704Y-58465980D01*
X80822942Y-58465980D01*
X80965800Y-58418361D01*
X81013419Y-58370742D01*
X81013419Y-58037409D01*
X80822942Y-58037409D01*
X81441990Y-58465980D02*
X81441990Y-57465980D01*
X81822942Y-57465980D01*
X81918180Y-57513600D01*
X81965800Y-57561219D01*
X82013419Y-57656457D01*
X82013419Y-57799314D01*
X81965800Y-57894552D01*
X81918180Y-57942171D01*
X81822942Y-57989790D01*
X81441990Y-57989790D01*
X82441990Y-58465980D02*
X82441990Y-57465980D01*
X83108657Y-57465980D02*
X83299133Y-57465980D01*
X83394371Y-57513600D01*
X83489609Y-57608838D01*
X83537228Y-57799314D01*
X83537228Y-58132647D01*
X83489609Y-58323123D01*
X83394371Y-58418361D01*
X83299133Y-58465980D01*
X83108657Y-58465980D01*
X83013419Y-58418361D01*
X82918180Y-58323123D01*
X82870561Y-58132647D01*
X82870561Y-57799314D01*
X82918180Y-57608838D01*
X83013419Y-57513600D01*
X83108657Y-57465980D01*
X124231447Y-136621828D02*
X124993352Y-136621828D01*
X124612400Y-137002780D02*
X124612400Y-136240876D01*
X130140152Y-132125980D02*
X129568723Y-132125980D01*
X129854438Y-132125980D02*
X129854438Y-131125980D01*
X129759200Y-131268838D01*
X129663961Y-131364076D01*
X129568723Y-131411695D01*
X130521104Y-131221219D02*
X130568723Y-131173600D01*
X130663961Y-131125980D01*
X130902057Y-131125980D01*
X130997295Y-131173600D01*
X131044914Y-131221219D01*
X131092533Y-131316457D01*
X131092533Y-131411695D01*
X131044914Y-131554552D01*
X130473485Y-132125980D01*
X131092533Y-132125980D01*
X131378247Y-131125980D02*
X131711580Y-132125980D01*
X132044914Y-131125980D01*
X81000695Y-127414400D02*
X80905457Y-127366780D01*
X80762600Y-127366780D01*
X80619742Y-127414400D01*
X80524504Y-127509638D01*
X80476885Y-127604876D01*
X80429266Y-127795352D01*
X80429266Y-127938209D01*
X80476885Y-128128685D01*
X80524504Y-128223923D01*
X80619742Y-128319161D01*
X80762600Y-128366780D01*
X80857838Y-128366780D01*
X81000695Y-128319161D01*
X81048314Y-128271542D01*
X81048314Y-127938209D01*
X80857838Y-127938209D01*
X81476885Y-128366780D02*
X81476885Y-127366780D01*
X82048314Y-128366780D01*
X82048314Y-127366780D01*
X82524504Y-128366780D02*
X82524504Y-127366780D01*
X82762600Y-127366780D01*
X82905457Y-127414400D01*
X83000695Y-127509638D01*
X83048314Y-127604876D01*
X83095933Y-127795352D01*
X83095933Y-127938209D01*
X83048314Y-128128685D01*
X83000695Y-128223923D01*
X82905457Y-128319161D01*
X82762600Y-128366780D01*
X82524504Y-128366780D01*
X100198419Y-108961180D02*
X99865085Y-108484990D01*
X99626990Y-108961180D02*
X99626990Y-107961180D01*
X100007942Y-107961180D01*
X100103180Y-108008800D01*
X100150800Y-108056419D01*
X100198419Y-108151657D01*
X100198419Y-108294514D01*
X100150800Y-108389752D01*
X100103180Y-108437371D01*
X100007942Y-108484990D01*
X99626990Y-108484990D01*
X100626990Y-108437371D02*
X100960323Y-108437371D01*
X101103180Y-108961180D02*
X100626990Y-108961180D01*
X100626990Y-107961180D01*
X101103180Y-107961180D01*
X101484133Y-108913561D02*
X101626990Y-108961180D01*
X101865085Y-108961180D01*
X101960323Y-108913561D01*
X102007942Y-108865942D01*
X102055561Y-108770704D01*
X102055561Y-108675466D01*
X102007942Y-108580228D01*
X101960323Y-108532609D01*
X101865085Y-108484990D01*
X101674609Y-108437371D01*
X101579371Y-108389752D01*
X101531752Y-108342133D01*
X101484133Y-108246895D01*
X101484133Y-108151657D01*
X101531752Y-108056419D01*
X101579371Y-108008800D01*
X101674609Y-107961180D01*
X101912704Y-107961180D01*
X102055561Y-108008800D01*
X102484133Y-108437371D02*
X102817466Y-108437371D01*
X102960323Y-108961180D02*
X102484133Y-108961180D01*
X102484133Y-107961180D01*
X102960323Y-107961180D01*
X103246038Y-107961180D02*
X103817466Y-107961180D01*
X103531752Y-108961180D02*
X103531752Y-107961180D01*
%TO.C,R14*%
X151988380Y-91424857D02*
X151512190Y-91758190D01*
X151988380Y-91996285D02*
X150988380Y-91996285D01*
X150988380Y-91615333D01*
X151036000Y-91520095D01*
X151083619Y-91472476D01*
X151178857Y-91424857D01*
X151321714Y-91424857D01*
X151416952Y-91472476D01*
X151464571Y-91520095D01*
X151512190Y-91615333D01*
X151512190Y-91996285D01*
X151988380Y-90472476D02*
X151988380Y-91043904D01*
X151988380Y-90758190D02*
X150988380Y-90758190D01*
X151131238Y-90853428D01*
X151226476Y-90948666D01*
X151274095Y-91043904D01*
X151321714Y-89615333D02*
X151988380Y-89615333D01*
X150940761Y-89853428D02*
X151655047Y-90091523D01*
X151655047Y-89472476D01*
%TO.C,D3*%
X153592304Y-131314780D02*
X153592304Y-130314780D01*
X153830400Y-130314780D01*
X153973257Y-130362400D01*
X154068495Y-130457638D01*
X154116114Y-130552876D01*
X154163733Y-130743352D01*
X154163733Y-130886209D01*
X154116114Y-131076685D01*
X154068495Y-131171923D01*
X153973257Y-131267161D01*
X153830400Y-131314780D01*
X153592304Y-131314780D01*
X154497066Y-130314780D02*
X155116114Y-130314780D01*
X154782780Y-130695733D01*
X154925638Y-130695733D01*
X155020876Y-130743352D01*
X155068495Y-130790971D01*
X155116114Y-130886209D01*
X155116114Y-131124304D01*
X155068495Y-131219542D01*
X155020876Y-131267161D01*
X154925638Y-131314780D01*
X154639923Y-131314780D01*
X154544685Y-131267161D01*
X154497066Y-131219542D01*
%TO.C,J15*%
X92662476Y-54722780D02*
X92662476Y-55437066D01*
X92614857Y-55579923D01*
X92519619Y-55675161D01*
X92376761Y-55722780D01*
X92281523Y-55722780D01*
X93662476Y-55722780D02*
X93091047Y-55722780D01*
X93376761Y-55722780D02*
X93376761Y-54722780D01*
X93281523Y-54865638D01*
X93186285Y-54960876D01*
X93091047Y-55008495D01*
X94567238Y-54722780D02*
X94091047Y-54722780D01*
X94043428Y-55198971D01*
X94091047Y-55151352D01*
X94186285Y-55103733D01*
X94424380Y-55103733D01*
X94519619Y-55151352D01*
X94567238Y-55198971D01*
X94614857Y-55294209D01*
X94614857Y-55532304D01*
X94567238Y-55627542D01*
X94519619Y-55675161D01*
X94424380Y-55722780D01*
X94186285Y-55722780D01*
X94091047Y-55675161D01*
X94043428Y-55627542D01*
%TO.C,C18*%
X105542142Y-131098857D02*
X105589761Y-131146476D01*
X105637380Y-131289333D01*
X105637380Y-131384571D01*
X105589761Y-131527428D01*
X105494523Y-131622666D01*
X105399285Y-131670285D01*
X105208809Y-131717904D01*
X105065952Y-131717904D01*
X104875476Y-131670285D01*
X104780238Y-131622666D01*
X104685000Y-131527428D01*
X104637380Y-131384571D01*
X104637380Y-131289333D01*
X104685000Y-131146476D01*
X104732619Y-131098857D01*
X105637380Y-130146476D02*
X105637380Y-130717904D01*
X105637380Y-130432190D02*
X104637380Y-130432190D01*
X104780238Y-130527428D01*
X104875476Y-130622666D01*
X104923095Y-130717904D01*
X105065952Y-129575047D02*
X105018333Y-129670285D01*
X104970714Y-129717904D01*
X104875476Y-129765523D01*
X104827857Y-129765523D01*
X104732619Y-129717904D01*
X104685000Y-129670285D01*
X104637380Y-129575047D01*
X104637380Y-129384571D01*
X104685000Y-129289333D01*
X104732619Y-129241714D01*
X104827857Y-129194095D01*
X104875476Y-129194095D01*
X104970714Y-129241714D01*
X105018333Y-129289333D01*
X105065952Y-129384571D01*
X105065952Y-129575047D01*
X105113571Y-129670285D01*
X105161190Y-129717904D01*
X105256428Y-129765523D01*
X105446904Y-129765523D01*
X105542142Y-129717904D01*
X105589761Y-129670285D01*
X105637380Y-129575047D01*
X105637380Y-129384571D01*
X105589761Y-129289333D01*
X105542142Y-129241714D01*
X105446904Y-129194095D01*
X105256428Y-129194095D01*
X105161190Y-129241714D01*
X105113571Y-129289333D01*
X105065952Y-129384571D01*
%TO.C,L3*%
X135824933Y-117444780D02*
X135348742Y-117444780D01*
X135348742Y-116444780D01*
X136063028Y-116444780D02*
X136682076Y-116444780D01*
X136348742Y-116825733D01*
X136491600Y-116825733D01*
X136586838Y-116873352D01*
X136634457Y-116920971D01*
X136682076Y-117016209D01*
X136682076Y-117254304D01*
X136634457Y-117349542D01*
X136586838Y-117397161D01*
X136491600Y-117444780D01*
X136205885Y-117444780D01*
X136110647Y-117397161D01*
X136063028Y-117349542D01*
%TO.C,J27*%
X145603980Y-49780723D02*
X146318266Y-49780723D01*
X146461123Y-49828342D01*
X146556361Y-49923580D01*
X146603980Y-50066438D01*
X146603980Y-50161676D01*
X145699219Y-49352152D02*
X145651600Y-49304533D01*
X145603980Y-49209295D01*
X145603980Y-48971200D01*
X145651600Y-48875961D01*
X145699219Y-48828342D01*
X145794457Y-48780723D01*
X145889695Y-48780723D01*
X146032552Y-48828342D01*
X146603980Y-49399771D01*
X146603980Y-48780723D01*
X145603980Y-48447390D02*
X145603980Y-47780723D01*
X146603980Y-48209295D01*
%TO.C,R4*%
X111399580Y-105781466D02*
X110923390Y-106114800D01*
X111399580Y-106352895D02*
X110399580Y-106352895D01*
X110399580Y-105971942D01*
X110447200Y-105876704D01*
X110494819Y-105829085D01*
X110590057Y-105781466D01*
X110732914Y-105781466D01*
X110828152Y-105829085D01*
X110875771Y-105876704D01*
X110923390Y-105971942D01*
X110923390Y-106352895D01*
X110732914Y-104924323D02*
X111399580Y-104924323D01*
X110351961Y-105162419D02*
X111066247Y-105400514D01*
X111066247Y-104781466D01*
%TO.C,J2*%
X88515866Y-54697380D02*
X88515866Y-55411666D01*
X88468247Y-55554523D01*
X88373009Y-55649761D01*
X88230152Y-55697380D01*
X88134914Y-55697380D01*
X88944438Y-54792619D02*
X88992057Y-54745000D01*
X89087295Y-54697380D01*
X89325390Y-54697380D01*
X89420628Y-54745000D01*
X89468247Y-54792619D01*
X89515866Y-54887857D01*
X89515866Y-54983095D01*
X89468247Y-55125952D01*
X88896819Y-55697380D01*
X89515866Y-55697380D01*
%TO.C,R23*%
X116138980Y-58708857D02*
X115662790Y-59042190D01*
X116138980Y-59280285D02*
X115138980Y-59280285D01*
X115138980Y-58899333D01*
X115186600Y-58804095D01*
X115234219Y-58756476D01*
X115329457Y-58708857D01*
X115472314Y-58708857D01*
X115567552Y-58756476D01*
X115615171Y-58804095D01*
X115662790Y-58899333D01*
X115662790Y-59280285D01*
X115234219Y-58327904D02*
X115186600Y-58280285D01*
X115138980Y-58185047D01*
X115138980Y-57946952D01*
X115186600Y-57851714D01*
X115234219Y-57804095D01*
X115329457Y-57756476D01*
X115424695Y-57756476D01*
X115567552Y-57804095D01*
X116138980Y-58375523D01*
X116138980Y-57756476D01*
X115138980Y-57423142D02*
X115138980Y-56804095D01*
X115519933Y-57137428D01*
X115519933Y-56994571D01*
X115567552Y-56899333D01*
X115615171Y-56851714D01*
X115710409Y-56804095D01*
X115948504Y-56804095D01*
X116043742Y-56851714D01*
X116091361Y-56899333D01*
X116138980Y-56994571D01*
X116138980Y-57280285D01*
X116091361Y-57375523D01*
X116043742Y-57423142D01*
%TO.C,R25*%
X121218980Y-58658057D02*
X120742790Y-58991390D01*
X121218980Y-59229485D02*
X120218980Y-59229485D01*
X120218980Y-58848533D01*
X120266600Y-58753295D01*
X120314219Y-58705676D01*
X120409457Y-58658057D01*
X120552314Y-58658057D01*
X120647552Y-58705676D01*
X120695171Y-58753295D01*
X120742790Y-58848533D01*
X120742790Y-59229485D01*
X120314219Y-58277104D02*
X120266600Y-58229485D01*
X120218980Y-58134247D01*
X120218980Y-57896152D01*
X120266600Y-57800914D01*
X120314219Y-57753295D01*
X120409457Y-57705676D01*
X120504695Y-57705676D01*
X120647552Y-57753295D01*
X121218980Y-58324723D01*
X121218980Y-57705676D01*
X120218980Y-56800914D02*
X120218980Y-57277104D01*
X120695171Y-57324723D01*
X120647552Y-57277104D01*
X120599933Y-57181866D01*
X120599933Y-56943771D01*
X120647552Y-56848533D01*
X120695171Y-56800914D01*
X120790409Y-56753295D01*
X121028504Y-56753295D01*
X121123742Y-56800914D01*
X121171361Y-56848533D01*
X121218980Y-56943771D01*
X121218980Y-57181866D01*
X121171361Y-57277104D01*
X121123742Y-57324723D01*
%TO.C,R5*%
X170022780Y-132349866D02*
X169546590Y-132683200D01*
X170022780Y-132921295D02*
X169022780Y-132921295D01*
X169022780Y-132540342D01*
X169070400Y-132445104D01*
X169118019Y-132397485D01*
X169213257Y-132349866D01*
X169356114Y-132349866D01*
X169451352Y-132397485D01*
X169498971Y-132445104D01*
X169546590Y-132540342D01*
X169546590Y-132921295D01*
X169022780Y-131445104D02*
X169022780Y-131921295D01*
X169498971Y-131968914D01*
X169451352Y-131921295D01*
X169403733Y-131826057D01*
X169403733Y-131587961D01*
X169451352Y-131492723D01*
X169498971Y-131445104D01*
X169594209Y-131397485D01*
X169832304Y-131397485D01*
X169927542Y-131445104D01*
X169975161Y-131492723D01*
X170022780Y-131587961D01*
X170022780Y-131826057D01*
X169975161Y-131921295D01*
X169927542Y-131968914D01*
%TO.C,C15*%
X104640142Y-140465142D02*
X104592523Y-140512761D01*
X104449666Y-140560380D01*
X104354428Y-140560380D01*
X104211571Y-140512761D01*
X104116333Y-140417523D01*
X104068714Y-140322285D01*
X104021095Y-140131809D01*
X104021095Y-139988952D01*
X104068714Y-139798476D01*
X104116333Y-139703238D01*
X104211571Y-139608000D01*
X104354428Y-139560380D01*
X104449666Y-139560380D01*
X104592523Y-139608000D01*
X104640142Y-139655619D01*
X105592523Y-140560380D02*
X105021095Y-140560380D01*
X105306809Y-140560380D02*
X105306809Y-139560380D01*
X105211571Y-139703238D01*
X105116333Y-139798476D01*
X105021095Y-139846095D01*
X106497285Y-139560380D02*
X106021095Y-139560380D01*
X105973476Y-140036571D01*
X106021095Y-139988952D01*
X106116333Y-139941333D01*
X106354428Y-139941333D01*
X106449666Y-139988952D01*
X106497285Y-140036571D01*
X106544904Y-140131809D01*
X106544904Y-140369904D01*
X106497285Y-140465142D01*
X106449666Y-140512761D01*
X106354428Y-140560380D01*
X106116333Y-140560380D01*
X106021095Y-140512761D01*
X105973476Y-140465142D01*
%TO.C,D5*%
X119095780Y-79630495D02*
X118095780Y-79630495D01*
X118095780Y-79392400D01*
X118143400Y-79249542D01*
X118238638Y-79154304D01*
X118333876Y-79106685D01*
X118524352Y-79059066D01*
X118667209Y-79059066D01*
X118857685Y-79106685D01*
X118952923Y-79154304D01*
X119048161Y-79249542D01*
X119095780Y-79392400D01*
X119095780Y-79630495D01*
X118095780Y-78154304D02*
X118095780Y-78630495D01*
X118571971Y-78678114D01*
X118524352Y-78630495D01*
X118476733Y-78535257D01*
X118476733Y-78297161D01*
X118524352Y-78201923D01*
X118571971Y-78154304D01*
X118667209Y-78106685D01*
X118905304Y-78106685D01*
X119000542Y-78154304D01*
X119048161Y-78201923D01*
X119095780Y-78297161D01*
X119095780Y-78535257D01*
X119048161Y-78630495D01*
X119000542Y-78678114D01*
%TO.C,J24*%
X165923980Y-49679123D02*
X166638266Y-49679123D01*
X166781123Y-49726742D01*
X166876361Y-49821980D01*
X166923980Y-49964838D01*
X166923980Y-50060076D01*
X166019219Y-49250552D02*
X165971600Y-49202933D01*
X165923980Y-49107695D01*
X165923980Y-48869600D01*
X165971600Y-48774361D01*
X166019219Y-48726742D01*
X166114457Y-48679123D01*
X166209695Y-48679123D01*
X166352552Y-48726742D01*
X166923980Y-49298171D01*
X166923980Y-48679123D01*
X166257314Y-47821980D02*
X166923980Y-47821980D01*
X165876361Y-48060076D02*
X166590647Y-48298171D01*
X166590647Y-47679123D01*
%TO.C,J12*%
X170538876Y-83170780D02*
X170538876Y-83885066D01*
X170491257Y-84027923D01*
X170396019Y-84123161D01*
X170253161Y-84170780D01*
X170157923Y-84170780D01*
X171538876Y-84170780D02*
X170967447Y-84170780D01*
X171253161Y-84170780D02*
X171253161Y-83170780D01*
X171157923Y-83313638D01*
X171062685Y-83408876D01*
X170967447Y-83456495D01*
X171919828Y-83266019D02*
X171967447Y-83218400D01*
X172062685Y-83170780D01*
X172300780Y-83170780D01*
X172396019Y-83218400D01*
X172443638Y-83266019D01*
X172491257Y-83361257D01*
X172491257Y-83456495D01*
X172443638Y-83599352D01*
X171872209Y-84170780D01*
X172491257Y-84170780D01*
%TO.C,F1*%
X120712266Y-138359371D02*
X120378933Y-138359371D01*
X120378933Y-138883180D02*
X120378933Y-137883180D01*
X120855123Y-137883180D01*
X121759885Y-138883180D02*
X121188457Y-138883180D01*
X121474171Y-138883180D02*
X121474171Y-137883180D01*
X121378933Y-138026038D01*
X121283695Y-138121276D01*
X121188457Y-138168895D01*
%TO.C,C14*%
X89638142Y-131454457D02*
X89685761Y-131502076D01*
X89733380Y-131644933D01*
X89733380Y-131740171D01*
X89685761Y-131883028D01*
X89590523Y-131978266D01*
X89495285Y-132025885D01*
X89304809Y-132073504D01*
X89161952Y-132073504D01*
X88971476Y-132025885D01*
X88876238Y-131978266D01*
X88781000Y-131883028D01*
X88733380Y-131740171D01*
X88733380Y-131644933D01*
X88781000Y-131502076D01*
X88828619Y-131454457D01*
X89733380Y-130502076D02*
X89733380Y-131073504D01*
X89733380Y-130787790D02*
X88733380Y-130787790D01*
X88876238Y-130883028D01*
X88971476Y-130978266D01*
X89019095Y-131073504D01*
X89066714Y-129644933D02*
X89733380Y-129644933D01*
X88685761Y-129883028D02*
X89400047Y-130121123D01*
X89400047Y-129502076D01*
%TO.C,C23*%
X96267542Y-87791857D02*
X96315161Y-87839476D01*
X96362780Y-87982333D01*
X96362780Y-88077571D01*
X96315161Y-88220428D01*
X96219923Y-88315666D01*
X96124685Y-88363285D01*
X95934209Y-88410904D01*
X95791352Y-88410904D01*
X95600876Y-88363285D01*
X95505638Y-88315666D01*
X95410400Y-88220428D01*
X95362780Y-88077571D01*
X95362780Y-87982333D01*
X95410400Y-87839476D01*
X95458019Y-87791857D01*
X95458019Y-87410904D02*
X95410400Y-87363285D01*
X95362780Y-87268047D01*
X95362780Y-87029952D01*
X95410400Y-86934714D01*
X95458019Y-86887095D01*
X95553257Y-86839476D01*
X95648495Y-86839476D01*
X95791352Y-86887095D01*
X96362780Y-87458523D01*
X96362780Y-86839476D01*
X95362780Y-86506142D02*
X95362780Y-85887095D01*
X95743733Y-86220428D01*
X95743733Y-86077571D01*
X95791352Y-85982333D01*
X95838971Y-85934714D01*
X95934209Y-85887095D01*
X96172304Y-85887095D01*
X96267542Y-85934714D01*
X96315161Y-85982333D01*
X96362780Y-86077571D01*
X96362780Y-86363285D01*
X96315161Y-86458523D01*
X96267542Y-86506142D01*
%TO.C,L1*%
X167320933Y-128620780D02*
X166844742Y-128620780D01*
X166844742Y-127620780D01*
X168178076Y-128620780D02*
X167606647Y-128620780D01*
X167892361Y-128620780D02*
X167892361Y-127620780D01*
X167797123Y-127763638D01*
X167701885Y-127858876D01*
X167606647Y-127906495D01*
%TO.C,SW1*%
X105970060Y-103966457D02*
X106000090Y-103876365D01*
X106000090Y-103726212D01*
X105970060Y-103666151D01*
X105940029Y-103636120D01*
X105879968Y-103606089D01*
X105819907Y-103606089D01*
X105759845Y-103636120D01*
X105729815Y-103666151D01*
X105699784Y-103726212D01*
X105669754Y-103846334D01*
X105639723Y-103906396D01*
X105609692Y-103936426D01*
X105549631Y-103966457D01*
X105489570Y-103966457D01*
X105429509Y-103936426D01*
X105399478Y-103906396D01*
X105369447Y-103846334D01*
X105369447Y-103696181D01*
X105399478Y-103606089D01*
X105369447Y-103395875D02*
X106000090Y-103245722D01*
X105549631Y-103125600D01*
X106000090Y-103005477D01*
X105369447Y-102855324D01*
X106000090Y-102284742D02*
X106000090Y-102645110D01*
X106000090Y-102464926D02*
X105369447Y-102464926D01*
X105459539Y-102524987D01*
X105519600Y-102585048D01*
X105549631Y-102645110D01*
%TO.C,J5*%
X89658866Y-90460580D02*
X89658866Y-91174866D01*
X89611247Y-91317723D01*
X89516009Y-91412961D01*
X89373152Y-91460580D01*
X89277914Y-91460580D01*
X90611247Y-90460580D02*
X90135057Y-90460580D01*
X90087438Y-90936771D01*
X90135057Y-90889152D01*
X90230295Y-90841533D01*
X90468390Y-90841533D01*
X90563628Y-90889152D01*
X90611247Y-90936771D01*
X90658866Y-91032009D01*
X90658866Y-91270104D01*
X90611247Y-91365342D01*
X90563628Y-91412961D01*
X90468390Y-91460580D01*
X90230295Y-91460580D01*
X90135057Y-91412961D01*
X90087438Y-91365342D01*
%TO.C,D4*%
X96035904Y-129993980D02*
X96035904Y-128993980D01*
X96274000Y-128993980D01*
X96416857Y-129041600D01*
X96512095Y-129136838D01*
X96559714Y-129232076D01*
X96607333Y-129422552D01*
X96607333Y-129565409D01*
X96559714Y-129755885D01*
X96512095Y-129851123D01*
X96416857Y-129946361D01*
X96274000Y-129993980D01*
X96035904Y-129993980D01*
X97464476Y-129327314D02*
X97464476Y-129993980D01*
X97226380Y-128946361D02*
X96988285Y-129660647D01*
X97607333Y-129660647D01*
%TO.C,R3*%
X143403580Y-138344266D02*
X142927390Y-138677600D01*
X143403580Y-138915695D02*
X142403580Y-138915695D01*
X142403580Y-138534742D01*
X142451200Y-138439504D01*
X142498819Y-138391885D01*
X142594057Y-138344266D01*
X142736914Y-138344266D01*
X142832152Y-138391885D01*
X142879771Y-138439504D01*
X142927390Y-138534742D01*
X142927390Y-138915695D01*
X142403580Y-138010933D02*
X142403580Y-137391885D01*
X142784533Y-137725219D01*
X142784533Y-137582361D01*
X142832152Y-137487123D01*
X142879771Y-137439504D01*
X142975009Y-137391885D01*
X143213104Y-137391885D01*
X143308342Y-137439504D01*
X143355961Y-137487123D01*
X143403580Y-137582361D01*
X143403580Y-137868076D01*
X143355961Y-137963314D01*
X143308342Y-138010933D01*
%TO.C,J11*%
X164849276Y-83221580D02*
X164849276Y-83935866D01*
X164801657Y-84078723D01*
X164706419Y-84173961D01*
X164563561Y-84221580D01*
X164468323Y-84221580D01*
X165849276Y-84221580D02*
X165277847Y-84221580D01*
X165563561Y-84221580D02*
X165563561Y-83221580D01*
X165468323Y-83364438D01*
X165373085Y-83459676D01*
X165277847Y-83507295D01*
X166801657Y-84221580D02*
X166230228Y-84221580D01*
X166515942Y-84221580D02*
X166515942Y-83221580D01*
X166420704Y-83364438D01*
X166325466Y-83459676D01*
X166230228Y-83507295D01*
%TO.C,R6*%
X165752483Y-132406980D02*
X165419150Y-131930790D01*
X165181054Y-132406980D02*
X165181054Y-131406980D01*
X165562007Y-131406980D01*
X165657245Y-131454600D01*
X165704864Y-131502219D01*
X165752483Y-131597457D01*
X165752483Y-131740314D01*
X165704864Y-131835552D01*
X165657245Y-131883171D01*
X165562007Y-131930790D01*
X165181054Y-131930790D01*
X166609626Y-131406980D02*
X166419150Y-131406980D01*
X166323911Y-131454600D01*
X166276292Y-131502219D01*
X166181054Y-131645076D01*
X166133435Y-131835552D01*
X166133435Y-132216504D01*
X166181054Y-132311742D01*
X166228673Y-132359361D01*
X166323911Y-132406980D01*
X166514388Y-132406980D01*
X166609626Y-132359361D01*
X166657245Y-132311742D01*
X166704864Y-132216504D01*
X166704864Y-131978409D01*
X166657245Y-131883171D01*
X166609626Y-131835552D01*
X166514388Y-131787933D01*
X166323911Y-131787933D01*
X166228673Y-131835552D01*
X166181054Y-131883171D01*
X166133435Y-131978409D01*
%TO.C,R47*%
X105201980Y-96553257D02*
X104725790Y-96886590D01*
X105201980Y-97124685D02*
X104201980Y-97124685D01*
X104201980Y-96743733D01*
X104249600Y-96648495D01*
X104297219Y-96600876D01*
X104392457Y-96553257D01*
X104535314Y-96553257D01*
X104630552Y-96600876D01*
X104678171Y-96648495D01*
X104725790Y-96743733D01*
X104725790Y-97124685D01*
X104535314Y-95696114D02*
X105201980Y-95696114D01*
X104154361Y-95934209D02*
X104868647Y-96172304D01*
X104868647Y-95553257D01*
X104201980Y-95267542D02*
X104201980Y-94600876D01*
X105201980Y-95029447D01*
%TO.C,C40*%
X119633942Y-111642457D02*
X119681561Y-111690076D01*
X119729180Y-111832933D01*
X119729180Y-111928171D01*
X119681561Y-112071028D01*
X119586323Y-112166266D01*
X119491085Y-112213885D01*
X119300609Y-112261504D01*
X119157752Y-112261504D01*
X118967276Y-112213885D01*
X118872038Y-112166266D01*
X118776800Y-112071028D01*
X118729180Y-111928171D01*
X118729180Y-111832933D01*
X118776800Y-111690076D01*
X118824419Y-111642457D01*
X119062514Y-110785314D02*
X119729180Y-110785314D01*
X118681561Y-111023409D02*
X119395847Y-111261504D01*
X119395847Y-110642457D01*
X118729180Y-110071028D02*
X118729180Y-109975790D01*
X118776800Y-109880552D01*
X118824419Y-109832933D01*
X118919657Y-109785314D01*
X119110133Y-109737695D01*
X119348228Y-109737695D01*
X119538704Y-109785314D01*
X119633942Y-109832933D01*
X119681561Y-109880552D01*
X119729180Y-109975790D01*
X119729180Y-110071028D01*
X119681561Y-110166266D01*
X119633942Y-110213885D01*
X119538704Y-110261504D01*
X119348228Y-110309123D01*
X119110133Y-110309123D01*
X118919657Y-110261504D01*
X118824419Y-110213885D01*
X118776800Y-110166266D01*
X118729180Y-110071028D01*
%TO.C,J10*%
X122743980Y-49679123D02*
X123458266Y-49679123D01*
X123601123Y-49726742D01*
X123696361Y-49821980D01*
X123743980Y-49964838D01*
X123743980Y-50060076D01*
X123743980Y-48679123D02*
X123743980Y-49250552D01*
X123743980Y-48964838D02*
X122743980Y-48964838D01*
X122886838Y-49060076D01*
X122982076Y-49155314D01*
X123029695Y-49250552D01*
X122743980Y-48060076D02*
X122743980Y-47964838D01*
X122791600Y-47869600D01*
X122839219Y-47821980D01*
X122934457Y-47774361D01*
X123124933Y-47726742D01*
X123363028Y-47726742D01*
X123553504Y-47774361D01*
X123648742Y-47821980D01*
X123696361Y-47869600D01*
X123743980Y-47964838D01*
X123743980Y-48060076D01*
X123696361Y-48155314D01*
X123648742Y-48202933D01*
X123553504Y-48250552D01*
X123363028Y-48298171D01*
X123124933Y-48298171D01*
X122934457Y-48250552D01*
X122839219Y-48202933D01*
X122791600Y-48155314D01*
X122743980Y-48060076D01*
%TO.C,C1*%
X115403333Y-64874742D02*
X115355714Y-64922361D01*
X115212857Y-64969980D01*
X115117619Y-64969980D01*
X114974761Y-64922361D01*
X114879523Y-64827123D01*
X114831904Y-64731885D01*
X114784285Y-64541409D01*
X114784285Y-64398552D01*
X114831904Y-64208076D01*
X114879523Y-64112838D01*
X114974761Y-64017600D01*
X115117619Y-63969980D01*
X115212857Y-63969980D01*
X115355714Y-64017600D01*
X115403333Y-64065219D01*
X116355714Y-64969980D02*
X115784285Y-64969980D01*
X116070000Y-64969980D02*
X116070000Y-63969980D01*
X115974761Y-64112838D01*
X115879523Y-64208076D01*
X115784285Y-64255695D01*
%TO.C,Y1*%
X138411190Y-67584586D02*
X138787377Y-67584586D01*
X137997385Y-67847917D02*
X138411190Y-67584586D01*
X137997385Y-67321256D01*
X138787377Y-66644120D02*
X138787377Y-67095544D01*
X138787377Y-66869832D02*
X137997385Y-66869832D01*
X138110241Y-66945069D01*
X138185478Y-67020306D01*
X138223097Y-67095544D01*
%TO.C,J13*%
X164976676Y-55281580D02*
X164976676Y-55995866D01*
X164929057Y-56138723D01*
X164833819Y-56233961D01*
X164690961Y-56281580D01*
X164595723Y-56281580D01*
X165976676Y-56281580D02*
X165405247Y-56281580D01*
X165690961Y-56281580D02*
X165690961Y-55281580D01*
X165595723Y-55424438D01*
X165500485Y-55519676D01*
X165405247Y-55567295D01*
X166310009Y-55281580D02*
X166929057Y-55281580D01*
X166595723Y-55662533D01*
X166738580Y-55662533D01*
X166833819Y-55710152D01*
X166881438Y-55757771D01*
X166929057Y-55853009D01*
X166929057Y-56091104D01*
X166881438Y-56186342D01*
X166833819Y-56233961D01*
X166738580Y-56281580D01*
X166452866Y-56281580D01*
X166357628Y-56233961D01*
X166310009Y-56186342D01*
%TO.C,J14*%
X170996076Y-55332380D02*
X170996076Y-56046666D01*
X170948457Y-56189523D01*
X170853219Y-56284761D01*
X170710361Y-56332380D01*
X170615123Y-56332380D01*
X171996076Y-56332380D02*
X171424647Y-56332380D01*
X171710361Y-56332380D02*
X171710361Y-55332380D01*
X171615123Y-55475238D01*
X171519885Y-55570476D01*
X171424647Y-55618095D01*
X172853219Y-55665714D02*
X172853219Y-56332380D01*
X172615123Y-55284761D02*
X172377028Y-55999047D01*
X172996076Y-55999047D01*
%TO.C,R49*%
X132656342Y-115947780D02*
X132323009Y-115471590D01*
X132084914Y-115947780D02*
X132084914Y-114947780D01*
X132465866Y-114947780D01*
X132561104Y-114995400D01*
X132608723Y-115043019D01*
X132656342Y-115138257D01*
X132656342Y-115281114D01*
X132608723Y-115376352D01*
X132561104Y-115423971D01*
X132465866Y-115471590D01*
X132084914Y-115471590D01*
X133513485Y-115281114D02*
X133513485Y-115947780D01*
X133275390Y-114900161D02*
X133037295Y-115614447D01*
X133656342Y-115614447D01*
X134084914Y-115947780D02*
X134275390Y-115947780D01*
X134370628Y-115900161D01*
X134418247Y-115852542D01*
X134513485Y-115709685D01*
X134561104Y-115519209D01*
X134561104Y-115138257D01*
X134513485Y-115043019D01*
X134465866Y-114995400D01*
X134370628Y-114947780D01*
X134180152Y-114947780D01*
X134084914Y-114995400D01*
X134037295Y-115043019D01*
X133989676Y-115138257D01*
X133989676Y-115376352D01*
X134037295Y-115471590D01*
X134084914Y-115519209D01*
X134180152Y-115566828D01*
X134370628Y-115566828D01*
X134465866Y-115519209D01*
X134513485Y-115471590D01*
X134561104Y-115376352D01*
%TO.C,C20*%
X147931142Y-73059857D02*
X147978761Y-73107476D01*
X148026380Y-73250333D01*
X148026380Y-73345571D01*
X147978761Y-73488428D01*
X147883523Y-73583666D01*
X147788285Y-73631285D01*
X147597809Y-73678904D01*
X147454952Y-73678904D01*
X147264476Y-73631285D01*
X147169238Y-73583666D01*
X147074000Y-73488428D01*
X147026380Y-73345571D01*
X147026380Y-73250333D01*
X147074000Y-73107476D01*
X147121619Y-73059857D01*
X147121619Y-72678904D02*
X147074000Y-72631285D01*
X147026380Y-72536047D01*
X147026380Y-72297952D01*
X147074000Y-72202714D01*
X147121619Y-72155095D01*
X147216857Y-72107476D01*
X147312095Y-72107476D01*
X147454952Y-72155095D01*
X148026380Y-72726523D01*
X148026380Y-72107476D01*
X147026380Y-71488428D02*
X147026380Y-71393190D01*
X147074000Y-71297952D01*
X147121619Y-71250333D01*
X147216857Y-71202714D01*
X147407333Y-71155095D01*
X147645428Y-71155095D01*
X147835904Y-71202714D01*
X147931142Y-71250333D01*
X147978761Y-71297952D01*
X148026380Y-71393190D01*
X148026380Y-71488428D01*
X147978761Y-71583666D01*
X147931142Y-71631285D01*
X147835904Y-71678904D01*
X147645428Y-71726523D01*
X147407333Y-71726523D01*
X147216857Y-71678904D01*
X147121619Y-71631285D01*
X147074000Y-71583666D01*
X147026380Y-71488428D01*
%TO.C,J26*%
X137061676Y-136104380D02*
X137061676Y-136818666D01*
X137014057Y-136961523D01*
X136918819Y-137056761D01*
X136775961Y-137104380D01*
X136680723Y-137104380D01*
X137490247Y-136199619D02*
X137537866Y-136152000D01*
X137633104Y-136104380D01*
X137871200Y-136104380D01*
X137966438Y-136152000D01*
X138014057Y-136199619D01*
X138061676Y-136294857D01*
X138061676Y-136390095D01*
X138014057Y-136532952D01*
X137442628Y-137104380D01*
X138061676Y-137104380D01*
X138918819Y-136104380D02*
X138728342Y-136104380D01*
X138633104Y-136152000D01*
X138585485Y-136199619D01*
X138490247Y-136342476D01*
X138442628Y-136532952D01*
X138442628Y-136913904D01*
X138490247Y-137009142D01*
X138537866Y-137056761D01*
X138633104Y-137104380D01*
X138823580Y-137104380D01*
X138918819Y-137056761D01*
X138966438Y-137009142D01*
X139014057Y-136913904D01*
X139014057Y-136675809D01*
X138966438Y-136580571D01*
X138918819Y-136532952D01*
X138823580Y-136485333D01*
X138633104Y-136485333D01*
X138537866Y-136532952D01*
X138490247Y-136580571D01*
X138442628Y-136675809D01*
%TO.C,J18*%
X152454076Y-103592380D02*
X152454076Y-104306666D01*
X152406457Y-104449523D01*
X152311219Y-104544761D01*
X152168361Y-104592380D01*
X152073123Y-104592380D01*
X153454076Y-104592380D02*
X152882647Y-104592380D01*
X153168361Y-104592380D02*
X153168361Y-103592380D01*
X153073123Y-103735238D01*
X152977885Y-103830476D01*
X152882647Y-103878095D01*
X154025504Y-104020952D02*
X153930266Y-103973333D01*
X153882647Y-103925714D01*
X153835028Y-103830476D01*
X153835028Y-103782857D01*
X153882647Y-103687619D01*
X153930266Y-103640000D01*
X154025504Y-103592380D01*
X154215980Y-103592380D01*
X154311219Y-103640000D01*
X154358838Y-103687619D01*
X154406457Y-103782857D01*
X154406457Y-103830476D01*
X154358838Y-103925714D01*
X154311219Y-103973333D01*
X154215980Y-104020952D01*
X154025504Y-104020952D01*
X153930266Y-104068571D01*
X153882647Y-104116190D01*
X153835028Y-104211428D01*
X153835028Y-104401904D01*
X153882647Y-104497142D01*
X153930266Y-104544761D01*
X154025504Y-104592380D01*
X154215980Y-104592380D01*
X154311219Y-104544761D01*
X154358838Y-104497142D01*
X154406457Y-104401904D01*
X154406457Y-104211428D01*
X154358838Y-104116190D01*
X154311219Y-104068571D01*
X154215980Y-104020952D01*
%TO.C,C6*%
X130565142Y-80711666D02*
X130612761Y-80759285D01*
X130660380Y-80902142D01*
X130660380Y-80997380D01*
X130612761Y-81140238D01*
X130517523Y-81235476D01*
X130422285Y-81283095D01*
X130231809Y-81330714D01*
X130088952Y-81330714D01*
X129898476Y-81283095D01*
X129803238Y-81235476D01*
X129708000Y-81140238D01*
X129660380Y-80997380D01*
X129660380Y-80902142D01*
X129708000Y-80759285D01*
X129755619Y-80711666D01*
X129660380Y-79854523D02*
X129660380Y-80045000D01*
X129708000Y-80140238D01*
X129755619Y-80187857D01*
X129898476Y-80283095D01*
X130088952Y-80330714D01*
X130469904Y-80330714D01*
X130565142Y-80283095D01*
X130612761Y-80235476D01*
X130660380Y-80140238D01*
X130660380Y-79949761D01*
X130612761Y-79854523D01*
X130565142Y-79806904D01*
X130469904Y-79759285D01*
X130231809Y-79759285D01*
X130136571Y-79806904D01*
X130088952Y-79854523D01*
X130041333Y-79949761D01*
X130041333Y-80140238D01*
X130088952Y-80235476D01*
X130136571Y-80283095D01*
X130231809Y-80330714D01*
%TO.C,U2*%
X96012095Y-137147380D02*
X96012095Y-137956904D01*
X96059714Y-138052142D01*
X96107333Y-138099761D01*
X96202571Y-138147380D01*
X96393047Y-138147380D01*
X96488285Y-138099761D01*
X96535904Y-138052142D01*
X96583523Y-137956904D01*
X96583523Y-137147380D01*
X97012095Y-137242619D02*
X97059714Y-137195000D01*
X97154952Y-137147380D01*
X97393047Y-137147380D01*
X97488285Y-137195000D01*
X97535904Y-137242619D01*
X97583523Y-137337857D01*
X97583523Y-137433095D01*
X97535904Y-137575952D01*
X96964476Y-138147380D01*
X97583523Y-138147380D01*
%TO.C,R17*%
X147274042Y-97771380D02*
X146940709Y-97295190D01*
X146702614Y-97771380D02*
X146702614Y-96771380D01*
X147083566Y-96771380D01*
X147178804Y-96819000D01*
X147226423Y-96866619D01*
X147274042Y-96961857D01*
X147274042Y-97104714D01*
X147226423Y-97199952D01*
X147178804Y-97247571D01*
X147083566Y-97295190D01*
X146702614Y-97295190D01*
X148226423Y-97771380D02*
X147654995Y-97771380D01*
X147940709Y-97771380D02*
X147940709Y-96771380D01*
X147845471Y-96914238D01*
X147750233Y-97009476D01*
X147654995Y-97057095D01*
X148559757Y-96771380D02*
X149226423Y-96771380D01*
X148797852Y-97771380D01*
%TO.C,R24*%
X118678980Y-58658057D02*
X118202790Y-58991390D01*
X118678980Y-59229485D02*
X117678980Y-59229485D01*
X117678980Y-58848533D01*
X117726600Y-58753295D01*
X117774219Y-58705676D01*
X117869457Y-58658057D01*
X118012314Y-58658057D01*
X118107552Y-58705676D01*
X118155171Y-58753295D01*
X118202790Y-58848533D01*
X118202790Y-59229485D01*
X117774219Y-58277104D02*
X117726600Y-58229485D01*
X117678980Y-58134247D01*
X117678980Y-57896152D01*
X117726600Y-57800914D01*
X117774219Y-57753295D01*
X117869457Y-57705676D01*
X117964695Y-57705676D01*
X118107552Y-57753295D01*
X118678980Y-58324723D01*
X118678980Y-57705676D01*
X118012314Y-56848533D02*
X118678980Y-56848533D01*
X117631361Y-57086628D02*
X118345647Y-57324723D01*
X118345647Y-56705676D01*
%TO.C,C24*%
X140326342Y-56980057D02*
X140373961Y-57027676D01*
X140421580Y-57170533D01*
X140421580Y-57265771D01*
X140373961Y-57408628D01*
X140278723Y-57503866D01*
X140183485Y-57551485D01*
X139993009Y-57599104D01*
X139850152Y-57599104D01*
X139659676Y-57551485D01*
X139564438Y-57503866D01*
X139469200Y-57408628D01*
X139421580Y-57265771D01*
X139421580Y-57170533D01*
X139469200Y-57027676D01*
X139516819Y-56980057D01*
X139516819Y-56599104D02*
X139469200Y-56551485D01*
X139421580Y-56456247D01*
X139421580Y-56218152D01*
X139469200Y-56122914D01*
X139516819Y-56075295D01*
X139612057Y-56027676D01*
X139707295Y-56027676D01*
X139850152Y-56075295D01*
X140421580Y-56646723D01*
X140421580Y-56027676D01*
X139754914Y-55170533D02*
X140421580Y-55170533D01*
X139373961Y-55408628D02*
X140088247Y-55646723D01*
X140088247Y-55027676D01*
%TO.C,C22*%
X169267142Y-76487257D02*
X169314761Y-76534876D01*
X169362380Y-76677733D01*
X169362380Y-76772971D01*
X169314761Y-76915828D01*
X169219523Y-77011066D01*
X169124285Y-77058685D01*
X168933809Y-77106304D01*
X168790952Y-77106304D01*
X168600476Y-77058685D01*
X168505238Y-77011066D01*
X168410000Y-76915828D01*
X168362380Y-76772971D01*
X168362380Y-76677733D01*
X168410000Y-76534876D01*
X168457619Y-76487257D01*
X168457619Y-76106304D02*
X168410000Y-76058685D01*
X168362380Y-75963447D01*
X168362380Y-75725352D01*
X168410000Y-75630114D01*
X168457619Y-75582495D01*
X168552857Y-75534876D01*
X168648095Y-75534876D01*
X168790952Y-75582495D01*
X169362380Y-76153923D01*
X169362380Y-75534876D01*
X168457619Y-75153923D02*
X168410000Y-75106304D01*
X168362380Y-75011066D01*
X168362380Y-74772971D01*
X168410000Y-74677733D01*
X168457619Y-74630114D01*
X168552857Y-74582495D01*
X168648095Y-74582495D01*
X168790952Y-74630114D01*
X169362380Y-75201542D01*
X169362380Y-74582495D01*
%TO.C,R8*%
X116275380Y-130368666D02*
X115799190Y-130702000D01*
X116275380Y-130940095D02*
X115275380Y-130940095D01*
X115275380Y-130559142D01*
X115323000Y-130463904D01*
X115370619Y-130416285D01*
X115465857Y-130368666D01*
X115608714Y-130368666D01*
X115703952Y-130416285D01*
X115751571Y-130463904D01*
X115799190Y-130559142D01*
X115799190Y-130940095D01*
X115703952Y-129797238D02*
X115656333Y-129892476D01*
X115608714Y-129940095D01*
X115513476Y-129987714D01*
X115465857Y-129987714D01*
X115370619Y-129940095D01*
X115323000Y-129892476D01*
X115275380Y-129797238D01*
X115275380Y-129606761D01*
X115323000Y-129511523D01*
X115370619Y-129463904D01*
X115465857Y-129416285D01*
X115513476Y-129416285D01*
X115608714Y-129463904D01*
X115656333Y-129511523D01*
X115703952Y-129606761D01*
X115703952Y-129797238D01*
X115751571Y-129892476D01*
X115799190Y-129940095D01*
X115894428Y-129987714D01*
X116084904Y-129987714D01*
X116180142Y-129940095D01*
X116227761Y-129892476D01*
X116275380Y-129797238D01*
X116275380Y-129606761D01*
X116227761Y-129511523D01*
X116180142Y-129463904D01*
X116084904Y-129416285D01*
X115894428Y-129416285D01*
X115799190Y-129463904D01*
X115751571Y-129511523D01*
X115703952Y-129606761D01*
%TO.C,C13*%
X151604742Y-125834742D02*
X151557123Y-125882361D01*
X151414266Y-125929980D01*
X151319028Y-125929980D01*
X151176171Y-125882361D01*
X151080933Y-125787123D01*
X151033314Y-125691885D01*
X150985695Y-125501409D01*
X150985695Y-125358552D01*
X151033314Y-125168076D01*
X151080933Y-125072838D01*
X151176171Y-124977600D01*
X151319028Y-124929980D01*
X151414266Y-124929980D01*
X151557123Y-124977600D01*
X151604742Y-125025219D01*
X152557123Y-125929980D02*
X151985695Y-125929980D01*
X152271409Y-125929980D02*
X152271409Y-124929980D01*
X152176171Y-125072838D01*
X152080933Y-125168076D01*
X151985695Y-125215695D01*
X152890457Y-124929980D02*
X153509504Y-124929980D01*
X153176171Y-125310933D01*
X153319028Y-125310933D01*
X153414266Y-125358552D01*
X153461885Y-125406171D01*
X153509504Y-125501409D01*
X153509504Y-125739504D01*
X153461885Y-125834742D01*
X153414266Y-125882361D01*
X153319028Y-125929980D01*
X153033314Y-125929980D01*
X152938076Y-125882361D01*
X152890457Y-125834742D01*
%TO.C,C17*%
X89892142Y-137525057D02*
X89939761Y-137572676D01*
X89987380Y-137715533D01*
X89987380Y-137810771D01*
X89939761Y-137953628D01*
X89844523Y-138048866D01*
X89749285Y-138096485D01*
X89558809Y-138144104D01*
X89415952Y-138144104D01*
X89225476Y-138096485D01*
X89130238Y-138048866D01*
X89035000Y-137953628D01*
X88987380Y-137810771D01*
X88987380Y-137715533D01*
X89035000Y-137572676D01*
X89082619Y-137525057D01*
X89987380Y-136572676D02*
X89987380Y-137144104D01*
X89987380Y-136858390D02*
X88987380Y-136858390D01*
X89130238Y-136953628D01*
X89225476Y-137048866D01*
X89273095Y-137144104D01*
X88987380Y-136239342D02*
X88987380Y-135572676D01*
X89987380Y-136001247D01*
%TO.C,R48*%
X99167880Y-96554857D02*
X98691690Y-96888190D01*
X99167880Y-97126285D02*
X98167880Y-97126285D01*
X98167880Y-96745333D01*
X98215500Y-96650095D01*
X98263119Y-96602476D01*
X98358357Y-96554857D01*
X98501214Y-96554857D01*
X98596452Y-96602476D01*
X98644071Y-96650095D01*
X98691690Y-96745333D01*
X98691690Y-97126285D01*
X98501214Y-95697714D02*
X99167880Y-95697714D01*
X98120261Y-95935809D02*
X98834547Y-96173904D01*
X98834547Y-95554857D01*
X98596452Y-95031047D02*
X98548833Y-95126285D01*
X98501214Y-95173904D01*
X98405976Y-95221523D01*
X98358357Y-95221523D01*
X98263119Y-95173904D01*
X98215500Y-95126285D01*
X98167880Y-95031047D01*
X98167880Y-94840571D01*
X98215500Y-94745333D01*
X98263119Y-94697714D01*
X98358357Y-94650095D01*
X98405976Y-94650095D01*
X98501214Y-94697714D01*
X98548833Y-94745333D01*
X98596452Y-94840571D01*
X98596452Y-95031047D01*
X98644071Y-95126285D01*
X98691690Y-95173904D01*
X98786928Y-95221523D01*
X98977404Y-95221523D01*
X99072642Y-95173904D01*
X99120261Y-95126285D01*
X99167880Y-95031047D01*
X99167880Y-94840571D01*
X99120261Y-94745333D01*
X99072642Y-94697714D01*
X98977404Y-94650095D01*
X98786928Y-94650095D01*
X98691690Y-94697714D01*
X98644071Y-94745333D01*
X98596452Y-94840571D01*
%TO.C,J6*%
X171523066Y-67879980D02*
X171523066Y-68594266D01*
X171475447Y-68737123D01*
X171380209Y-68832361D01*
X171237352Y-68879980D01*
X171142114Y-68879980D01*
X172427828Y-67879980D02*
X172237352Y-67879980D01*
X172142114Y-67927600D01*
X172094495Y-67975219D01*
X171999257Y-68118076D01*
X171951638Y-68308552D01*
X171951638Y-68689504D01*
X171999257Y-68784742D01*
X172046876Y-68832361D01*
X172142114Y-68879980D01*
X172332590Y-68879980D01*
X172427828Y-68832361D01*
X172475447Y-68784742D01*
X172523066Y-68689504D01*
X172523066Y-68451409D01*
X172475447Y-68356171D01*
X172427828Y-68308552D01*
X172332590Y-68260933D01*
X172142114Y-68260933D01*
X172046876Y-68308552D01*
X171999257Y-68356171D01*
X171951638Y-68451409D01*
%TO.C,C4*%
X123884942Y-80711666D02*
X123932561Y-80759285D01*
X123980180Y-80902142D01*
X123980180Y-80997380D01*
X123932561Y-81140238D01*
X123837323Y-81235476D01*
X123742085Y-81283095D01*
X123551609Y-81330714D01*
X123408752Y-81330714D01*
X123218276Y-81283095D01*
X123123038Y-81235476D01*
X123027800Y-81140238D01*
X122980180Y-80997380D01*
X122980180Y-80902142D01*
X123027800Y-80759285D01*
X123075419Y-80711666D01*
X123313514Y-79854523D02*
X123980180Y-79854523D01*
X122932561Y-80092619D02*
X123646847Y-80330714D01*
X123646847Y-79711666D01*
%TO.C,R21*%
X111058980Y-58708857D02*
X110582790Y-59042190D01*
X111058980Y-59280285D02*
X110058980Y-59280285D01*
X110058980Y-58899333D01*
X110106600Y-58804095D01*
X110154219Y-58756476D01*
X110249457Y-58708857D01*
X110392314Y-58708857D01*
X110487552Y-58756476D01*
X110535171Y-58804095D01*
X110582790Y-58899333D01*
X110582790Y-59280285D01*
X110154219Y-58327904D02*
X110106600Y-58280285D01*
X110058980Y-58185047D01*
X110058980Y-57946952D01*
X110106600Y-57851714D01*
X110154219Y-57804095D01*
X110249457Y-57756476D01*
X110344695Y-57756476D01*
X110487552Y-57804095D01*
X111058980Y-58375523D01*
X111058980Y-57756476D01*
X111058980Y-56804095D02*
X111058980Y-57375523D01*
X111058980Y-57089809D02*
X110058980Y-57089809D01*
X110201838Y-57185047D01*
X110297076Y-57280285D01*
X110344695Y-57375523D01*
%TO.C,C16*%
X102182142Y-135035857D02*
X102229761Y-135083476D01*
X102277380Y-135226333D01*
X102277380Y-135321571D01*
X102229761Y-135464428D01*
X102134523Y-135559666D01*
X102039285Y-135607285D01*
X101848809Y-135654904D01*
X101705952Y-135654904D01*
X101515476Y-135607285D01*
X101420238Y-135559666D01*
X101325000Y-135464428D01*
X101277380Y-135321571D01*
X101277380Y-135226333D01*
X101325000Y-135083476D01*
X101372619Y-135035857D01*
X102277380Y-134083476D02*
X102277380Y-134654904D01*
X102277380Y-134369190D02*
X101277380Y-134369190D01*
X101420238Y-134464428D01*
X101515476Y-134559666D01*
X101563095Y-134654904D01*
X101277380Y-133226333D02*
X101277380Y-133416809D01*
X101325000Y-133512047D01*
X101372619Y-133559666D01*
X101515476Y-133654904D01*
X101705952Y-133702523D01*
X102086904Y-133702523D01*
X102182142Y-133654904D01*
X102229761Y-133607285D01*
X102277380Y-133512047D01*
X102277380Y-133321571D01*
X102229761Y-133226333D01*
X102182142Y-133178714D01*
X102086904Y-133131095D01*
X101848809Y-133131095D01*
X101753571Y-133178714D01*
X101705952Y-133226333D01*
X101658333Y-133321571D01*
X101658333Y-133512047D01*
X101705952Y-133607285D01*
X101753571Y-133654904D01*
X101848809Y-133702523D01*
%TO.C,R9*%
X86431380Y-136972666D02*
X85955190Y-137306000D01*
X86431380Y-137544095D02*
X85431380Y-137544095D01*
X85431380Y-137163142D01*
X85479000Y-137067904D01*
X85526619Y-137020285D01*
X85621857Y-136972666D01*
X85764714Y-136972666D01*
X85859952Y-137020285D01*
X85907571Y-137067904D01*
X85955190Y-137163142D01*
X85955190Y-137544095D01*
X86431380Y-136496476D02*
X86431380Y-136306000D01*
X86383761Y-136210761D01*
X86336142Y-136163142D01*
X86193285Y-136067904D01*
X86002809Y-136020285D01*
X85621857Y-136020285D01*
X85526619Y-136067904D01*
X85479000Y-136115523D01*
X85431380Y-136210761D01*
X85431380Y-136401238D01*
X85479000Y-136496476D01*
X85526619Y-136544095D01*
X85621857Y-136591714D01*
X85859952Y-136591714D01*
X85955190Y-136544095D01*
X86002809Y-136496476D01*
X86050428Y-136401238D01*
X86050428Y-136210761D01*
X86002809Y-136115523D01*
X85955190Y-136067904D01*
X85859952Y-136020285D01*
%TO.C,C21*%
X147931142Y-68741857D02*
X147978761Y-68789476D01*
X148026380Y-68932333D01*
X148026380Y-69027571D01*
X147978761Y-69170428D01*
X147883523Y-69265666D01*
X147788285Y-69313285D01*
X147597809Y-69360904D01*
X147454952Y-69360904D01*
X147264476Y-69313285D01*
X147169238Y-69265666D01*
X147074000Y-69170428D01*
X147026380Y-69027571D01*
X147026380Y-68932333D01*
X147074000Y-68789476D01*
X147121619Y-68741857D01*
X147121619Y-68360904D02*
X147074000Y-68313285D01*
X147026380Y-68218047D01*
X147026380Y-67979952D01*
X147074000Y-67884714D01*
X147121619Y-67837095D01*
X147216857Y-67789476D01*
X147312095Y-67789476D01*
X147454952Y-67837095D01*
X148026380Y-68408523D01*
X148026380Y-67789476D01*
X148026380Y-66837095D02*
X148026380Y-67408523D01*
X148026380Y-67122809D02*
X147026380Y-67122809D01*
X147169238Y-67218047D01*
X147264476Y-67313285D01*
X147312095Y-67408523D01*
%TO.C,J7*%
X96386527Y-100647574D02*
X96958187Y-100647574D01*
X97072519Y-100685684D01*
X97148740Y-100761906D01*
X97186850Y-100876238D01*
X97186850Y-100952459D01*
X96386527Y-100342689D02*
X96386527Y-99809140D01*
X97186850Y-100152136D01*
%TO.C,R13*%
X152090380Y-77481357D02*
X151614190Y-77814690D01*
X152090380Y-78052785D02*
X151090380Y-78052785D01*
X151090380Y-77671833D01*
X151138000Y-77576595D01*
X151185619Y-77528976D01*
X151280857Y-77481357D01*
X151423714Y-77481357D01*
X151518952Y-77528976D01*
X151566571Y-77576595D01*
X151614190Y-77671833D01*
X151614190Y-78052785D01*
X152090380Y-76528976D02*
X152090380Y-77100404D01*
X152090380Y-76814690D02*
X151090380Y-76814690D01*
X151233238Y-76909928D01*
X151328476Y-77005166D01*
X151376095Y-77100404D01*
X151090380Y-76195642D02*
X151090380Y-75576595D01*
X151471333Y-75909928D01*
X151471333Y-75767071D01*
X151518952Y-75671833D01*
X151566571Y-75624214D01*
X151661809Y-75576595D01*
X151899904Y-75576595D01*
X151995142Y-75624214D01*
X152042761Y-75671833D01*
X152090380Y-75767071D01*
X152090380Y-76052785D01*
X152042761Y-76148023D01*
X151995142Y-76195642D01*
%TO.C,U1*%
X154730545Y-137274380D02*
X154730545Y-138083904D01*
X154778164Y-138179142D01*
X154825783Y-138226761D01*
X154921021Y-138274380D01*
X155111497Y-138274380D01*
X155206735Y-138226761D01*
X155254354Y-138179142D01*
X155301973Y-138083904D01*
X155301973Y-137274380D01*
X156301973Y-138274380D02*
X155730545Y-138274380D01*
X156016259Y-138274380D02*
X156016259Y-137274380D01*
X155921021Y-137417238D01*
X155825783Y-137512476D01*
X155730545Y-137560095D01*
%TO.C,J25*%
X164999476Y-67778380D02*
X164999476Y-68492666D01*
X164951857Y-68635523D01*
X164856619Y-68730761D01*
X164713761Y-68778380D01*
X164618523Y-68778380D01*
X165428047Y-67873619D02*
X165475666Y-67826000D01*
X165570904Y-67778380D01*
X165809000Y-67778380D01*
X165904238Y-67826000D01*
X165951857Y-67873619D01*
X165999476Y-67968857D01*
X165999476Y-68064095D01*
X165951857Y-68206952D01*
X165380428Y-68778380D01*
X165999476Y-68778380D01*
X166904238Y-67778380D02*
X166428047Y-67778380D01*
X166380428Y-68254571D01*
X166428047Y-68206952D01*
X166523285Y-68159333D01*
X166761380Y-68159333D01*
X166856619Y-68206952D01*
X166904238Y-68254571D01*
X166951857Y-68349809D01*
X166951857Y-68587904D01*
X166904238Y-68683142D01*
X166856619Y-68730761D01*
X166761380Y-68778380D01*
X166523285Y-68778380D01*
X166428047Y-68730761D01*
X166380428Y-68683142D01*
%TO.C,L2*%
X102052380Y-120970666D02*
X102052380Y-121446857D01*
X101052380Y-121446857D01*
X101147619Y-120684952D02*
X101100000Y-120637333D01*
X101052380Y-120542095D01*
X101052380Y-120304000D01*
X101100000Y-120208761D01*
X101147619Y-120161142D01*
X101242857Y-120113523D01*
X101338095Y-120113523D01*
X101480952Y-120161142D01*
X102052380Y-120732571D01*
X102052380Y-120113523D01*
%TO.C,C5*%
X127009142Y-80711666D02*
X127056761Y-80759285D01*
X127104380Y-80902142D01*
X127104380Y-80997380D01*
X127056761Y-81140238D01*
X126961523Y-81235476D01*
X126866285Y-81283095D01*
X126675809Y-81330714D01*
X126532952Y-81330714D01*
X126342476Y-81283095D01*
X126247238Y-81235476D01*
X126152000Y-81140238D01*
X126104380Y-80997380D01*
X126104380Y-80902142D01*
X126152000Y-80759285D01*
X126199619Y-80711666D01*
X126104380Y-79806904D02*
X126104380Y-80283095D01*
X126580571Y-80330714D01*
X126532952Y-80283095D01*
X126485333Y-80187857D01*
X126485333Y-79949761D01*
X126532952Y-79854523D01*
X126580571Y-79806904D01*
X126675809Y-79759285D01*
X126913904Y-79759285D01*
X127009142Y-79806904D01*
X127056761Y-79854523D01*
X127104380Y-79949761D01*
X127104380Y-80187857D01*
X127056761Y-80283095D01*
X127009142Y-80330714D01*
%TO.C,R20*%
X108518980Y-58708857D02*
X108042790Y-59042190D01*
X108518980Y-59280285D02*
X107518980Y-59280285D01*
X107518980Y-58899333D01*
X107566600Y-58804095D01*
X107614219Y-58756476D01*
X107709457Y-58708857D01*
X107852314Y-58708857D01*
X107947552Y-58756476D01*
X107995171Y-58804095D01*
X108042790Y-58899333D01*
X108042790Y-59280285D01*
X107614219Y-58327904D02*
X107566600Y-58280285D01*
X107518980Y-58185047D01*
X107518980Y-57946952D01*
X107566600Y-57851714D01*
X107614219Y-57804095D01*
X107709457Y-57756476D01*
X107804695Y-57756476D01*
X107947552Y-57804095D01*
X108518980Y-58375523D01*
X108518980Y-57756476D01*
X107518980Y-57137428D02*
X107518980Y-57042190D01*
X107566600Y-56946952D01*
X107614219Y-56899333D01*
X107709457Y-56851714D01*
X107899933Y-56804095D01*
X108138028Y-56804095D01*
X108328504Y-56851714D01*
X108423742Y-56899333D01*
X108471361Y-56946952D01*
X108518980Y-57042190D01*
X108518980Y-57137428D01*
X108471361Y-57232666D01*
X108423742Y-57280285D01*
X108328504Y-57327904D01*
X108138028Y-57375523D01*
X107899933Y-57375523D01*
X107709457Y-57327904D01*
X107614219Y-57280285D01*
X107566600Y-57232666D01*
X107518980Y-57137428D01*
%TO.C,C3*%
X115200133Y-73340542D02*
X115152514Y-73388161D01*
X115009657Y-73435780D01*
X114914419Y-73435780D01*
X114771561Y-73388161D01*
X114676323Y-73292923D01*
X114628704Y-73197685D01*
X114581085Y-73007209D01*
X114581085Y-72864352D01*
X114628704Y-72673876D01*
X114676323Y-72578638D01*
X114771561Y-72483400D01*
X114914419Y-72435780D01*
X115009657Y-72435780D01*
X115152514Y-72483400D01*
X115200133Y-72531019D01*
X115533466Y-72435780D02*
X116152514Y-72435780D01*
X115819180Y-72816733D01*
X115962038Y-72816733D01*
X116057276Y-72864352D01*
X116104895Y-72911971D01*
X116152514Y-73007209D01*
X116152514Y-73245304D01*
X116104895Y-73340542D01*
X116057276Y-73388161D01*
X115962038Y-73435780D01*
X115676323Y-73435780D01*
X115581085Y-73388161D01*
X115533466Y-73340542D01*
%TO.C,U4*%
X135039195Y-88481180D02*
X135039195Y-89290704D01*
X135086814Y-89385942D01*
X135134433Y-89433561D01*
X135229671Y-89481180D01*
X135420147Y-89481180D01*
X135515385Y-89433561D01*
X135563004Y-89385942D01*
X135610623Y-89290704D01*
X135610623Y-88481180D01*
X136515385Y-88814514D02*
X136515385Y-89481180D01*
X136277290Y-88433561D02*
X136039195Y-89147847D01*
X136658242Y-89147847D01*
X140665200Y-100899980D02*
X140665200Y-101138076D01*
X140427104Y-101042838D02*
X140665200Y-101138076D01*
X140903295Y-101042838D01*
X140522342Y-101328552D02*
X140665200Y-101138076D01*
X140808057Y-101328552D01*
%TO.C,C2*%
X115237933Y-67821142D02*
X115190314Y-67868761D01*
X115047457Y-67916380D01*
X114952219Y-67916380D01*
X114809361Y-67868761D01*
X114714123Y-67773523D01*
X114666504Y-67678285D01*
X114618885Y-67487809D01*
X114618885Y-67344952D01*
X114666504Y-67154476D01*
X114714123Y-67059238D01*
X114809361Y-66964000D01*
X114952219Y-66916380D01*
X115047457Y-66916380D01*
X115190314Y-66964000D01*
X115237933Y-67011619D01*
X115618885Y-67011619D02*
X115666504Y-66964000D01*
X115761742Y-66916380D01*
X115999838Y-66916380D01*
X116095076Y-66964000D01*
X116142695Y-67011619D01*
X116190314Y-67106857D01*
X116190314Y-67202095D01*
X116142695Y-67344952D01*
X115571266Y-67916380D01*
X116190314Y-67916380D01*
%TO.C,C10*%
X160789892Y-135188257D02*
X160837511Y-135235876D01*
X160885130Y-135378733D01*
X160885130Y-135473971D01*
X160837511Y-135616828D01*
X160742273Y-135712066D01*
X160647035Y-135759685D01*
X160456559Y-135807304D01*
X160313702Y-135807304D01*
X160123226Y-135759685D01*
X160027988Y-135712066D01*
X159932750Y-135616828D01*
X159885130Y-135473971D01*
X159885130Y-135378733D01*
X159932750Y-135235876D01*
X159980369Y-135188257D01*
X160885130Y-134235876D02*
X160885130Y-134807304D01*
X160885130Y-134521590D02*
X159885130Y-134521590D01*
X160027988Y-134616828D01*
X160123226Y-134712066D01*
X160170845Y-134807304D01*
X159885130Y-133616828D02*
X159885130Y-133521590D01*
X159932750Y-133426352D01*
X159980369Y-133378733D01*
X160075607Y-133331114D01*
X160266083Y-133283495D01*
X160504178Y-133283495D01*
X160694654Y-133331114D01*
X160789892Y-133378733D01*
X160837511Y-133426352D01*
X160885130Y-133521590D01*
X160885130Y-133616828D01*
X160837511Y-133712066D01*
X160789892Y-133759685D01*
X160694654Y-133807304D01*
X160504178Y-133854923D01*
X160266083Y-133854923D01*
X160075607Y-133807304D01*
X159980369Y-133759685D01*
X159932750Y-133712066D01*
X159885130Y-133616828D01*
%TO.C,R16*%
X147274042Y-100057380D02*
X146940709Y-99581190D01*
X146702614Y-100057380D02*
X146702614Y-99057380D01*
X147083566Y-99057380D01*
X147178804Y-99105000D01*
X147226423Y-99152619D01*
X147274042Y-99247857D01*
X147274042Y-99390714D01*
X147226423Y-99485952D01*
X147178804Y-99533571D01*
X147083566Y-99581190D01*
X146702614Y-99581190D01*
X148226423Y-100057380D02*
X147654995Y-100057380D01*
X147940709Y-100057380D02*
X147940709Y-99057380D01*
X147845471Y-99200238D01*
X147750233Y-99295476D01*
X147654995Y-99343095D01*
X149083566Y-99057380D02*
X148893090Y-99057380D01*
X148797852Y-99105000D01*
X148750233Y-99152619D01*
X148654995Y-99295476D01*
X148607376Y-99485952D01*
X148607376Y-99866904D01*
X148654995Y-99962142D01*
X148702614Y-100009761D01*
X148797852Y-100057380D01*
X148988328Y-100057380D01*
X149083566Y-100009761D01*
X149131185Y-99962142D01*
X149178804Y-99866904D01*
X149178804Y-99628809D01*
X149131185Y-99533571D01*
X149083566Y-99485952D01*
X148988328Y-99438333D01*
X148797852Y-99438333D01*
X148702614Y-99485952D01*
X148654995Y-99533571D01*
X148607376Y-99628809D01*
%TO.C,R12*%
X152090380Y-81291357D02*
X151614190Y-81624690D01*
X152090380Y-81862785D02*
X151090380Y-81862785D01*
X151090380Y-81481833D01*
X151138000Y-81386595D01*
X151185619Y-81338976D01*
X151280857Y-81291357D01*
X151423714Y-81291357D01*
X151518952Y-81338976D01*
X151566571Y-81386595D01*
X151614190Y-81481833D01*
X151614190Y-81862785D01*
X152090380Y-80338976D02*
X152090380Y-80910404D01*
X152090380Y-80624690D02*
X151090380Y-80624690D01*
X151233238Y-80719928D01*
X151328476Y-80815166D01*
X151376095Y-80910404D01*
X151185619Y-79958023D02*
X151138000Y-79910404D01*
X151090380Y-79815166D01*
X151090380Y-79577071D01*
X151138000Y-79481833D01*
X151185619Y-79434214D01*
X151280857Y-79386595D01*
X151376095Y-79386595D01*
X151518952Y-79434214D01*
X152090380Y-80005642D01*
X152090380Y-79386595D01*
%TO.C,R22*%
X113548180Y-58708857D02*
X113071990Y-59042190D01*
X113548180Y-59280285D02*
X112548180Y-59280285D01*
X112548180Y-58899333D01*
X112595800Y-58804095D01*
X112643419Y-58756476D01*
X112738657Y-58708857D01*
X112881514Y-58708857D01*
X112976752Y-58756476D01*
X113024371Y-58804095D01*
X113071990Y-58899333D01*
X113071990Y-59280285D01*
X112643419Y-58327904D02*
X112595800Y-58280285D01*
X112548180Y-58185047D01*
X112548180Y-57946952D01*
X112595800Y-57851714D01*
X112643419Y-57804095D01*
X112738657Y-57756476D01*
X112833895Y-57756476D01*
X112976752Y-57804095D01*
X113548180Y-58375523D01*
X113548180Y-57756476D01*
X112643419Y-57375523D02*
X112595800Y-57327904D01*
X112548180Y-57232666D01*
X112548180Y-56994571D01*
X112595800Y-56899333D01*
X112643419Y-56851714D01*
X112738657Y-56804095D01*
X112833895Y-56804095D01*
X112976752Y-56851714D01*
X113548180Y-57423142D01*
X113548180Y-56804095D01*
%TO.C,D1*%
X111399580Y-110213695D02*
X110399580Y-110213695D01*
X110399580Y-109975600D01*
X110447200Y-109832742D01*
X110542438Y-109737504D01*
X110637676Y-109689885D01*
X110828152Y-109642266D01*
X110971009Y-109642266D01*
X111161485Y-109689885D01*
X111256723Y-109737504D01*
X111351961Y-109832742D01*
X111399580Y-109975600D01*
X111399580Y-110213695D01*
X111399580Y-108689885D02*
X111399580Y-109261314D01*
X111399580Y-108975600D02*
X110399580Y-108975600D01*
X110542438Y-109070838D01*
X110637676Y-109166076D01*
X110685295Y-109261314D01*
%TO.C,R10*%
X111498142Y-135352380D02*
X111164809Y-134876190D01*
X110926714Y-135352380D02*
X110926714Y-134352380D01*
X111307666Y-134352380D01*
X111402904Y-134400000D01*
X111450523Y-134447619D01*
X111498142Y-134542857D01*
X111498142Y-134685714D01*
X111450523Y-134780952D01*
X111402904Y-134828571D01*
X111307666Y-134876190D01*
X110926714Y-134876190D01*
X112450523Y-135352380D02*
X111879095Y-135352380D01*
X112164809Y-135352380D02*
X112164809Y-134352380D01*
X112069571Y-134495238D01*
X111974333Y-134590476D01*
X111879095Y-134638095D01*
X113069571Y-134352380D02*
X113164809Y-134352380D01*
X113260047Y-134400000D01*
X113307666Y-134447619D01*
X113355285Y-134542857D01*
X113402904Y-134733333D01*
X113402904Y-134971428D01*
X113355285Y-135161904D01*
X113307666Y-135257142D01*
X113260047Y-135304761D01*
X113164809Y-135352380D01*
X113069571Y-135352380D01*
X112974333Y-135304761D01*
X112926714Y-135257142D01*
X112879095Y-135161904D01*
X112831476Y-134971428D01*
X112831476Y-134733333D01*
X112879095Y-134542857D01*
X112926714Y-134447619D01*
X112974333Y-134400000D01*
X113069571Y-134352380D01*
%TO.C,R2*%
X171495980Y-129301866D02*
X171019790Y-129635200D01*
X171495980Y-129873295D02*
X170495980Y-129873295D01*
X170495980Y-129492342D01*
X170543600Y-129397104D01*
X170591219Y-129349485D01*
X170686457Y-129301866D01*
X170829314Y-129301866D01*
X170924552Y-129349485D01*
X170972171Y-129397104D01*
X171019790Y-129492342D01*
X171019790Y-129873295D01*
X170591219Y-128920914D02*
X170543600Y-128873295D01*
X170495980Y-128778057D01*
X170495980Y-128539961D01*
X170543600Y-128444723D01*
X170591219Y-128397104D01*
X170686457Y-128349485D01*
X170781695Y-128349485D01*
X170924552Y-128397104D01*
X171495980Y-128968533D01*
X171495980Y-128349485D01*
%TO.C,C7*%
X136637733Y-70359542D02*
X136590114Y-70407161D01*
X136447257Y-70454780D01*
X136352019Y-70454780D01*
X136209161Y-70407161D01*
X136113923Y-70311923D01*
X136066304Y-70216685D01*
X136018685Y-70026209D01*
X136018685Y-69883352D01*
X136066304Y-69692876D01*
X136113923Y-69597638D01*
X136209161Y-69502400D01*
X136352019Y-69454780D01*
X136447257Y-69454780D01*
X136590114Y-69502400D01*
X136637733Y-69550019D01*
X136971066Y-69454780D02*
X137637733Y-69454780D01*
X137209161Y-70454780D01*
%TO.C,J4*%
X165477866Y-103592380D02*
X165477866Y-104306666D01*
X165430247Y-104449523D01*
X165335009Y-104544761D01*
X165192152Y-104592380D01*
X165096914Y-104592380D01*
X166382628Y-103925714D02*
X166382628Y-104592380D01*
X166144533Y-103544761D02*
X165906438Y-104259047D01*
X166525485Y-104259047D01*
%TO.C,U3*%
X118567200Y-64476380D02*
X118567200Y-64714476D01*
X118329104Y-64619238D02*
X118567200Y-64714476D01*
X118805295Y-64619238D01*
X118424342Y-64904952D02*
X118567200Y-64714476D01*
X118710057Y-64904952D01*
%TO.C,J3*%
X81810266Y-90435180D02*
X81810266Y-91149466D01*
X81762647Y-91292323D01*
X81667409Y-91387561D01*
X81524552Y-91435180D01*
X81429314Y-91435180D01*
X82191219Y-90435180D02*
X82810266Y-90435180D01*
X82476933Y-90816133D01*
X82619790Y-90816133D01*
X82715028Y-90863752D01*
X82762647Y-90911371D01*
X82810266Y-91006609D01*
X82810266Y-91244704D01*
X82762647Y-91339942D01*
X82715028Y-91387561D01*
X82619790Y-91435180D01*
X82334076Y-91435180D01*
X82238838Y-91387561D01*
X82191219Y-91339942D01*
%TO.C,J16*%
X102136676Y-54722780D02*
X102136676Y-55437066D01*
X102089057Y-55579923D01*
X101993819Y-55675161D01*
X101850961Y-55722780D01*
X101755723Y-55722780D01*
X103136676Y-55722780D02*
X102565247Y-55722780D01*
X102850961Y-55722780D02*
X102850961Y-54722780D01*
X102755723Y-54865638D01*
X102660485Y-54960876D01*
X102565247Y-55008495D01*
X103993819Y-54722780D02*
X103803342Y-54722780D01*
X103708104Y-54770400D01*
X103660485Y-54818019D01*
X103565247Y-54960876D01*
X103517628Y-55151352D01*
X103517628Y-55532304D01*
X103565247Y-55627542D01*
X103612866Y-55675161D01*
X103708104Y-55722780D01*
X103898580Y-55722780D01*
X103993819Y-55675161D01*
X104041438Y-55627542D01*
X104089057Y-55532304D01*
X104089057Y-55294209D01*
X104041438Y-55198971D01*
X103993819Y-55151352D01*
X103898580Y-55103733D01*
X103708104Y-55103733D01*
X103612866Y-55151352D01*
X103565247Y-55198971D01*
X103517628Y-55294209D01*
%TO.C,C8*%
X147219942Y-132222866D02*
X147267561Y-132270485D01*
X147315180Y-132413342D01*
X147315180Y-132508580D01*
X147267561Y-132651438D01*
X147172323Y-132746676D01*
X147077085Y-132794295D01*
X146886609Y-132841914D01*
X146743752Y-132841914D01*
X146553276Y-132794295D01*
X146458038Y-132746676D01*
X146362800Y-132651438D01*
X146315180Y-132508580D01*
X146315180Y-132413342D01*
X146362800Y-132270485D01*
X146410419Y-132222866D01*
X146743752Y-131651438D02*
X146696133Y-131746676D01*
X146648514Y-131794295D01*
X146553276Y-131841914D01*
X146505657Y-131841914D01*
X146410419Y-131794295D01*
X146362800Y-131746676D01*
X146315180Y-131651438D01*
X146315180Y-131460961D01*
X146362800Y-131365723D01*
X146410419Y-131318104D01*
X146505657Y-131270485D01*
X146553276Y-131270485D01*
X146648514Y-131318104D01*
X146696133Y-131365723D01*
X146743752Y-131460961D01*
X146743752Y-131651438D01*
X146791371Y-131746676D01*
X146838990Y-131794295D01*
X146934228Y-131841914D01*
X147124704Y-131841914D01*
X147219942Y-131794295D01*
X147267561Y-131746676D01*
X147315180Y-131651438D01*
X147315180Y-131460961D01*
X147267561Y-131365723D01*
X147219942Y-131318104D01*
X147124704Y-131270485D01*
X146934228Y-131270485D01*
X146838990Y-131318104D01*
X146791371Y-131365723D01*
X146743752Y-131460961D01*
%TO.C,J19*%
X159413676Y-103592380D02*
X159413676Y-104306666D01*
X159366057Y-104449523D01*
X159270819Y-104544761D01*
X159127961Y-104592380D01*
X159032723Y-104592380D01*
X160413676Y-104592380D02*
X159842247Y-104592380D01*
X160127961Y-104592380D02*
X160127961Y-103592380D01*
X160032723Y-103735238D01*
X159937485Y-103830476D01*
X159842247Y-103878095D01*
X160889866Y-104592380D02*
X161080342Y-104592380D01*
X161175580Y-104544761D01*
X161223200Y-104497142D01*
X161318438Y-104354285D01*
X161366057Y-104163809D01*
X161366057Y-103782857D01*
X161318438Y-103687619D01*
X161270819Y-103640000D01*
X161175580Y-103592380D01*
X160985104Y-103592380D01*
X160889866Y-103640000D01*
X160842247Y-103687619D01*
X160794628Y-103782857D01*
X160794628Y-104020952D01*
X160842247Y-104116190D01*
X160889866Y-104163809D01*
X160985104Y-104211428D01*
X161175580Y-104211428D01*
X161270819Y-104163809D01*
X161318438Y-104116190D01*
X161366057Y-104020952D01*
%TO.C,R7*%
X86431380Y-133289666D02*
X85955190Y-133623000D01*
X86431380Y-133861095D02*
X85431380Y-133861095D01*
X85431380Y-133480142D01*
X85479000Y-133384904D01*
X85526619Y-133337285D01*
X85621857Y-133289666D01*
X85764714Y-133289666D01*
X85859952Y-133337285D01*
X85907571Y-133384904D01*
X85955190Y-133480142D01*
X85955190Y-133861095D01*
X85431380Y-132956333D02*
X85431380Y-132289666D01*
X86431380Y-132718238D01*
%TO.C,C12*%
X160789892Y-131429057D02*
X160837511Y-131476676D01*
X160885130Y-131619533D01*
X160885130Y-131714771D01*
X160837511Y-131857628D01*
X160742273Y-131952866D01*
X160647035Y-132000485D01*
X160456559Y-132048104D01*
X160313702Y-132048104D01*
X160123226Y-132000485D01*
X160027988Y-131952866D01*
X159932750Y-131857628D01*
X159885130Y-131714771D01*
X159885130Y-131619533D01*
X159932750Y-131476676D01*
X159980369Y-131429057D01*
X160885130Y-130476676D02*
X160885130Y-131048104D01*
X160885130Y-130762390D02*
X159885130Y-130762390D01*
X160027988Y-130857628D01*
X160123226Y-130952866D01*
X160170845Y-131048104D01*
X159980369Y-130095723D02*
X159932750Y-130048104D01*
X159885130Y-129952866D01*
X159885130Y-129714771D01*
X159932750Y-129619533D01*
X159980369Y-129571914D01*
X160075607Y-129524295D01*
X160170845Y-129524295D01*
X160313702Y-129571914D01*
X160885130Y-130143342D01*
X160885130Y-129524295D01*
%TO.C,C19*%
X92321142Y-108867542D02*
X92273523Y-108915161D01*
X92130666Y-108962780D01*
X92035428Y-108962780D01*
X91892571Y-108915161D01*
X91797333Y-108819923D01*
X91749714Y-108724685D01*
X91702095Y-108534209D01*
X91702095Y-108391352D01*
X91749714Y-108200876D01*
X91797333Y-108105638D01*
X91892571Y-108010400D01*
X92035428Y-107962780D01*
X92130666Y-107962780D01*
X92273523Y-108010400D01*
X92321142Y-108058019D01*
X93273523Y-108962780D02*
X92702095Y-108962780D01*
X92987809Y-108962780D02*
X92987809Y-107962780D01*
X92892571Y-108105638D01*
X92797333Y-108200876D01*
X92702095Y-108248495D01*
X93749714Y-108962780D02*
X93940190Y-108962780D01*
X94035428Y-108915161D01*
X94083047Y-108867542D01*
X94178285Y-108724685D01*
X94225904Y-108534209D01*
X94225904Y-108153257D01*
X94178285Y-108058019D01*
X94130666Y-108010400D01*
X94035428Y-107962780D01*
X93844952Y-107962780D01*
X93749714Y-108010400D01*
X93702095Y-108058019D01*
X93654476Y-108153257D01*
X93654476Y-108391352D01*
X93702095Y-108486590D01*
X93749714Y-108534209D01*
X93844952Y-108581828D01*
X94035428Y-108581828D01*
X94130666Y-108534209D01*
X94178285Y-108486590D01*
X94225904Y-108391352D01*
%TO.C,D2*%
X120369104Y-127210780D02*
X120369104Y-126210780D01*
X120607200Y-126210780D01*
X120750057Y-126258400D01*
X120845295Y-126353638D01*
X120892914Y-126448876D01*
X120940533Y-126639352D01*
X120940533Y-126782209D01*
X120892914Y-126972685D01*
X120845295Y-127067923D01*
X120750057Y-127163161D01*
X120607200Y-127210780D01*
X120369104Y-127210780D01*
X121321485Y-126306019D02*
X121369104Y-126258400D01*
X121464342Y-126210780D01*
X121702438Y-126210780D01*
X121797676Y-126258400D01*
X121845295Y-126306019D01*
X121892914Y-126401257D01*
X121892914Y-126496495D01*
X121845295Y-126639352D01*
X121273866Y-127210780D01*
X121892914Y-127210780D01*
%TO.C,J8*%
X159839066Y-83272380D02*
X159839066Y-83986666D01*
X159791447Y-84129523D01*
X159696209Y-84224761D01*
X159553352Y-84272380D01*
X159458114Y-84272380D01*
X160458114Y-83700952D02*
X160362876Y-83653333D01*
X160315257Y-83605714D01*
X160267638Y-83510476D01*
X160267638Y-83462857D01*
X160315257Y-83367619D01*
X160362876Y-83320000D01*
X160458114Y-83272380D01*
X160648590Y-83272380D01*
X160743828Y-83320000D01*
X160791447Y-83367619D01*
X160839066Y-83462857D01*
X160839066Y-83510476D01*
X160791447Y-83605714D01*
X160743828Y-83653333D01*
X160648590Y-83700952D01*
X160458114Y-83700952D01*
X160362876Y-83748571D01*
X160315257Y-83796190D01*
X160267638Y-83891428D01*
X160267638Y-84081904D01*
X160315257Y-84177142D01*
X160362876Y-84224761D01*
X160458114Y-84272380D01*
X160648590Y-84272380D01*
X160743828Y-84224761D01*
X160791447Y-84177142D01*
X160839066Y-84081904D01*
X160839066Y-83891428D01*
X160791447Y-83796190D01*
X160743828Y-83748571D01*
X160648590Y-83700952D01*
%TO.C,J17*%
X97513876Y-54722780D02*
X97513876Y-55437066D01*
X97466257Y-55579923D01*
X97371019Y-55675161D01*
X97228161Y-55722780D01*
X97132923Y-55722780D01*
X98513876Y-55722780D02*
X97942447Y-55722780D01*
X98228161Y-55722780D02*
X98228161Y-54722780D01*
X98132923Y-54865638D01*
X98037685Y-54960876D01*
X97942447Y-55008495D01*
X98847209Y-54722780D02*
X99513876Y-54722780D01*
X99085304Y-55722780D01*
%TO.C,R18*%
X100449142Y-91539380D02*
X100115809Y-91063190D01*
X99877714Y-91539380D02*
X99877714Y-90539380D01*
X100258666Y-90539380D01*
X100353904Y-90587000D01*
X100401523Y-90634619D01*
X100449142Y-90729857D01*
X100449142Y-90872714D01*
X100401523Y-90967952D01*
X100353904Y-91015571D01*
X100258666Y-91063190D01*
X99877714Y-91063190D01*
X101401523Y-91539380D02*
X100830095Y-91539380D01*
X101115809Y-91539380D02*
X101115809Y-90539380D01*
X101020571Y-90682238D01*
X100925333Y-90777476D01*
X100830095Y-90825095D01*
X101972952Y-90967952D02*
X101877714Y-90920333D01*
X101830095Y-90872714D01*
X101782476Y-90777476D01*
X101782476Y-90729857D01*
X101830095Y-90634619D01*
X101877714Y-90587000D01*
X101972952Y-90539380D01*
X102163428Y-90539380D01*
X102258666Y-90587000D01*
X102306285Y-90634619D01*
X102353904Y-90729857D01*
X102353904Y-90777476D01*
X102306285Y-90872714D01*
X102258666Y-90920333D01*
X102163428Y-90967952D01*
X101972952Y-90967952D01*
X101877714Y-91015571D01*
X101830095Y-91063190D01*
X101782476Y-91158428D01*
X101782476Y-91348904D01*
X101830095Y-91444142D01*
X101877714Y-91491761D01*
X101972952Y-91539380D01*
X102163428Y-91539380D01*
X102258666Y-91491761D01*
X102306285Y-91444142D01*
X102353904Y-91348904D01*
X102353904Y-91158428D01*
X102306285Y-91063190D01*
X102258666Y-91015571D01*
X102163428Y-90967952D01*
%TO.C,B1*%
X117502038Y-101936571D02*
X117644895Y-101984190D01*
X117692514Y-102031809D01*
X117740133Y-102127047D01*
X117740133Y-102269904D01*
X117692514Y-102365142D01*
X117644895Y-102412761D01*
X117549657Y-102460380D01*
X117168704Y-102460380D01*
X117168704Y-101460380D01*
X117502038Y-101460380D01*
X117597276Y-101508000D01*
X117644895Y-101555619D01*
X117692514Y-101650857D01*
X117692514Y-101746095D01*
X117644895Y-101841333D01*
X117597276Y-101888952D01*
X117502038Y-101936571D01*
X117168704Y-101936571D01*
X118692514Y-102460380D02*
X118121085Y-102460380D01*
X118406800Y-102460380D02*
X118406800Y-101460380D01*
X118311561Y-101603238D01*
X118216323Y-101698476D01*
X118121085Y-101746095D01*
X124663200Y-91046380D02*
X124663200Y-91284476D01*
X124425104Y-91189238D02*
X124663200Y-91284476D01*
X124901295Y-91189238D01*
X124520342Y-91474952D02*
X124663200Y-91284476D01*
X124806057Y-91474952D01*
%TO.C,C27*%
X125960142Y-58962857D02*
X126007761Y-59010476D01*
X126055380Y-59153333D01*
X126055380Y-59248571D01*
X126007761Y-59391428D01*
X125912523Y-59486666D01*
X125817285Y-59534285D01*
X125626809Y-59581904D01*
X125483952Y-59581904D01*
X125293476Y-59534285D01*
X125198238Y-59486666D01*
X125103000Y-59391428D01*
X125055380Y-59248571D01*
X125055380Y-59153333D01*
X125103000Y-59010476D01*
X125150619Y-58962857D01*
X125150619Y-58581904D02*
X125103000Y-58534285D01*
X125055380Y-58439047D01*
X125055380Y-58200952D01*
X125103000Y-58105714D01*
X125150619Y-58058095D01*
X125245857Y-58010476D01*
X125341095Y-58010476D01*
X125483952Y-58058095D01*
X126055380Y-58629523D01*
X126055380Y-58010476D01*
X125055380Y-57677142D02*
X125055380Y-57010476D01*
X126055380Y-57439047D01*
%TO.C,J9*%
X154149466Y-83272380D02*
X154149466Y-83986666D01*
X154101847Y-84129523D01*
X154006609Y-84224761D01*
X153863752Y-84272380D01*
X153768514Y-84272380D01*
X154673276Y-84272380D02*
X154863752Y-84272380D01*
X154958990Y-84224761D01*
X155006609Y-84177142D01*
X155101847Y-84034285D01*
X155149466Y-83843809D01*
X155149466Y-83462857D01*
X155101847Y-83367619D01*
X155054228Y-83320000D01*
X154958990Y-83272380D01*
X154768514Y-83272380D01*
X154673276Y-83320000D01*
X154625657Y-83367619D01*
X154578038Y-83462857D01*
X154578038Y-83700952D01*
X154625657Y-83796190D01*
X154673276Y-83843809D01*
X154768514Y-83891428D01*
X154958990Y-83891428D01*
X155054228Y-83843809D01*
X155101847Y-83796190D01*
X155149466Y-83700952D01*
%TO.C,C25*%
X140326342Y-60637657D02*
X140373961Y-60685276D01*
X140421580Y-60828133D01*
X140421580Y-60923371D01*
X140373961Y-61066228D01*
X140278723Y-61161466D01*
X140183485Y-61209085D01*
X139993009Y-61256704D01*
X139850152Y-61256704D01*
X139659676Y-61209085D01*
X139564438Y-61161466D01*
X139469200Y-61066228D01*
X139421580Y-60923371D01*
X139421580Y-60828133D01*
X139469200Y-60685276D01*
X139516819Y-60637657D01*
X139516819Y-60256704D02*
X139469200Y-60209085D01*
X139421580Y-60113847D01*
X139421580Y-59875752D01*
X139469200Y-59780514D01*
X139516819Y-59732895D01*
X139612057Y-59685276D01*
X139707295Y-59685276D01*
X139850152Y-59732895D01*
X140421580Y-60304323D01*
X140421580Y-59685276D01*
X139421580Y-58780514D02*
X139421580Y-59256704D01*
X139897771Y-59304323D01*
X139850152Y-59256704D01*
X139802533Y-59161466D01*
X139802533Y-58923371D01*
X139850152Y-58828133D01*
X139897771Y-58780514D01*
X139993009Y-58732895D01*
X140231104Y-58732895D01*
X140326342Y-58780514D01*
X140373961Y-58828133D01*
X140421580Y-58923371D01*
X140421580Y-59161466D01*
X140373961Y-59256704D01*
X140326342Y-59304323D01*
%TO.C,C9*%
X163917333Y-140592142D02*
X163869714Y-140639761D01*
X163726857Y-140687380D01*
X163631619Y-140687380D01*
X163488761Y-140639761D01*
X163393523Y-140544523D01*
X163345904Y-140449285D01*
X163298285Y-140258809D01*
X163298285Y-140115952D01*
X163345904Y-139925476D01*
X163393523Y-139830238D01*
X163488761Y-139735000D01*
X163631619Y-139687380D01*
X163726857Y-139687380D01*
X163869714Y-139735000D01*
X163917333Y-139782619D01*
X164393523Y-140687380D02*
X164584000Y-140687380D01*
X164679238Y-140639761D01*
X164726857Y-140592142D01*
X164822095Y-140449285D01*
X164869714Y-140258809D01*
X164869714Y-139877857D01*
X164822095Y-139782619D01*
X164774476Y-139735000D01*
X164679238Y-139687380D01*
X164488761Y-139687380D01*
X164393523Y-139735000D01*
X164345904Y-139782619D01*
X164298285Y-139877857D01*
X164298285Y-140115952D01*
X164345904Y-140211190D01*
X164393523Y-140258809D01*
X164488761Y-140306428D01*
X164679238Y-140306428D01*
X164774476Y-140258809D01*
X164822095Y-140211190D01*
X164869714Y-140115952D01*
%TO.C,R19*%
X113356380Y-79536857D02*
X112880190Y-79870190D01*
X113356380Y-80108285D02*
X112356380Y-80108285D01*
X112356380Y-79727333D01*
X112404000Y-79632095D01*
X112451619Y-79584476D01*
X112546857Y-79536857D01*
X112689714Y-79536857D01*
X112784952Y-79584476D01*
X112832571Y-79632095D01*
X112880190Y-79727333D01*
X112880190Y-80108285D01*
X113356380Y-78584476D02*
X113356380Y-79155904D01*
X113356380Y-78870190D02*
X112356380Y-78870190D01*
X112499238Y-78965428D01*
X112594476Y-79060666D01*
X112642095Y-79155904D01*
X113356380Y-78108285D02*
X113356380Y-77917809D01*
X113308761Y-77822571D01*
X113261142Y-77774952D01*
X113118285Y-77679714D01*
X112927809Y-77632095D01*
X112546857Y-77632095D01*
X112451619Y-77679714D01*
X112404000Y-77727333D01*
X112356380Y-77822571D01*
X112356380Y-78013047D01*
X112404000Y-78108285D01*
X112451619Y-78155904D01*
X112546857Y-78203523D01*
X112784952Y-78203523D01*
X112880190Y-78155904D01*
X112927809Y-78108285D01*
X112975428Y-78013047D01*
X112975428Y-77822571D01*
X112927809Y-77727333D01*
X112880190Y-77679714D01*
X112784952Y-77632095D01*
%TO.C,R15*%
X152115380Y-94980857D02*
X151639190Y-95314190D01*
X152115380Y-95552285D02*
X151115380Y-95552285D01*
X151115380Y-95171333D01*
X151163000Y-95076095D01*
X151210619Y-95028476D01*
X151305857Y-94980857D01*
X151448714Y-94980857D01*
X151543952Y-95028476D01*
X151591571Y-95076095D01*
X151639190Y-95171333D01*
X151639190Y-95552285D01*
X152115380Y-94028476D02*
X152115380Y-94599904D01*
X152115380Y-94314190D02*
X151115380Y-94314190D01*
X151258238Y-94409428D01*
X151353476Y-94504666D01*
X151401095Y-94599904D01*
X151115380Y-93123714D02*
X151115380Y-93599904D01*
X151591571Y-93647523D01*
X151543952Y-93599904D01*
X151496333Y-93504666D01*
X151496333Y-93266571D01*
X151543952Y-93171333D01*
X151591571Y-93123714D01*
X151686809Y-93076095D01*
X151924904Y-93076095D01*
X152020142Y-93123714D01*
X152067761Y-93171333D01*
X152115380Y-93266571D01*
X152115380Y-93504666D01*
X152067761Y-93599904D01*
X152020142Y-93647523D01*
%TO.C,C26*%
X137228342Y-104397142D02*
X137180723Y-104444761D01*
X137037866Y-104492380D01*
X136942628Y-104492380D01*
X136799771Y-104444761D01*
X136704533Y-104349523D01*
X136656914Y-104254285D01*
X136609295Y-104063809D01*
X136609295Y-103920952D01*
X136656914Y-103730476D01*
X136704533Y-103635238D01*
X136799771Y-103540000D01*
X136942628Y-103492380D01*
X137037866Y-103492380D01*
X137180723Y-103540000D01*
X137228342Y-103587619D01*
X137609295Y-103587619D02*
X137656914Y-103540000D01*
X137752152Y-103492380D01*
X137990247Y-103492380D01*
X138085485Y-103540000D01*
X138133104Y-103587619D01*
X138180723Y-103682857D01*
X138180723Y-103778095D01*
X138133104Y-103920952D01*
X137561676Y-104492380D01*
X138180723Y-104492380D01*
X139037866Y-103492380D02*
X138847390Y-103492380D01*
X138752152Y-103540000D01*
X138704533Y-103587619D01*
X138609295Y-103730476D01*
X138561676Y-103920952D01*
X138561676Y-104301904D01*
X138609295Y-104397142D01*
X138656914Y-104444761D01*
X138752152Y-104492380D01*
X138942628Y-104492380D01*
X139037866Y-104444761D01*
X139085485Y-104397142D01*
X139133104Y-104301904D01*
X139133104Y-104063809D01*
X139085485Y-103968571D01*
X139037866Y-103920952D01*
X138942628Y-103873333D01*
X138752152Y-103873333D01*
X138656914Y-103920952D01*
X138609295Y-103968571D01*
X138561676Y-104063809D01*
%TO.C,R1*%
X143403580Y-134534266D02*
X142927390Y-134867600D01*
X143403580Y-135105695D02*
X142403580Y-135105695D01*
X142403580Y-134724742D01*
X142451200Y-134629504D01*
X142498819Y-134581885D01*
X142594057Y-134534266D01*
X142736914Y-134534266D01*
X142832152Y-134581885D01*
X142879771Y-134629504D01*
X142927390Y-134724742D01*
X142927390Y-135105695D01*
X143403580Y-133581885D02*
X143403580Y-134153314D01*
X143403580Y-133867600D02*
X142403580Y-133867600D01*
X142546438Y-133962838D01*
X142641676Y-134058076D01*
X142689295Y-134153314D01*
%TO.C,C39*%
X134807142Y-110677257D02*
X134854761Y-110724876D01*
X134902380Y-110867733D01*
X134902380Y-110962971D01*
X134854761Y-111105828D01*
X134759523Y-111201066D01*
X134664285Y-111248685D01*
X134473809Y-111296304D01*
X134330952Y-111296304D01*
X134140476Y-111248685D01*
X134045238Y-111201066D01*
X133950000Y-111105828D01*
X133902380Y-110962971D01*
X133902380Y-110867733D01*
X133950000Y-110724876D01*
X133997619Y-110677257D01*
X133902380Y-110343923D02*
X133902380Y-109724876D01*
X134283333Y-110058209D01*
X134283333Y-109915352D01*
X134330952Y-109820114D01*
X134378571Y-109772495D01*
X134473809Y-109724876D01*
X134711904Y-109724876D01*
X134807142Y-109772495D01*
X134854761Y-109820114D01*
X134902380Y-109915352D01*
X134902380Y-110201066D01*
X134854761Y-110296304D01*
X134807142Y-110343923D01*
X134902380Y-109248685D02*
X134902380Y-109058209D01*
X134854761Y-108962971D01*
X134807142Y-108915352D01*
X134664285Y-108820114D01*
X134473809Y-108772495D01*
X134092857Y-108772495D01*
X133997619Y-108820114D01*
X133950000Y-108867733D01*
X133902380Y-108962971D01*
X133902380Y-109153447D01*
X133950000Y-109248685D01*
X133997619Y-109296304D01*
X134092857Y-109343923D01*
X134330952Y-109343923D01*
X134426190Y-109296304D01*
X134473809Y-109248685D01*
X134521428Y-109153447D01*
X134521428Y-108962971D01*
X134473809Y-108867733D01*
X134426190Y-108820114D01*
X134330952Y-108772495D01*
%TO.C,R11*%
X105863380Y-135035857D02*
X105387190Y-135369190D01*
X105863380Y-135607285D02*
X104863380Y-135607285D01*
X104863380Y-135226333D01*
X104911000Y-135131095D01*
X104958619Y-135083476D01*
X105053857Y-135035857D01*
X105196714Y-135035857D01*
X105291952Y-135083476D01*
X105339571Y-135131095D01*
X105387190Y-135226333D01*
X105387190Y-135607285D01*
X105863380Y-134083476D02*
X105863380Y-134654904D01*
X105863380Y-134369190D02*
X104863380Y-134369190D01*
X105006238Y-134464428D01*
X105101476Y-134559666D01*
X105149095Y-134654904D01*
X105863380Y-133131095D02*
X105863380Y-133702523D01*
X105863380Y-133416809D02*
X104863380Y-133416809D01*
X105006238Y-133512047D01*
X105101476Y-133607285D01*
X105149095Y-133702523D01*
%TO.C,C11*%
X147372342Y-138795057D02*
X147419961Y-138842676D01*
X147467580Y-138985533D01*
X147467580Y-139080771D01*
X147419961Y-139223628D01*
X147324723Y-139318866D01*
X147229485Y-139366485D01*
X147039009Y-139414104D01*
X146896152Y-139414104D01*
X146705676Y-139366485D01*
X146610438Y-139318866D01*
X146515200Y-139223628D01*
X146467580Y-139080771D01*
X146467580Y-138985533D01*
X146515200Y-138842676D01*
X146562819Y-138795057D01*
X147467580Y-137842676D02*
X147467580Y-138414104D01*
X147467580Y-138128390D02*
X146467580Y-138128390D01*
X146610438Y-138223628D01*
X146705676Y-138318866D01*
X146753295Y-138414104D01*
X147467580Y-136890295D02*
X147467580Y-137461723D01*
X147467580Y-137176009D02*
X146467580Y-137176009D01*
X146610438Y-137271247D01*
X146705676Y-137366485D01*
X146753295Y-137461723D01*
%TO.C,Y2*%
X148875809Y-60732990D02*
X148875809Y-61209180D01*
X148542476Y-60209180D02*
X148875809Y-60732990D01*
X149209142Y-60209180D01*
X149494857Y-60304419D02*
X149542476Y-60256800D01*
X149637714Y-60209180D01*
X149875809Y-60209180D01*
X149971047Y-60256800D01*
X150018666Y-60304419D01*
X150066285Y-60399657D01*
X150066285Y-60494895D01*
X150018666Y-60637752D01*
X149447238Y-61209180D01*
X150066285Y-61209180D01*
D11*
%TO.C,R14*%
X149023000Y-90531436D02*
X149023000Y-90985564D01*
X150493000Y-90531436D02*
X150493000Y-90985564D01*
%TO.C,D3*%
X157730400Y-129870800D02*
X152330400Y-129870800D01*
X157730400Y-129870800D02*
X157730400Y-126570800D01*
X157730400Y-126570800D02*
X152330400Y-126570800D01*
%TO.C,J15*%
X92269000Y-48795000D02*
X94929000Y-48795000D01*
X92269000Y-53935000D02*
X94929000Y-53935000D01*
X94929000Y-46195000D02*
X94929000Y-47525000D01*
X94929000Y-48795000D02*
X94929000Y-53935000D01*
X93599000Y-46195000D02*
X94929000Y-46195000D01*
X92269000Y-48795000D02*
X92269000Y-53935000D01*
%TO.C,C18*%
X102770000Y-130194748D02*
X102770000Y-130717252D01*
X104240000Y-130194748D02*
X104240000Y-130717252D01*
%TO.C,L3*%
X128905000Y-130633800D02*
X141655800Y-130633800D01*
X141655800Y-130633800D02*
X141655800Y-127347040D01*
X128905000Y-117883000D02*
X128905000Y-121169760D01*
X128905000Y-127347040D02*
X128905000Y-130633800D01*
X141655800Y-117883000D02*
X128905000Y-117883000D01*
X141655800Y-121169760D02*
X141655800Y-117883000D01*
%TO.C,J27*%
X142367000Y-51374600D02*
X124527000Y-51374600D01*
X144967000Y-46174600D02*
X124527000Y-46174600D01*
X144967000Y-48774600D02*
X142367000Y-48774600D01*
X124527000Y-46174600D02*
X124527000Y-51374600D01*
X144967000Y-51374600D02*
X143637000Y-51374600D01*
X142367000Y-48774600D02*
X142367000Y-51374600D01*
X144967000Y-50044600D02*
X144967000Y-51374600D01*
X144967000Y-46174600D02*
X144967000Y-48774600D01*
%TO.C,R4*%
X108434200Y-105841864D02*
X108434200Y-105387736D01*
X109904200Y-105841864D02*
X109904200Y-105387736D01*
%TO.C,J2*%
X87570000Y-53935000D02*
X90230000Y-53935000D01*
X90230000Y-48795000D02*
X90230000Y-53935000D01*
X87570000Y-48795000D02*
X87570000Y-53935000D01*
X88900000Y-46195000D02*
X90230000Y-46195000D01*
X90230000Y-46195000D02*
X90230000Y-47525000D01*
X87570000Y-48795000D02*
X90230000Y-48795000D01*
%TO.C,R23*%
X114962000Y-54711664D02*
X114962000Y-54257536D01*
X116432000Y-54711664D02*
X116432000Y-54257536D01*
%TO.C,R25*%
X121512000Y-54711664D02*
X121512000Y-54257536D01*
X120042000Y-54711664D02*
X120042000Y-54257536D01*
%TO.C,R5*%
X172489864Y-132892800D02*
X172035736Y-132892800D01*
X172489864Y-131422800D02*
X172035736Y-131422800D01*
%TO.C,C15*%
X105021748Y-138938000D02*
X105544252Y-138938000D01*
X105021748Y-137468000D02*
X105544252Y-137468000D01*
%TO.C,D5*%
X115880000Y-77894000D02*
X115880000Y-80579000D01*
X117800000Y-80579000D02*
X117800000Y-77894000D01*
X115880000Y-80579000D02*
X117800000Y-80579000D01*
%TO.C,J24*%
X165287000Y-51368000D02*
X163957000Y-51368000D01*
X165287000Y-46168000D02*
X147387000Y-46168000D01*
X162687000Y-51368000D02*
X147387000Y-51368000D01*
X147387000Y-46168000D02*
X147387000Y-51368000D01*
X162687000Y-48768000D02*
X162687000Y-51368000D01*
X165287000Y-48768000D02*
X162687000Y-48768000D01*
X165287000Y-50038000D02*
X165287000Y-51368000D01*
X165287000Y-46168000D02*
X165287000Y-48768000D01*
%TO.C,J12*%
X172737000Y-100189200D02*
X170077000Y-100189200D01*
X172737000Y-100189200D02*
X172737000Y-84889200D01*
X170077000Y-102789200D02*
X170077000Y-101459200D01*
X170077000Y-100189200D02*
X170077000Y-84889200D01*
X172737000Y-84889200D02*
X170077000Y-84889200D01*
X171407000Y-102789200D02*
X170077000Y-102789200D01*
%TO.C,F1*%
X121647664Y-135700800D02*
X120443536Y-135700800D01*
X121647664Y-137520800D02*
X120443536Y-137520800D01*
%TO.C,C14*%
X92019800Y-131522852D02*
X92019800Y-130100348D01*
X90199800Y-131522852D02*
X90199800Y-130100348D01*
%TO.C,C23*%
X92610000Y-87410252D02*
X92610000Y-86887748D01*
X94080000Y-87410252D02*
X94080000Y-86887748D01*
%TO.C,L1*%
X173812200Y-113717400D02*
X170525440Y-113717400D01*
X161061400Y-113717400D02*
X161061400Y-126468200D01*
X161061400Y-126468200D02*
X164348160Y-126468200D01*
X164348160Y-113717400D02*
X161061400Y-113717400D01*
X173812200Y-126468200D02*
X173812200Y-113717400D01*
X170525440Y-126468200D02*
X173812200Y-126468200D01*
D12*
%TO.C,SW1*%
X104681300Y-100851000D02*
X104681300Y-105451000D01*
X100536300Y-100151000D02*
X102836300Y-100151000D01*
X100536300Y-106146000D02*
X102836300Y-106146000D01*
X98691300Y-105351000D02*
X98691300Y-100851000D01*
D13*
X99536300Y-107596000D02*
G75*
G03*
X99536300Y-107596000I-100000J0D01*
G01*
D12*
X103441300Y-103151000D02*
G75*
G03*
X103441300Y-103151000I-1755000J0D01*
G01*
D11*
%TO.C,J5*%
X91271000Y-82079000D02*
X91271000Y-89759000D01*
X91271000Y-79479000D02*
X91271000Y-80809000D01*
X88611000Y-82079000D02*
X88611000Y-89759000D01*
X88611000Y-82079000D02*
X91271000Y-82079000D01*
X88611000Y-89759000D02*
X91271000Y-89759000D01*
X89941000Y-79479000D02*
X91271000Y-79479000D01*
%TO.C,D4*%
X100174000Y-128550000D02*
X94774000Y-128550000D01*
X100174000Y-128550000D02*
X100174000Y-125250000D01*
X100174000Y-125250000D02*
X94774000Y-125250000D01*
%TO.C,R3*%
X145438800Y-137925136D02*
X145438800Y-138379264D01*
X143968800Y-137925136D02*
X143968800Y-138379264D01*
%TO.C,J11*%
X167065000Y-84930000D02*
X164405000Y-84930000D01*
X167065000Y-100230000D02*
X167065000Y-84930000D01*
X165735000Y-102830000D02*
X164405000Y-102830000D01*
X164405000Y-102830000D02*
X164405000Y-101500000D01*
X164405000Y-100230000D02*
X164405000Y-84930000D01*
X167065000Y-100230000D02*
X164405000Y-100230000D01*
%TO.C,R6*%
X165127000Y-134848664D02*
X165127000Y-134394536D01*
X166597000Y-134848664D02*
X166597000Y-134394536D01*
%TO.C,R47*%
X102297500Y-95684936D02*
X102297500Y-96139064D01*
X103767500Y-95684936D02*
X103767500Y-96139064D01*
%TO.C,C40*%
X130646800Y-110999600D02*
G75*
G03*
X130646800Y-110999600I-5120000J0D01*
G01*
%TO.C,J10*%
X122107000Y-51395000D02*
X122107000Y-46195000D01*
X109347000Y-51395000D02*
X122107000Y-51395000D01*
X106747000Y-48795000D02*
X106747000Y-46195000D01*
X106747000Y-46195000D02*
X122107000Y-46195000D01*
X106747000Y-51395000D02*
X106747000Y-50065000D01*
X109347000Y-48795000D02*
X106747000Y-48795000D01*
X109347000Y-51395000D02*
X109347000Y-48795000D01*
X108077000Y-51395000D02*
X106747000Y-51395000D01*
%TO.C,C1*%
X115831252Y-63500000D02*
X115308748Y-63500000D01*
X115831252Y-62030000D02*
X115308748Y-62030000D01*
D12*
%TO.C,Y1*%
X139332000Y-75831000D02*
X139332000Y-64431000D01*
X144132000Y-75831000D02*
X142986000Y-75831000D01*
X139332000Y-64431000D02*
X140478000Y-64431000D01*
X144132000Y-64431000D02*
X144132000Y-75831000D01*
X142986000Y-64431000D02*
X144132000Y-64431000D01*
X140478000Y-75831000D02*
X139332000Y-75831000D01*
D11*
%TO.C,J13*%
X167116200Y-62130000D02*
X164456200Y-62130000D01*
X164456200Y-64730000D02*
X164456200Y-63400000D01*
X165786200Y-64730000D02*
X164456200Y-64730000D01*
X164456200Y-62130000D02*
X164456200Y-56990000D01*
X167116200Y-62130000D02*
X167116200Y-56990000D01*
X167116200Y-56990000D02*
X164456200Y-56990000D01*
%TO.C,J14*%
X170501000Y-64730000D02*
X170501000Y-63400000D01*
X173161000Y-62130000D02*
X173161000Y-56990000D01*
X171831000Y-64730000D02*
X170501000Y-64730000D01*
X170501000Y-62130000D02*
X170501000Y-56990000D01*
X173161000Y-56990000D02*
X170501000Y-56990000D01*
X173161000Y-62130000D02*
X170501000Y-62130000D01*
%TO.C,R49*%
X133526264Y-112855400D02*
X133072136Y-112855400D01*
X133526264Y-114325400D02*
X133072136Y-114325400D01*
%TO.C,C20*%
X145061000Y-72155748D02*
X145061000Y-72678252D01*
X146531000Y-72155748D02*
X146531000Y-72678252D01*
%TO.C,J26*%
X125699200Y-132550800D02*
X125699200Y-141670800D01*
X132001200Y-137602800D02*
X131606200Y-137998800D01*
X126977200Y-138157800D02*
X126871200Y-138264800D01*
X125459200Y-141270800D02*
X125459200Y-141910800D01*
X129913200Y-135222800D02*
X129806200Y-135329800D01*
X125459200Y-141910800D02*
X125859200Y-141910800D01*
X134913200Y-135222800D02*
X134518200Y-135618800D01*
X125699200Y-132550800D02*
X135819200Y-132550800D01*
X129647200Y-134956800D02*
X129540200Y-135063800D01*
X125699200Y-141210800D02*
X135819200Y-141210800D01*
X125699200Y-140110800D02*
X135819200Y-140110800D01*
X134647200Y-134956800D02*
X134267200Y-135336800D01*
X126711200Y-137891800D02*
X126605200Y-137998800D01*
X132252200Y-137884800D02*
X131872200Y-138264800D01*
X135819200Y-132550800D02*
X135819200Y-141670800D01*
X125699200Y-141670800D02*
X135819200Y-141670800D01*
X135439200Y-136610800D02*
G75*
G03*
X135439200Y-136610800I-2180000J0D01*
G01*
X130439200Y-136610800D02*
G75*
G03*
X130439200Y-136610800I-2180000J0D01*
G01*
%TO.C,J18*%
X150765200Y-110428400D02*
X150765200Y-107828400D01*
X150765200Y-110428400D02*
X155965200Y-110428400D01*
X150765200Y-106558400D02*
X150765200Y-105228400D01*
X150765200Y-105228400D02*
X152095200Y-105228400D01*
X153365200Y-105228400D02*
X155965200Y-105228400D01*
X153365200Y-107828400D02*
X153365200Y-105228400D01*
X155965200Y-110428400D02*
X155965200Y-105228400D01*
X150765200Y-107828400D02*
X153365200Y-107828400D01*
%TO.C,C6*%
X128268000Y-80404420D02*
X128268000Y-80685580D01*
X129288000Y-80404420D02*
X129288000Y-80685580D01*
%TO.C,U2*%
X96774000Y-131452000D02*
X93324000Y-131452000D01*
X96774000Y-136572000D02*
X94824000Y-136572000D01*
X96774000Y-136572000D02*
X98724000Y-136572000D01*
X96774000Y-131452000D02*
X98724000Y-131452000D01*
%TO.C,R17*%
X144791164Y-97993400D02*
X144337036Y-97993400D01*
X144791164Y-96523400D02*
X144337036Y-96523400D01*
%TO.C,R24*%
X117502000Y-54711664D02*
X117502000Y-54257536D01*
X118972000Y-54711664D02*
X118972000Y-54257536D01*
%TO.C,C24*%
X141012200Y-56598452D02*
X141012200Y-56075948D01*
X142482200Y-56598452D02*
X142482200Y-56075948D01*
D10*
%TO.C,TP2*%
X83487200Y-130860800D02*
G75*
G03*
X83487200Y-130860800I-1750000J0D01*
G01*
D11*
%TO.C,C22*%
X168175000Y-72027148D02*
X168175000Y-72549652D01*
X169645000Y-72027148D02*
X169645000Y-72549652D01*
D10*
%TO.C,TP1*%
X160855600Y-56819800D02*
G75*
G03*
X160855600Y-56819800I-1750000J0D01*
G01*
D11*
%TO.C,R8*%
X113438000Y-129974936D02*
X113438000Y-130429064D01*
X114908000Y-129974936D02*
X114908000Y-130429064D01*
%TO.C,C13*%
X157689550Y-118020160D02*
X157689550Y-113730100D01*
X157689550Y-113730100D02*
X146945350Y-113730100D01*
X157689550Y-124474300D02*
X157689550Y-120184240D01*
X146945350Y-124474300D02*
X157689550Y-124474300D01*
X146945350Y-113730100D02*
X146945350Y-118020160D01*
X146945350Y-120184240D02*
X146945350Y-124474300D01*
%TO.C,C17*%
X90400200Y-136620948D02*
X90400200Y-137143452D01*
X91870200Y-136620948D02*
X91870200Y-137143452D01*
%TO.C,R48*%
X101100500Y-96139064D02*
X101100500Y-95684936D01*
X99630500Y-96139064D02*
X99630500Y-95684936D01*
%TO.C,J6*%
X173186000Y-69710000D02*
X173186000Y-71040000D01*
X170526000Y-72310000D02*
X173186000Y-72310000D01*
X173186000Y-72310000D02*
X173186000Y-79990000D01*
X170526000Y-72310000D02*
X170526000Y-79990000D01*
X171856000Y-69710000D02*
X173186000Y-69710000D01*
X170526000Y-79990000D02*
X173186000Y-79990000D01*
%TO.C,C4*%
X121587800Y-80404420D02*
X121587800Y-80685580D01*
X122607800Y-80404420D02*
X122607800Y-80685580D01*
%TO.C,J1*%
X79422000Y-74429000D02*
X79422000Y-59129000D01*
X79422000Y-77029000D02*
X79422000Y-75699000D01*
X84622000Y-59129000D02*
X79422000Y-59129000D01*
X82022000Y-74429000D02*
X79422000Y-74429000D01*
X84622000Y-77029000D02*
X84622000Y-59129000D01*
X82022000Y-77029000D02*
X82022000Y-74429000D01*
X84622000Y-77029000D02*
X82022000Y-77029000D01*
X80752000Y-77029000D02*
X79422000Y-77029000D01*
%TO.C,R21*%
X109882000Y-54711664D02*
X109882000Y-54257536D01*
X111352000Y-54711664D02*
X111352000Y-54257536D01*
%TO.C,C16*%
X102770000Y-134654252D02*
X102770000Y-134131748D01*
X104240000Y-134654252D02*
X104240000Y-134131748D01*
%TO.C,R9*%
X88365000Y-136604336D02*
X88365000Y-137058464D01*
X86895000Y-136604336D02*
X86895000Y-137058464D01*
%TO.C,C21*%
X145061000Y-68360252D02*
X145061000Y-67837748D01*
X146531000Y-68360252D02*
X146531000Y-67837748D01*
D12*
%TO.C,J7*%
X95926500Y-107152000D02*
X80296500Y-107152000D01*
X95926500Y-93562000D02*
X95926500Y-107152000D01*
X80296500Y-107152000D02*
X80296500Y-93562000D01*
X80296500Y-93562000D02*
X95926500Y-93562000D01*
D14*
X96936500Y-97242000D02*
G75*
G03*
X96936500Y-97242000I-200000J0D01*
G01*
D11*
%TO.C,MOSFET1*%
X121158000Y-129216000D02*
X121808000Y-129216000D01*
X121158000Y-129216000D02*
X120508000Y-129216000D01*
X121158000Y-132336000D02*
X122833000Y-132336000D01*
X121158000Y-132336000D02*
X120508000Y-132336000D01*
%TO.C,R13*%
X149125000Y-76611436D02*
X149125000Y-77065564D01*
X150595000Y-76611436D02*
X150595000Y-77065564D01*
%TO.C,U1*%
X155492450Y-136902200D02*
X153542450Y-136902200D01*
X155492450Y-136902200D02*
X157442450Y-136902200D01*
X155492450Y-131782200D02*
X157442450Y-131782200D01*
X155492450Y-131782200D02*
X152042450Y-131782200D01*
%TO.C,J25*%
X164532000Y-79970000D02*
X167192000Y-79970000D01*
X167192000Y-69690000D02*
X167192000Y-71020000D01*
X164532000Y-72290000D02*
X164532000Y-79970000D01*
X164532000Y-72290000D02*
X167192000Y-72290000D01*
X165862000Y-69690000D02*
X167192000Y-69690000D01*
X167192000Y-72290000D02*
X167192000Y-79970000D01*
%TO.C,L2*%
X112393000Y-114504000D02*
X115393000Y-114504000D01*
X102793000Y-114504000D02*
X105793000Y-114504000D01*
X105793000Y-127104000D02*
X102793000Y-127104000D01*
X115393000Y-127104000D02*
X112393000Y-127104000D01*
X102793000Y-127104000D02*
X102793000Y-114504000D01*
X115393000Y-114504000D02*
X115393000Y-127104000D01*
%TO.C,C5*%
X124712000Y-80404420D02*
X124712000Y-80685580D01*
X125732000Y-80404420D02*
X125732000Y-80685580D01*
%TO.C,R20*%
X108812000Y-54711664D02*
X108812000Y-54257536D01*
X107342000Y-54711664D02*
X107342000Y-54257536D01*
%TO.C,C3*%
X115507380Y-71043400D02*
X115226220Y-71043400D01*
X115507380Y-72063400D02*
X115226220Y-72063400D01*
%TO.C,U4*%
X139725400Y-100852500D02*
X139725400Y-100524840D01*
X131876800Y-100852500D02*
X139725400Y-100852500D01*
X131876800Y-100524840D02*
X131876800Y-100852500D01*
X139725400Y-90108300D02*
X131876800Y-90108300D01*
X131876800Y-90108300D02*
X131876800Y-90435960D01*
X139725400Y-90435960D02*
X139725400Y-90108300D01*
D15*
X129616200Y-92495900D02*
X129616200Y-92114900D01*
X129616200Y-92114900D02*
X129870200Y-92114900D01*
X129870200Y-92114900D02*
X129870200Y-92495900D01*
X129870200Y-92495900D02*
X129616200Y-92495900D01*
G36*
X129870200Y-92495900D02*
G01*
X129616200Y-92495900D01*
X129616200Y-92114900D01*
X129870200Y-92114900D01*
X129870200Y-92495900D01*
G37*
X129870200Y-92495900D02*
X129616200Y-92495900D01*
X129616200Y-92114900D01*
X129870200Y-92114900D01*
X129870200Y-92495900D01*
D11*
%TO.C,C2*%
X115545180Y-65455400D02*
X115264020Y-65455400D01*
X115545180Y-66475400D02*
X115264020Y-66475400D01*
%TO.C,C10*%
X161571000Y-134933652D02*
X161571000Y-134411148D01*
X163041000Y-134933652D02*
X163041000Y-134411148D01*
%TO.C,R16*%
X144791164Y-98809400D02*
X144337036Y-98809400D01*
X144791164Y-100279400D02*
X144337036Y-100279400D01*
%TO.C,R12*%
X150595000Y-80875564D02*
X150595000Y-80421436D01*
X149125000Y-80875564D02*
X149125000Y-80421436D01*
%TO.C,R22*%
X112422000Y-54711664D02*
X112422000Y-54257536D01*
X113892000Y-54711664D02*
X113892000Y-54257536D01*
%TO.C,D1*%
X110062200Y-110492800D02*
X110062200Y-107807800D01*
X108142200Y-107807800D02*
X108142200Y-110492800D01*
X110062200Y-107807800D02*
X108142200Y-107807800D01*
%TO.C,R10*%
X113511064Y-132515000D02*
X113056936Y-132515000D01*
X113511064Y-133985000D02*
X113056936Y-133985000D01*
%TO.C,R2*%
X172239000Y-128908136D02*
X172239000Y-129362264D01*
X173709000Y-128908136D02*
X173709000Y-129362264D01*
%TO.C,C7*%
X136638420Y-71911000D02*
X136919580Y-71911000D01*
X136638420Y-70891000D02*
X136919580Y-70891000D01*
%TO.C,J4*%
X167115800Y-107848400D02*
X167115800Y-110448400D01*
X165785800Y-105248400D02*
X167115800Y-105248400D01*
X164455800Y-107848400D02*
X167115800Y-107848400D01*
X164455800Y-110448400D02*
X167115800Y-110448400D01*
X164455800Y-107848400D02*
X164455800Y-110448400D01*
X167115800Y-105248400D02*
X167115800Y-106578400D01*
%TO.C,U3*%
X119354600Y-64263600D02*
X119354600Y-65137959D01*
X130723038Y-76506400D02*
X131597400Y-76506400D01*
X131597400Y-64263600D02*
X130723041Y-64263600D01*
X120228962Y-64263600D02*
X119354600Y-64263600D01*
X119354600Y-76506400D02*
X120228959Y-76506400D01*
X131597400Y-65137962D02*
X131597400Y-64263600D01*
X119354600Y-75632041D02*
X119354600Y-76506400D01*
X131597400Y-76506400D02*
X131597400Y-75632041D01*
D15*
X117614700Y-72994499D02*
X117614700Y-73375499D01*
X117614700Y-73375499D02*
X117868700Y-73375499D01*
X117868700Y-73375499D02*
X117868700Y-72994499D01*
X117868700Y-72994499D02*
X117614700Y-72994499D01*
G36*
X117868700Y-73375499D02*
G01*
X117614700Y-73375499D01*
X117614700Y-72994499D01*
X117868700Y-72994499D01*
X117868700Y-73375499D01*
G37*
X117868700Y-73375499D02*
X117614700Y-73375499D01*
X117614700Y-72994499D01*
X117868700Y-72994499D01*
X117868700Y-73375499D01*
X124485499Y-62777700D02*
X124485499Y-62523700D01*
X124485499Y-62523700D02*
X124866499Y-62523700D01*
X124866499Y-62523700D02*
X124866499Y-62777700D01*
X124866499Y-62777700D02*
X124485499Y-62777700D01*
G36*
X124866499Y-62777700D02*
G01*
X124485499Y-62777700D01*
X124485499Y-62523700D01*
X124866499Y-62523700D01*
X124866499Y-62777700D01*
G37*
X124866499Y-62777700D02*
X124485499Y-62777700D01*
X124485499Y-62523700D01*
X124866499Y-62523700D01*
X124866499Y-62777700D01*
X128485499Y-62777700D02*
X128485499Y-62523700D01*
X128485499Y-62523700D02*
X128866499Y-62523700D01*
X128866499Y-62523700D02*
X128866499Y-62777700D01*
X128866499Y-62777700D02*
X128485499Y-62777700D01*
G36*
X128866499Y-62777700D02*
G01*
X128485499Y-62777700D01*
X128485499Y-62523700D01*
X128866499Y-62523700D01*
X128866499Y-62777700D01*
G37*
X128866499Y-62777700D02*
X128485499Y-62777700D01*
X128485499Y-62523700D01*
X128866499Y-62523700D01*
X128866499Y-62777700D01*
X133337300Y-67394501D02*
X133337300Y-67775501D01*
X133337300Y-67775501D02*
X133083300Y-67775501D01*
X133083300Y-67775501D02*
X133083300Y-67394501D01*
X133083300Y-67394501D02*
X133337300Y-67394501D01*
G36*
X133337300Y-67775501D02*
G01*
X133083300Y-67775501D01*
X133083300Y-67394501D01*
X133337300Y-67394501D01*
X133337300Y-67775501D01*
G37*
X133337300Y-67775501D02*
X133083300Y-67775501D01*
X133083300Y-67394501D01*
X133337300Y-67394501D01*
X133337300Y-67775501D01*
X126085501Y-77992300D02*
X126085501Y-78246300D01*
X126085501Y-78246300D02*
X126466501Y-78246300D01*
X126466501Y-78246300D02*
X126466501Y-77992300D01*
X126466501Y-77992300D02*
X126085501Y-77992300D01*
G36*
X126466501Y-78246300D02*
G01*
X126085501Y-78246300D01*
X126085501Y-77992300D01*
X126466501Y-77992300D01*
X126466501Y-78246300D01*
G37*
X126466501Y-78246300D02*
X126085501Y-78246300D01*
X126085501Y-77992300D01*
X126466501Y-77992300D01*
X126466501Y-78246300D01*
X117614700Y-68994500D02*
X117614700Y-69375500D01*
X117614700Y-69375500D02*
X117868700Y-69375500D01*
X117868700Y-69375500D02*
X117868700Y-68994500D01*
X117868700Y-68994500D02*
X117614700Y-68994500D01*
G36*
X117868700Y-69375500D02*
G01*
X117614700Y-69375500D01*
X117614700Y-68994500D01*
X117868700Y-68994500D01*
X117868700Y-69375500D01*
G37*
X117868700Y-69375500D02*
X117614700Y-69375500D01*
X117614700Y-68994500D01*
X117868700Y-68994500D01*
X117868700Y-69375500D01*
X133337300Y-71394500D02*
X133337300Y-71775500D01*
X133337300Y-71775500D02*
X133083300Y-71775500D01*
X133083300Y-71775500D02*
X133083300Y-71394500D01*
X133083300Y-71394500D02*
X133337300Y-71394500D01*
G36*
X133337300Y-71775500D02*
G01*
X133083300Y-71775500D01*
X133083300Y-71394500D01*
X133337300Y-71394500D01*
X133337300Y-71775500D01*
G37*
X133337300Y-71775500D02*
X133083300Y-71775500D01*
X133083300Y-71394500D01*
X133337300Y-71394500D01*
X133337300Y-71775500D01*
X122085501Y-77992300D02*
X122085501Y-78246300D01*
X122085501Y-78246300D02*
X122466501Y-78246300D01*
X122466501Y-78246300D02*
X122466501Y-77992300D01*
X122466501Y-77992300D02*
X122085501Y-77992300D01*
G36*
X122466501Y-78246300D02*
G01*
X122085501Y-78246300D01*
X122085501Y-77992300D01*
X122466501Y-77992300D01*
X122466501Y-78246300D01*
G37*
X122466501Y-78246300D02*
X122085501Y-78246300D01*
X122085501Y-77992300D01*
X122466501Y-77992300D01*
X122466501Y-78246300D01*
X130085501Y-77992300D02*
X130085501Y-78246300D01*
X130085501Y-78246300D02*
X130466501Y-78246300D01*
X130466501Y-78246300D02*
X130466501Y-77992300D01*
X130466501Y-77992300D02*
X130085501Y-77992300D01*
G36*
X130466501Y-78246300D02*
G01*
X130085501Y-78246300D01*
X130085501Y-77992300D01*
X130466501Y-77992300D01*
X130466501Y-78246300D01*
G37*
X130466501Y-78246300D02*
X130085501Y-78246300D01*
X130085501Y-77992300D01*
X130466501Y-77992300D01*
X130466501Y-78246300D01*
X120485499Y-62777700D02*
X120485499Y-62523700D01*
X120485499Y-62523700D02*
X120866499Y-62523700D01*
X120866499Y-62523700D02*
X120866499Y-62777700D01*
X120866499Y-62777700D02*
X120485499Y-62777700D01*
G36*
X120866499Y-62777700D02*
G01*
X120485499Y-62777700D01*
X120485499Y-62523700D01*
X120866499Y-62523700D01*
X120866499Y-62777700D01*
G37*
X120866499Y-62777700D02*
X120485499Y-62777700D01*
X120485499Y-62523700D01*
X120866499Y-62523700D01*
X120866499Y-62777700D01*
D11*
%TO.C,J3*%
X84749000Y-89739000D02*
X84749000Y-79459000D01*
X79549000Y-89739000D02*
X79549000Y-88409000D01*
X84749000Y-79459000D02*
X79549000Y-79459000D01*
X82149000Y-87139000D02*
X79549000Y-87139000D01*
X80879000Y-89739000D02*
X79549000Y-89739000D01*
X82149000Y-89739000D02*
X82149000Y-87139000D01*
X84749000Y-89739000D02*
X82149000Y-89739000D01*
X79549000Y-87139000D02*
X79549000Y-79459000D01*
%TO.C,J16*%
X104327000Y-48795000D02*
X104327000Y-53935000D01*
X101667000Y-48795000D02*
X101667000Y-53935000D01*
X104327000Y-46195000D02*
X104327000Y-47525000D01*
X101667000Y-48795000D02*
X104327000Y-48795000D01*
X102997000Y-46195000D02*
X104327000Y-46195000D01*
X101667000Y-53935000D02*
X104327000Y-53935000D01*
%TO.C,C8*%
X147857800Y-132767452D02*
X147857800Y-131344948D01*
X149677800Y-132767452D02*
X149677800Y-131344948D01*
%TO.C,J19*%
X158893200Y-107848400D02*
X161553200Y-107848400D01*
X161553200Y-107848400D02*
X161553200Y-110448400D01*
X158893200Y-110448400D02*
X161553200Y-110448400D01*
X161553200Y-105248400D02*
X161553200Y-106578400D01*
X160223200Y-105248400D02*
X161553200Y-105248400D01*
X158893200Y-107848400D02*
X158893200Y-110448400D01*
%TO.C,R7*%
X86895000Y-132895936D02*
X86895000Y-133350064D01*
X88365000Y-132895936D02*
X88365000Y-133350064D01*
%TO.C,C12*%
X163041000Y-130550348D02*
X163041000Y-131072852D01*
X161571000Y-130550348D02*
X161571000Y-131072852D01*
%TO.C,C19*%
X85991700Y-117695040D02*
X85991700Y-123534500D01*
X99936300Y-123534500D02*
X99936300Y-117695040D01*
X99936300Y-109589900D02*
X85991700Y-109589900D01*
X99936300Y-115429360D02*
X99936300Y-109589900D01*
X85991700Y-109589900D02*
X85991700Y-115429360D01*
X85991700Y-123534500D02*
X99936300Y-123534500D01*
%TO.C,D2*%
X124507200Y-125908400D02*
X119107200Y-125908400D01*
X124507200Y-125908400D02*
X124507200Y-122608400D01*
X124507200Y-122608400D02*
X119107200Y-122608400D01*
%TO.C,J8*%
X161477000Y-100230000D02*
X158817000Y-100230000D01*
X161477000Y-100230000D02*
X161477000Y-84930000D01*
X158817000Y-102830000D02*
X158817000Y-101500000D01*
X161477000Y-84930000D02*
X158817000Y-84930000D01*
X158817000Y-100230000D02*
X158817000Y-84930000D01*
X160147000Y-102830000D02*
X158817000Y-102830000D01*
%TO.C,J17*%
X96968000Y-48795000D02*
X96968000Y-53935000D01*
X96968000Y-53935000D02*
X99628000Y-53935000D01*
X98298000Y-46195000D02*
X99628000Y-46195000D01*
X99628000Y-46195000D02*
X99628000Y-47525000D01*
X99628000Y-48795000D02*
X99628000Y-53935000D01*
X96968000Y-48795000D02*
X99628000Y-48795000D01*
%TO.C,R18*%
X100864936Y-92002000D02*
X101319064Y-92002000D01*
X100864936Y-93472000D02*
X101319064Y-93472000D01*
%TO.C,B1*%
X125857000Y-91870860D02*
X125857000Y-86107600D01*
X109982000Y-95127140D02*
X109982000Y-100890400D01*
X125857000Y-86107600D02*
X109982000Y-86107600D01*
X109982000Y-100890400D02*
X125857000Y-100890400D01*
X109982000Y-86107600D02*
X109982000Y-91870860D01*
X125857000Y-100890400D02*
X125857000Y-95127140D01*
%TO.C,C27*%
X128116000Y-58581252D02*
X128116000Y-58058748D01*
X126646000Y-58581252D02*
X126646000Y-58058748D01*
%TO.C,J9*%
X155889000Y-84930000D02*
X153229000Y-84930000D01*
X153229000Y-102830000D02*
X153229000Y-101500000D01*
X155889000Y-100230000D02*
X155889000Y-84930000D01*
X154559000Y-102830000D02*
X153229000Y-102830000D01*
X153229000Y-100230000D02*
X153229000Y-84930000D01*
X155889000Y-100230000D02*
X153229000Y-100230000D01*
%TO.C,C25*%
X142482200Y-59733548D02*
X142482200Y-60256052D01*
X141012200Y-59733548D02*
X141012200Y-60256052D01*
%TO.C,C9*%
X163771948Y-137671200D02*
X164294452Y-137671200D01*
X163771948Y-139141200D02*
X164294452Y-139141200D01*
%TO.C,R19*%
X113819000Y-79121064D02*
X113819000Y-78666936D01*
X115289000Y-79121064D02*
X115289000Y-78666936D01*
%TO.C,R15*%
X149048400Y-94795564D02*
X149048400Y-94341436D01*
X150518400Y-94795564D02*
X150518400Y-94341436D01*
%TO.C,C26*%
X138132452Y-101527000D02*
X137609948Y-101527000D01*
X138132452Y-102997000D02*
X137609948Y-102997000D01*
%TO.C,R1*%
X143968800Y-134115136D02*
X143968800Y-134569264D01*
X145438800Y-134115136D02*
X145438800Y-134569264D01*
%TO.C,C39*%
X143820000Y-110034400D02*
G75*
G03*
X143820000Y-110034400I-4120000J0D01*
G01*
%TO.C,R11*%
X106326000Y-134620064D02*
X106326000Y-134165936D01*
X107796000Y-134620064D02*
X107796000Y-134165936D01*
%TO.C,C11*%
X148032800Y-137890948D02*
X148032800Y-138413452D01*
X149502800Y-137890948D02*
X149502800Y-138413452D01*
%TO.C,Y2*%
X145970400Y-58505800D02*
X145070400Y-59105800D01*
X145070400Y-57205800D02*
X144870400Y-57205800D01*
X145970400Y-57805800D02*
X145070400Y-57205800D01*
X145970400Y-59355800D02*
X152370400Y-59355800D01*
X152370400Y-59355800D02*
X152370400Y-56955800D01*
X145970400Y-56955800D02*
X145970400Y-59355800D01*
X152370400Y-56955800D02*
X145970400Y-56955800D01*
X145070400Y-59105800D02*
X144870400Y-59105800D01*
%TO.C,J20*%
X82016600Y-56702000D02*
X79416600Y-56702000D01*
X82016600Y-54042000D02*
X82016600Y-56702000D01*
X82016600Y-54042000D02*
X79416600Y-54042000D01*
X84616600Y-55372000D02*
X84616600Y-56702000D01*
X79416600Y-54042000D02*
X79416600Y-56702000D01*
X84616600Y-56702000D02*
X83286600Y-56702000D01*
%TD*%
M02*
