M48
; DRILL file {KiCad (6.0.2)} date Wed Feb 23 19:08:16 2022
; FORMAT={-:-/ absolute / inch / decimal}
; #@! TF.CreationDate,2022-02-23T19:08:16-05:00
; #@! TF.GenerationSoftware,Kicad,Pcbnew,(6.0.2)
; #@! TF.FileFunction,Plated,1,4,PTH
FMAT,2
INCH
; #@! TA.AperFunction,Plated,PTH,ViaDrill
T1C0.0118
; #@! TA.AperFunction,Plated,PTH,ViaDrill
T2C0.0157
; #@! TA.AperFunction,Plated,PTH,ComponentDrill
T3C0.0197
; #@! TA.AperFunction,Plated,PTH,ComponentDrill
T4C0.0315
; #@! TA.AperFunction,Plated,PTH,ComponentDrill
T5C0.0350
; #@! TA.AperFunction,Plated,PTH,ComponentDrill
T6C0.0390
; #@! TA.AperFunction,Plated,PTH,ComponentDrill
T7C0.0394
; #@! TA.AperFunction,Plated,PTH,ComponentDrill
T8C0.0490
; #@! TA.AperFunction,Plated,PTH,ComponentDrill
T9C0.0512
; #@! TA.AperFunction,Plated,PTH,ComponentDrill
T10C0.0630
; #@! TA.AperFunction,Plated,PTH,ComponentDrill
T11C0.1260
%
G90
G05
T1
X3.179Y-2.232
X3.278Y-2.232
X3.28Y-2.127
X3.423Y-3.097
X3.425Y-3.1361
X3.45Y-4.534
X3.45Y-4.646
X3.57Y-4.588
X3.647Y-5.231
X3.712Y-5.1601
X3.746Y-4.55
X3.746Y-4.589
X3.746Y-4.627
X3.79Y-5.208
X3.79Y-5.2541
X3.79Y-5.3
X3.79Y-5.344
X3.828Y-5.208
X3.828Y-5.2541
X3.828Y-5.3001
X3.828Y-5.3441
X4.007Y-5.416
X4.018Y-3.7021
X4.255Y-2.22
X4.355Y-2.22
X4.455Y-2.22
X4.475Y-2.8161
X4.51Y-3.03
X4.555Y-2.22
X4.6188Y-2.8183
X4.6192Y-2.5978
X4.655Y-2.22
X4.738Y-2.8121
X4.755Y-2.22
X4.77Y-3.2
X4.79Y-2.2811
X4.79Y-2.3611
X4.8082Y-2.39
X4.81Y-2.2561
X4.814Y-3.097
X4.83Y-2.98
X4.835Y-2.3311
X4.8604Y-2.3507
X4.905Y-2.98
X4.9243Y-3.0953
X4.945Y-2.9211
X4.945Y-2.9561
X4.955Y-2.8061
X4.9655Y-3.2
X4.99Y-2.8061
X5.02Y-2.22
X5.058Y-2.9801
X5.066Y-3.097
X5.07Y-3.2393
X5.0741Y-2.677
X5.075Y-2.6261
X5.075Y-2.7261
X5.095Y-2.6511
X5.095Y-2.7011
X5.095Y-2.7511
X5.115Y-3.141
X5.1379Y-3.162
X5.1606Y-3.141
X5.1824Y-3.1613
X5.2445Y-3.8841
X5.2445Y-3.9341
X5.256Y-2.5721
X5.256Y-2.7335
X5.275Y-3.2111
X5.305Y-3.1911
X5.306Y-2.8101
X5.418Y-2.8501
X5.5316Y-2.4014
X5.532Y-2.182
X5.736Y-2.9281
X5.738Y-2.6041
X5.79Y-2.6461
X5.79Y-2.8861
X5.85Y-3.54
X5.938Y-5.2141
X5.988Y-4.348
X6.088Y-4.348
X6.104Y-5.22
X6.104Y-5.266
X6.104Y-5.312
X6.104Y-5.358
X6.14Y-5.22
X6.14Y-5.266
X6.14Y-5.312
X6.14Y-5.358
X6.644Y-3.216
X6.65Y-2.922
X6.692Y-3.264
T2
X3.435Y-1.9711
X3.44Y-1.8711
X3.515Y-5.4261
X3.558Y-3.8761
X3.587Y-5.044
X3.62Y-1.9711
X3.625Y-1.8711
X3.648Y-5.092
X3.65Y-5.4261
X3.656Y-3.9261
X3.656Y-4.996
X3.73Y-3.3911
X3.73Y-3.4711
X3.73Y-5.056
X3.731Y-4.935
X3.805Y-1.8711
X3.805Y-1.9711
X3.862Y-4.1881
X3.962Y-5.1481
X3.99Y-1.8711
X3.99Y-1.9711
X3.995Y-5.2561
X4.145Y-5.2561
X4.146Y-4.1901
X4.244Y-4.3501
X4.248Y-4.1221
X4.255Y-1.8061
X4.332Y-3.5941
X4.332Y-3.7661
X4.34Y-2.8711
X4.34Y-2.9311
X4.355Y-1.8061
X4.375Y-2.8361
X4.375Y-2.8961
X4.425Y-5.1861
X4.425Y-5.3061
X4.455Y-1.8061
X4.468Y-2.6001
X4.512Y-2.4181
X4.555Y-1.8061
X4.59Y-2.4181
X4.6Y-2.5411
X4.655Y-1.8061
X4.69Y-4.8241
X4.69Y-4.9621
X4.755Y-1.8061
X4.809Y-5.2227
X4.864Y-5.1877
X4.955Y-1.8061
X5.165Y-5.3811
X5.24Y-5.2961
X5.25Y-5.4561
X5.29Y-4.6261
X5.29Y-4.6761
X5.325Y-5.3761
X5.346Y-4.0261
X5.445Y-3.3311
X5.445Y-3.3911
X5.445Y-3.4511
X5.445Y-3.5068
X5.475Y-3.3011
X5.475Y-3.3611
X5.475Y-3.4211
X5.475Y-3.4811
X5.51Y-4.0261
X5.655Y-1.8061
X5.655Y-2.0361
X5.685Y-3.6611
X5.719Y-3.215
X5.728Y-3.7761
X5.73Y-3.9741
X5.825Y-3.6311
X5.846Y-3.7601
X5.85Y-2.9901
X5.85Y-3.2141
X5.855Y-1.8061
X5.955Y-1.8061
X6.055Y-1.8061
X6.144Y-3.896
X6.145Y-3.7961
X6.155Y-1.8061
X6.246Y-3.798
X6.248Y-3.896
X6.255Y-1.806
X6.274Y-5.1561
X6.296Y-5.3641
X6.355Y-1.805
X6.465Y-2.2961
X6.465Y-2.4961
X6.47Y-2.7961
X6.47Y-3.0961
X6.582Y-3.796
X6.582Y-3.896
X6.594Y-4.3761
X6.69Y-3.796
X6.69Y-3.896
X6.698Y-5.2041
X6.744Y-5.1581
X6.81Y-5.2561
X6.825Y-2.2961
X6.825Y-2.4961
T3
X5.676Y-2.2522
X5.676Y-2.327
T4
X4.942Y-4.2716
X4.942Y-4.4685
X5.5Y-4.2632
X5.5Y-4.401
T5
X3.6164Y-3.8761
X3.6164Y-3.9761
X3.6164Y-4.0761
X3.7164Y-3.8261
X3.7164Y-3.9261
X3.7164Y-4.0261
T6
X3.9148Y-3.9331
X3.9148Y-4.189
X4.092Y-3.9331
X4.092Y-4.189
T7
X3.179Y-2.18
X3.1792Y-2.3803
X3.1792Y-2.4803
X3.1792Y-2.5803
X3.1792Y-2.6803
X3.1792Y-2.7803
X3.1792Y-2.8803
X3.1792Y-2.9803
X3.1842Y-3.1807
X3.1842Y-3.2807
X3.1842Y-3.3807
X3.1842Y-3.4807
X3.279Y-2.18
X3.2792Y-2.3803
X3.2792Y-2.4803
X3.2792Y-2.5803
X3.2792Y-2.6803
X3.2792Y-2.7803
X3.2792Y-2.8803
X3.2792Y-2.9803
X3.2842Y-3.1807
X3.2842Y-3.2807
X3.2842Y-3.3807
X3.2842Y-3.4807
X3.5Y-1.8711
X3.5Y-1.9711
X3.5Y-2.0711
X3.541Y-3.1815
X3.541Y-3.2815
X3.541Y-3.3815
X3.541Y-3.4815
X3.685Y-1.8711
X3.685Y-1.9711
X3.685Y-2.0711
X3.87Y-1.8711
X3.87Y-1.9711
X3.87Y-2.0711
X4.055Y-1.8711
X4.055Y-1.9711
X4.055Y-2.0711
X4.255Y-1.8711
X4.255Y-1.9711
X4.355Y-1.8711
X4.355Y-1.9711
X4.455Y-1.8711
X4.455Y-1.9711
X4.555Y-1.8711
X4.555Y-1.9711
X4.655Y-1.8711
X4.655Y-1.9711
X4.755Y-1.8711
X4.755Y-1.9711
X4.955Y-1.8703
X4.955Y-1.9703
X5.055Y-1.8703
X5.055Y-1.9703
X5.155Y-1.8703
X5.155Y-1.9703
X5.255Y-1.8703
X5.255Y-1.9703
X5.355Y-1.8703
X5.355Y-1.9703
X5.455Y-1.8703
X5.455Y-1.9703
X5.555Y-1.8703
X5.555Y-1.9703
X5.655Y-1.8703
X5.655Y-1.9703
X5.855Y-1.87
X5.855Y-1.97
X5.955Y-1.87
X5.955Y-1.97
X5.988Y-4.1952
X5.988Y-4.2952
X6.055Y-1.87
X6.055Y-1.97
X6.085Y-3.3961
X6.085Y-3.4961
X6.085Y-3.5961
X6.085Y-3.6961
X6.085Y-3.7961
X6.085Y-3.8961
X6.085Y-3.9961
X6.088Y-4.1952
X6.088Y-4.2952
X6.155Y-1.87
X6.155Y-1.97
X6.255Y-1.87
X6.255Y-1.97
X6.305Y-3.3961
X6.305Y-3.4961
X6.305Y-3.5961
X6.305Y-3.6961
X6.305Y-3.7961
X6.305Y-3.8961
X6.305Y-3.9961
X6.308Y-4.196
X6.308Y-4.296
X6.355Y-1.87
X6.355Y-1.97
X6.455Y-1.87
X6.455Y-1.97
X6.525Y-3.3961
X6.525Y-3.4961
X6.525Y-3.5961
X6.525Y-3.6961
X6.525Y-3.7961
X6.525Y-3.8961
X6.525Y-3.9961
X6.527Y-4.196
X6.527Y-4.296
X6.527Y-2.2961
X6.527Y-2.3961
X6.527Y-2.4961
X6.53Y-2.7961
X6.53Y-2.8961
X6.53Y-2.9961
X6.53Y-3.0961
X6.7483Y-3.3945
X6.7483Y-3.4945
X6.7483Y-3.5945
X6.7483Y-3.6945
X6.7483Y-3.7945
X6.7483Y-3.8945
X6.7483Y-3.9945
X6.765Y-2.2961
X6.765Y-2.3961
X6.765Y-2.4961
X6.766Y-2.7969
X6.766Y-2.8969
X6.766Y-2.9969
X6.766Y-3.0969
T8
X4.495Y-3.6811
X4.79Y-3.6811
T9
X5.0496Y-5.3784
X5.2464Y-5.3784
T10
X3.218Y-5.152
X6.264Y-2.237
T11
X3.22Y-1.9161
X3.22Y-5.42
X6.7239Y-1.9161
X6.7239Y-5.42
T0
M30
